<?xml version="1.0" encoding="utf-8"?>
<!-- Generator: Adobe Illustrator 24.1.0, SVG Export Plug-In . SVG Version: 6.00 Build 0)  -->
<svg version="1.1" id="Layer_1" xmlns="http://www.w3.org/2000/svg" xmlns:xlink="http://www.w3.org/1999/xlink" x="0px" y="0px"
	 viewBox="0 0 512 512" style="enable-background:new 0 0 512 512;" xml:space="preserve">
<style type="text/css">
	.st0{fill:none;stroke:#2086AB;stroke-width:8.803;stroke-linecap:round;stroke-miterlimit:10;}
</style>
<g>
	<g>
		<path class="st0" d="M393.9,125c5-11.7,16.6-19.9,30.1-19.9c18,0,32.7,14.6,32.7,32.7c0,6-1.6,11.6-4.4,16.4"/>
		<path class="st0" d="M402.1,197.6c2.7-18.1,15.9-33.7,34.8-38.5c25.1-6.4,50.7,8.7,57.2,33.8c2.1,8.3,1.9,16.7-0.3,24.5"/>
		<path class="st0" d="M492.4,217.7c8.4,8.3,13.6,19.7,13.6,32.4c0,25.1-20.4,45.5-45.5,45.5"/>
		<path class="st0" d="M496.8,279.3c5.8,7.8,9.2,17.4,9.2,27.8c0,18.6-10.9,34.7-26.7,42.3"/>
		<path class="st0" d="M449.5,197.6c0,25.5-20.7,46.3-46.3,46.3c-12.8,0-24.3-5.2-32.7-13.5"/>
		<path class="st0" d="M348,194.8c5.3-7.4,13.5-12.6,22.8-14.1"/>
		<path class="st0" d="M436.7,277.4c-17.7-1.1-31.9-15.5-32.7-33.3"/>
		<path class="st0" d="M387.9,301.6c0.9-0.1,1.9-0.1,2.8-0.1c24.8,0,45,20.1,45,45c0,2.8-0.2,5.5-0.7,8.1"/>
		<path class="st0" d="M404.3,397.3c0-24.9,20.2-45.1,45.1-45.1"/>
		<line class="st0" x1="347.9" y1="375.8" x2="347.9" y2="99"/>
		<path class="st0" d="M348,99c0.9-5.2,2.3-9.9,5.7-13.8c13.7-15.5,43.2-11.9,66,8.2c4.4,3.8,8.2,8,11.3,12.4"/>
		<path class="st0" d="M479.9,351.3c0.7,3.3,1.1,6.7,1.1,10.3c0,22.2-15.2,41-35.7,46.4"/>
		<path class="st0" d="M445.2,407.4c-8.4,17.1-26,28.8-46.4,28.8c-28.6,0-51.7-23.1-51.7-51.7c0-23.2,15.3-42.8,36.3-49.4"/>
	</g>
	<circle class="st0" cx="202.3" cy="98.4" r="26.8"/>
	<circle class="st0" cx="119" cy="170.7" r="26.8"/>
	<circle class="st0" cx="32" cy="255.5" r="26.8"/>
	<circle class="st0" cx="119" cy="341.8" r="26.8"/>
	<circle class="st0" cx="202.3" cy="414" r="26.8"/>
	<line class="st0" x1="60.1" y1="255.5" x2="346.4" y2="255.5"/>
	<polyline class="st0" points="148.2,170.7 251.8,170.7 251.8,197.2 346.4,197.2 	"/>
	<polyline class="st0" points="229.3,98.4 292.8,98.4 292.8,144.2 345.8,144.2 	"/>
	<polyline class="st0" points="231.7,414 292.5,414 292.5,370.7 343.4,370.7 	"/>
	<polyline class="st0" points="148.2,341.8 251.5,341.8 251.5,312.8 347.2,312.8 	"/>
</g>
</svg>
