<?xml version="1.0" encoding="utf-8"?>
<!-- Generator: Adobe Illustrator 24.1.2, SVG Export Plug-In . SVG Version: 6.00 Build 0)  -->
<svg version="1.1" id="Capa_1" xmlns="http://www.w3.org/2000/svg" xmlns:xlink="http://www.w3.org/1999/xlink" x="0px" y="0px"
	 viewBox="0 0 392.4 511" style="enable-background:new 0 0 392.4 511;" xml:space="preserve">
<style type="text/css">
	.st0{fill:#8FA1CC;}
</style>
<path class="st0" d="M391.6,242.4l-36-60.1V116h0.4c6.6,0,11.9-5.3,11.9-11.9V91.4h18.8c2.2,0,4.2-1.2,5.2-3.2c1-2,0.8-4.3-0.5-6
	l-18.4-24.6c-1.1-1.5-2.8-2.3-4.6-2.3h-48.5L82.7,0.1C82.1,0,81.4,0,80.8,0c-0.2,0-0.5,0-0.7,0h-1.3c-2.8,0-5.3,1-7.4,2.6L2.5,50.1
	c0,0,0,0,0,0l0,0c0,0-0.1,0.1-0.1,0.1c-0.1,0.1-0.2,0.1-0.3,0.2c-0.1,0.1-0.1,0.1-0.2,0.2c-0.1,0.1-0.1,0.1-0.2,0.2
	C1.6,51,1.5,51,1.4,51.1c-0.1,0.1-0.1,0.1-0.2,0.2c-0.1,0.1-0.1,0.2-0.2,0.3C1,51.6,1,51.7,1,51.7c-0.1,0.1-0.1,0.2-0.2,0.3
	c0,0.1-0.1,0.2-0.1,0.2c0,0.1-0.1,0.2-0.1,0.2c0,0.1-0.1,0.2-0.1,0.3c0,0.1-0.1,0.1-0.1,0.2c0,0.1-0.1,0.2-0.1,0.3
	c0,0.1,0,0.1-0.1,0.2c0,0.1-0.1,0.2-0.1,0.3c0,0.1,0,0.2,0,0.3c0,0.1,0,0.2,0,0.3c0,0.1,0,0.2,0,0.4c0,0.1,0,0.1,0,0.2L0,55
	c0,0,0,0,0,0v30.7c0,3.2,2.6,5.8,5.8,5.8h30.7h25v358.6c0,4,2,7.6,5.1,9.7l-3.8,15.2h-7.8c-10,0-18,8.1-18,18v6.5h-6.5
	c-3.2,0-5.8,2.6-5.8,5.8s2.6,5.8,5.8,5.8h98.3c3.2,0,5.8-2.6,5.8-5.8s-2.6-5.8-5.8-5.8h-6.5V493c0-10-8.1-18-18-18h-7.8l-3.8-15.2
	c3.1-2.2,5.1-5.7,5.1-9.7V134.4h3.1c8.3,0,15.4-5.6,17.5-13.5l8.7-29.5h205v12.7c0,6.6,5.3,11.9,11.9,11.9h0.4v66.4l-36,60.1
	c-1.1,1.8-1.1,4-0.1,5.8c1,1.8,2.9,2.9,5,2.9h73.7c2.1,0,4-1.1,5-2.9C392.7,246.4,392.7,244.2,391.6,242.4z M375.2,79.9H122.4
	c0,0,0,0,0,0H42.2V66.8h25h24.6h227.3c0,0,0,0,0,0c0,0,0,0,0,0h46.3L375.2,79.9z M78.5,11.7c0.1,0,0.1-0.1,0.2-0.1c0,0,0.1,0,0.1,0
	h1.3c0.2,0,0.4,0.1,0.4,0.3l4.8,43.4H73.6l4.8-43.4C78.5,11.8,78.5,11.7,78.5,11.7z M62,55.3H42.2v-0.4c0-3.2-2.6-5.8-5.8-5.8H24.2
	l41.7-28.8L62,55.3z M96.9,55.3l-4.6-41.1l176.5,41.1H96.9z M11.5,60.7h19.2v19.2H11.5V60.7z M110.6,493v6.5H48.4V493
	c0-3.6,2.9-6.5,6.5-6.5h12.3c0,0,0,0,0,0c0,0,0,0,0,0h24.5c0,0,0,0,0,0c0,0,0,0,0,0h12.3C107.7,486.4,110.6,489.4,110.6,493z
	 M74.6,474.9l3.3-13.1h3.3l3.3,13.1H74.6z M86,449.9c0,0.2-0.2,0.4-0.4,0.4H73.3c-0.2,0-0.4-0.2-0.4-0.4V134.4H86V449.9z M107,117.7
	c0,0.1,0,0.2-0.1,0.2c-0.7,2.9-3.3,4.9-6.3,4.9H73V91.4h41.8L107,117.7z M343.3,104.1V91.4h13.1v12.7c0,0.2-0.2,0.4-0.4,0.4h-12.3
	C343.5,104.4,343.3,104.3,343.3,104.1z M323.1,239.6l26.7-44.5l26.7,44.5H323.1z"/>
</svg>
