<?xml version="1.0" encoding="utf-8"?>
<!-- Generator: Adobe Illustrator 24.1.0, SVG Export Plug-In . SVG Version: 6.00 Build 0)  -->
<svg version="1.1" id="Layer_1" xmlns="http://www.w3.org/2000/svg" xmlns:xlink="http://www.w3.org/1999/xlink" x="0px" y="0px"
	 viewBox="0 0 512 512" style="enable-background:new 0 0 512 512;" xml:space="preserve">
<style type="text/css">
	.st0{fill:none;stroke:#2086AB;stroke-width:9;stroke-linecap:round;stroke-miterlimit:10;}
	.st1{fill:none;stroke:#2086AB;stroke-width:4.5;stroke-linecap:round;stroke-miterlimit:10;}
	.st2{fill:#2086AB;stroke:#2086AB;stroke-miterlimit:10;}
</style>
<g>
	<g>
		<path class="st0" d="M7.3,249.4c29.8,20.1,135.8,91.7,161.6,107.6c21,12.5,41.8,9.1,52.6,2.6c8.5-5.1,201-126.7,284-179.2"/>
		<path class="st0" d="M30.2,212.6l3.2-1.7c0,0,1.3-3.2,3.7-3c2.4,0.2,4.3,1.7,4.3,1.7s131.3,80.8,138,85.5
			c6.8,4.6,27.5,9.1,41.5,0.9c14.1-8.2,206.5-117.7,215.9-123.8c9.4-6.1,8.7-18-5.8-24.7c-14.5-6.6-137-61.4-137-61.4
			s-5.4-2.8-10.2,0c-4.8,2.8-238.2,110.6-245.3,114S31.5,205.9,30.2,212.6z"/>
		<g>
			<path class="st1" d="M247.4,318.8c39.5-24,144.4-88.3,221.2-135.4"/>
			<path class="st1" d="M21.4,237.4c39.4,26.6,102.6,69.3,134.4,90.4"/>
			<line class="st1" x1="162.3" y1="260.4" x2="190.9" y2="278.1"/>
			<line class="st1" x1="66.3" y1="201.1" x2="145.8" y2="250.2"/>
			<polyline class="st1" points="216.6,275.9 243.3,260.6 413.4,163.8 			"/>
		</g>
		<path class="st0" d="M281.2,360.7c2.6-1.9,7.5,3.8,2.2,7.6c-5.3,3.9-6.5,5-10.8,7.6c-4.3,2.6-6.2-4-2.7-6.5
			C273.3,367.1,278.6,362.6,281.2,360.7z"/>
		<path class="st0" d="M269.9,377.3c0,0-2.7-1.2-4.3-2.7c-1.6-1.6-1.2-6.9,2.1-9.5c3.4-2.7,6.6-4.8,9.1-6.4c2.5-1.6,4.6-1.8,5.9-0.8
			c1.3,1,3.1,3.1,3.3,4.4c0.2,1.4-0.4,3.6-0.4,3.6"/>
		<path class="st0" d="M492.3,159.3c-12.3-5.8-154-67.5-165.3-71.8c-11.1-4.3-14.6-5.2-28.7,0.6c21.6,9.7,119.9,53.7,132.8,59.6
			c14.5,6.6,15.2,18.6,5.8,24.7C427.5,178.3,235.1,287.8,221,296c-14.1,8.2-34.8,3.7-41.5-0.9c-6.8-4.6-138-85.5-138-85.5
			s-1.1-0.8-2.6-1.4c-2.1,1-4,1.9-5.4,2.6c0,0,0,0,0,0l-3.2,1.7c-12.1,6.9-25.4,14.7-23.4,32.3c1.4,13.8,4,35.5,5.2,45
			c1.2,9.5,4.6,19.6,15.6,27.7c11,8.1,128.1,90.3,144.5,101.3c16.4,11,37.2,12.7,55.4,1.7c18.2-11,244.3-158.9,255.3-167
			c11-8.1,16.7-12.7,18.2-22.5c1.4-9.8,3.8-37.9,4.3-46.7C505.9,175.6,504.6,165,492.3,159.3z"/>
	</g>
	<path class="st2" d="M90,249.8c1.7-0.5,3.7,0.9,3.7,2.4c0,1.4-1.8,2.9-3.3,3c-1.2,0-2.8-0.7-2.9-2.1
		C87.4,251.7,88.8,250.2,90,249.8z"/>
	<path class="st2" d="M343.3,236.7c-0.1,1.1,1.8,2.5,3.6,2.5c1.9,0.1,3.9-1.4,3.9-2.5c-0.1-1.1-2-1.8-3.4-1.9
		C345.6,234.7,343.3,235.6,343.3,236.7z"/>
	<path class="st2" d="M359.7,111.3c1-0.9,3-1.4,4.3-0.4c0.8,0.6,1.4,1.8,1.1,2.7c-0.5,1.3-2.7,1.5-4.1,1c-0.9-0.3-2.1-1.1-2-2.1
		C359,111.9,359.4,111.5,359.7,111.3z"/>
</g>
</svg>
