<?xml version="1.0" encoding="utf-8"?>
<!-- Generator: Adobe Illustrator 24.1.0, SVG Export Plug-In . SVG Version: 6.00 Build 0)  -->
<svg version="1.1" id="Layer_1" xmlns="http://www.w3.org/2000/svg" xmlns:xlink="http://www.w3.org/1999/xlink" x="0px" y="0px"
	 viewBox="0 0 512 512" style="enable-background:new 0 0 512 512;" xml:space="preserve">
<style type="text/css">
	.st0{fill:#8FA1CC;}
</style>
<g>
	<path class="st0" d="M263.1,512.2c-4.2,0-8.4,0-12.6,0c0-1.1-0.1-2.3-0.1-3.4c-0.2-5.8-0.8-11.5-3-17c-2.7-6.6-6.7-12.5-13.1-15.6
		c-9.7-4.6-19.5-8.8-30.7-9.3c-12.2-0.5-22.3,3-30.3,12.4c-3.6,4.2-6.3,9-8.3,14.2c-0.2,0.6-0.5,1.2-0.9,2
		c-3.5-1.5-6.8-2.9-10.2-4.3c-1.3-0.5-1.5-1.1-1-2.4c2.1-4.8,3.7-9.8,4.2-15c0.9-9.7-1.2-18.4-8.3-25.5c-2.2-2.2-4.5-4.3-6.7-6.6
		c-5.2-5.4-11.3-9.4-18.3-12.2c-6.7-2.7-13.4-3.6-20.5-2c-8.5,1.9-15.5,6.6-21.5,12.8c-0.6,0.6-1,1.5-1.5,2.3c0-0.3-0.1-0.7-0.1-1
		c-3-2.9-6.1-5.7-9.4-8.8c0.7-0.6,1.4-1,1.9-1.7c2.7-3.3,5.6-6.4,7.9-10c4.6-7.2,6.4-15.2,4.5-23.6c-0.9-3.9-2.8-7.5-4.3-11.3
		c-3.1-8-7.7-15.1-13.9-21.2c-6.4-6.2-13.8-9.6-22.7-10c-7.2-0.3-14,1.4-20.5,4.2c-0.7,0.3-1.3,0.5-2.2,0.9
		c-1.4-3.4-2.7-6.7-4.1-9.9c-0.7-1.6-0.4-2.2,1.2-2.8c6.8-2.7,13-6.2,17.8-11.9c4.7-5.5,7.7-11.8,7.6-19.2c-0.1-4.5-0.1-9-0.2-13.5
		c-0.1-5-0.9-9.8-2.8-14.4c-1.6-4-3-8.1-5.7-11.6c-9.1-11.7-21.6-15-35.7-14.3c0-4.3,0-8.6,0-13c1.6,0,3.3,0,4.9-0.1
		c4.8-0.2,9.5-0.8,14-2.4c7.2-2.5,13.6-6.7,16.9-13.5c4.5-9.3,8.5-18.8,9.1-29.5c0.9-15.1-4.6-26.6-17.2-34.6
		c-3-1.9-6.4-3.4-9.7-4.9c-1.2-0.5-1.6-1-1-2.2c1.3-2.9,2.5-5.8,3.7-8.8c0.5-1.3,1.1-1.4,2.3-0.9c5.1,2.2,10.3,3.9,15.9,4.3
		c9.3,0.7,17.7-1.5,24.5-8.2c2-2,3.9-4,5.9-5.9c5.5-5.5,10.1-11.6,13-18.9c2.4-6.3,3.3-12.6,2-19.2c-1.8-9-6.6-16.3-13.1-22.6
		c-0.6-0.6-1.4-0.9-2.1-1.4c0.3-0.1,0.6-0.1,1-0.2c2.9-3,5.7-6,8.9-9.4c0.6,0.7,1.1,1.5,1.7,2.1c4.1,4.1,8.6,7.7,13.9,10
		c8.2,3.6,16.4,4.2,24.9,0.6c10-4.2,20-8.4,27.5-16.8c0.1-0.1,0.2-0.2,0.2-0.2c6-6,9.2-13.3,9.6-21.8c0.4-7.4-1.3-14.3-4.2-21
		c-0.3-0.7-0.5-1.3-0.9-2.2c3.4-1.4,6.7-2.7,9.9-4.1c1.6-0.7,2.2-0.4,2.9,1.2c2.5,6.4,5.8,12.2,10.9,16.9c5.8,5.4,12.5,8.7,20.7,8.5
		c3.2-0.1,6.4-0.1,9.5-0.1c6.9,0,13.4-1.2,19.9-3.6c12-4.5,19.2-12.9,22.3-25.1c1.3-5.1,1.4-10.3,1.4-15.5c4.3,0,8.6,0,13,0
		c0,0.9,0,1.7,0,2.6c0,6.7,0.8,13.3,3.6,19.4c2.8,6.1,6.8,11.3,12.9,14.3c5.5,2.7,11.4,4.6,17.1,6.8c0.8,0.3,1.8,0.5,2.6,0.5
		c3.8,0.3,7.7,0.5,11.5,0.8c9.2,0.7,17.3-2,24.3-7.9c6-5.1,9.9-11.6,12.7-18.9c0.5-1.3,1-1.6,2.3-1c2.9,1.3,5.9,2.6,8.9,3.8
		c1.1,0.4,1.2,0.9,0.8,1.9c-0.9,2.1-1.7,4.2-2.4,6.4c-2.1,6.7-3,13.5-1.3,20.5c1.3,5.4,3.7,10.2,7.8,14.1c7.6,7.2,14.6,15.1,24.8,19
		c6.2,2.4,12.5,3.3,19,2.1c9-1.7,16.4-6.5,22.7-13c0.6-0.6,1-1.5,1.3-1.9c3.4,3.3,6.4,6.2,9.4,9.1c-2.3,2.7-4.9,5.3-7.1,8.2
		c-7.9,10.8-10.2,22.2-4.4,34.8c4.1,9,7.9,17.9,15.3,24.9c7.2,6.8,15.6,10.1,25.5,9.8c6.3-0.2,12.2-1.8,17.9-4.4
		c0.5-0.2,1.1-0.4,1.8-0.7c1.4,3.4,2.7,6.6,4,9.8c0.8,2.1,0.8,2.1-1.2,2.9c-6,2.5-11.7,5.6-16.3,10.3c-4.8,4.8-8.3,10.6-8.8,17.3
		c-0.5,7.1-0.2,14.3,0.5,21.4c0.4,4.1,2.1,8.2,3.5,12.2c4,11.4,12.1,18.4,23.5,21.7c5.5,1.6,11.2,1.8,16.9,1.7c0,4.3,0,8.6,0,13
		c-2.3,0-4.7,0-7,0.1c-6.9,0.4-13.5,2-19.3,5.9c-4.2,2.7-7.9,6.1-10,10.7c-2.4,5.2-4.3,10.6-6.4,16c-0.5,1.4-1,2.8-1.2,4.2
		c-0.4,4.1-0.6,8.3-0.8,12.4c-0.4,8.1,2.1,15.3,7.1,21.7c5.1,6.4,11.8,10.6,19.3,13.5c0.6,0.2,1.2,0.5,1.9,0.8
		c-0.2,0.6-0.3,1.1-0.5,1.5c-1.2,2.9-2.5,5.8-3.7,8.8c-0.5,1.2-1,1.4-2.3,0.9c-3.6-1.3-7.2-2.8-11-3.6c-11.8-2.4-22.3-0.1-31,8.9
		c-6.6,6.8-13.1,13.5-16.5,22.7c-0.3,0.7-0.7,1.4-1,2.2c-2.9,6.5-3.6,13.2-2.1,20.1c1.9,8.9,6.8,16,13.2,22.2
		c0.5,0.5,1.1,0.8,1.6,1.1c-3.2,3.3-6.2,6.2-9.2,9.3c-0.5-0.5-1.1-1-1.7-1.6c-4.2-4.2-8.7-7.8-14.1-10.3c-6.7-3.1-13.9-4.4-20.9-2.1
		c-11.3,3.8-22.2,8.5-30.6,17.7c-5.8,6.3-9.2,13.4-9.7,21.9c-0.4,7.4,1.3,14.3,4.2,21c0.3,0.7,0.5,1.3,0.9,2.2
		c-3.4,1.4-6.8,2.7-10,4.2c-1.5,0.7-2.1,0.3-2.7-1.2c-2.5-6.3-5.8-12.2-10.8-16.9c-4.7-4.5-10.2-7.8-16.6-8.3
		c-7.2-0.5-14.5-0.2-21.8,0.4c-3.9,0.3-7.6,2.1-11.4,3.3c-13.1,4.4-20.5,13.8-23,27.1C263.4,503.1,263.5,507.7,263.1,512.2z
		 M255.5,431.5c97.1,0.1,175.3-78.8,175.3-175.2c0-96.7-78.3-175.3-175.2-175.4C158.6,80.8,80.4,159.8,80.3,256
		C80.3,352.9,158.5,431.4,255.5,431.5z M124.4,101.9c0.1,3.2,1.4,5.6,3.4,7.4c3.6,3,7.4,5.6,11.2,8.3c0.3,0.2,1.3,0,1.7-0.3
		c2.1-1.6,4.1-3.3,6.2-4.8c7.3-5.6,15.1-10.5,23.2-15c0.6-0.3,1.4-1.2,1.4-1.8c-0.5-4.8-1.6-9.5-3.6-13.9c-0.7-1.6-1.7-3.3-2.9-4.5
		c-2.4-2.4-5.3-3.5-8.8-2.1c-10.2,4.1-19.4,9.8-26.7,18c-1.7,2-3,4.4-4.4,6.7C124.6,100.5,124.6,101.4,124.4,101.9z M436.4,350.7
		c0-2.6-1.1-4.5-3-5.9c-1.3-1-2.7-2-4.3-2.4c-4.1-1.2-8.3-2.1-12.5-3.1c-0.4-0.1-1.2,0.5-1.5,1c-5.6,10.6-12.2,20.5-19.7,29.8
		c-0.4,0.4-0.4,1.5-0.1,2.1c0.8,1.6,1.6,3.2,2.7,4.5c2.7,3.1,5.3,6.4,8.5,8.9c3.6,2.9,7.8,2.3,11.1-0.8c8.2-7.8,13.9-17.3,17.5-28
		C435.8,354.8,436,352.7,436.4,350.7z M242.3,449.6c0.1,0,0.2,0,0.3-0.1c-0.8-4.2-1.5-8.3-2.3-12.5c-0.2-1-0.8-1.3-1.8-1.4
		c-11.4-1-22.7-3.1-33.7-6.5c-1.7-0.5-2.8-0.3-3.6,1.3c-0.6,1-1.4,1.9-2.1,2.9c-2.3,3.7-4.5,7.4-5.3,11.7c-0.9,4.2,1,8,4.8,9.8
		c7,3.2,14.3,5,21.9,5.8c4.9,0.5,9.8,0.5,14.7-0.6c4.1-1,6.3-3.5,6.8-7.6C242.3,451.4,242.2,450.5,242.3,449.6z M386.4,100.1
		c-0.1-2.4-0.5-4.3-2.1-6c-4.7-5.1-10.4-9-16-12.9c-4.2-2.9-8.9-4.8-13.9-5.8c-5.7-1.1-8.8,0.5-11.1,5.8c-0.3,0.8-0.7,1.6-0.9,2.4
		c-0.9,3.9-1.8,7.8-2.6,11.8c-0.1,0.5,0.4,1.5,0.9,1.7c10.1,5.5,19.6,11.8,28.5,18.9c0.4,0.3,1.2,0.5,1.6,0.3
		c4.9-2.7,9.3-5.9,13-10.1C385.2,104.4,386.2,102.3,386.4,100.1z M284.2,51.4c-1.8,0.3-5.1,0.8-8.3,1.5c-3.1,0.7-4.8,2.9-5.4,5.9
		c-0.3,1.6-0.6,3.3-0.4,4.9c0.5,3.9,1.3,7.8,1.9,11.7c0.2,1,0.7,1.4,1.7,1.5c3,0.3,6.1,0.6,9.1,1.2c8.1,1.7,16.2,3.6,24.2,5.3
		c0.6,0.1,1.6,0,1.9-0.4c3.5-4.4,6.5-9,8.3-14.4c1.9-5.8,0-9.9-5.5-12.4C303.5,52.4,294.6,52,284.2,51.4z M410.4,124.7
		c-3.9,0.1-6.3,1.6-8.2,3.8c-2.7,3.2-5,6.7-7.6,10c-0.9,1.2-0.8,2.1,0.1,3.2c7,8.4,13.2,17.5,18.5,27.1c1.4,2.5,0.7,2.7,4.3,2.1
		c0.9-0.2,1.8-0.1,2.7-0.4c3.9-1.3,7.9-2.3,11.5-4.1c4.6-2.3,5.8-6.6,4-11.4c-2.5-6.7-6.4-12.7-10.6-18.4c-2.8-3.9-6.2-7.3-10.3-9.8
		C413.3,125.8,411.4,125.2,410.4,124.7z M101.3,387.1c3.4,0,5.8-1.3,7.5-3.3c2.8-3.3,5.3-6.9,7.9-10.4c0.7-0.9,0.6-1.6-0.1-2.5
		c-7.6-9.1-14.1-18.9-19.7-29.3c-0.5-1-1.1-1.2-2.2-1.1c-4.7,0.5-9.1,1.7-13.4,3.6c-1.4,0.6-2.7,1.5-3.9,2.4
		c-2.8,2.4-3.8,5.9-2.4,9.3c3.9,9.9,9.4,18.8,17.3,26c2.1,1.9,4.6,3.2,7,4.7C100,386.9,100.9,387,101.3,387.1z M270.6,449.7
		c0.1,0,0.3,0.1,0.4,0.1c0,0.6,0,1.1,0,1.7c0.1,6.7,3.7,10.3,10.4,10.2c9.5-0.1,18.7-1.9,27.4-5.9c2.5-1.2,4.9-2.8,7.2-4.5
		c2.6-1.8,3.1-4.6,2.5-7.5c-0.3-1.6-0.9-3.3-1.7-4.8c-1.8-3.3-3.9-6.4-5.9-9.6c-0.7-1.1-1.4-1.2-2.5-0.9c-4,1.1-8.1,2.4-12.2,3.2
		c-7.1,1.4-14.3,2.5-21.5,3.6c-1,0.2-1.7,0.4-1.9,1.6C272.1,441.2,271.3,445.5,270.6,449.7z M241.6,64.1c-0.3-2.5-0.3-4.5-0.7-6.4
		c-1-4.4-4.1-6.9-8.6-6.9c-8.4,0-16.6,1.2-24.6,3.8c-4.2,1.4-8.1,3.2-11.5,6.2c-1.8,1.6-2.9,3.6-2.5,6c0.3,2,0.7,4.1,1.6,5.8
		c1.7,3.4,3.9,6.5,5.8,9.8c0.8,1.3,1.6,1.6,3,1.1c11-3.4,22.2-5.5,33.7-6.6c1.1-0.1,1.5-0.6,1.7-1.5C240.2,71.5,241,67.6,241.6,64.1
		z M62.7,241.6c0,0.1,0,0.2,0.1,0.3c3.9-0.7,7.8-1.4,11.7-2.1c1.2-0.2,1.7-0.7,1.8-2c1.1-10.9,3.2-21.5,6.2-32
		c1.1-3.8,1.6-2.7-1.8-5.1c-4.1-3.1-8.5-5.6-13.6-6.9c-3.4-0.9-8.7,0.2-10.3,5c-0.4,1.1-0.9,2.2-1.4,3.3c-3,8-4.4,16.2-4.3,24.7
		c0,2.9,0.6,5.7,1.2,8.6c0.7,3.7,3.4,5.5,6.9,6.1C60.5,241.6,61.6,241.5,62.7,241.6z M62.1,269.9c-8.2,0.4-11.9,3.7-11.5,11.9
		c0.3,6.1,1.2,12.3,2.6,18.3c1.2,5.5,3.5,10.8,7.1,15.3c2.2,2.7,5,3.3,8.2,2.6c1.4-0.3,2.9-0.8,4.1-1.5c3.2-1.8,6.3-3.8,9.4-5.7
		c1.1-0.7,1.3-1.4,0.9-2.7c-3.4-11.2-5.6-22.7-6.8-34.3c-0.1-1.1-0.6-1.5-1.5-1.7C70.5,271.4,66.3,270.6,62.1,269.9z M386.7,410.8
		c-0.2-3.2-1.5-5.7-3.6-7.5c-2.8-2.4-5.8-4.7-8.9-6.8c-2.9-2.1-3-2-5.7,0.2c-0.5,0.4-1.1,0.9-1.6,1.3c-7.9,6.2-16.2,11.7-25,16.5
		c-0.7,0.4-1.5,0.7-1.3,1.9c0.6,4.5,1.5,9,3.4,13.1c0.8,1.9,1.9,3.8,3.3,5.3c2.4,2.5,5.4,3.6,8.9,2.2c10.1-3.9,18.9-9.8,26-18.1
		c1.6-1.9,2.7-4.2,3.9-6.3C386.5,412,386.6,411.2,386.7,410.8z M461.1,230.3c-0.7-9.5-2.4-18.7-6.4-27.3c-1-2.1-2.3-4.2-3.6-6.1
		c-2.3-3.4-5.6-4.1-9.3-3c-1.5,0.4-2.9,0.9-4.3,1.7c-2.9,1.7-5.8,3.6-8.7,5.4c-1.1,0.7-1.3,1.4-0.9,2.6c1.6,5.9,3.2,11.8,4.4,17.8
		c1,4.9,1.6,9.9,2.3,14.9c0.2,1.9,0.8,3,2.9,3.2c3.8,0.4,7.6,1.3,11.4,1.5c4.2,0.2,8.4-0.5,10.6-4.6
		C460.5,234.6,460.6,232.3,461.1,230.3z M160.2,436.8c3-0.3,4.8-1,6.5-3.5c0.9-1.3,1.8-2.8,2.3-4.3c1.1-4,2-8,2.9-12
		c0.1-0.5-0.4-1.3-0.8-1.6c-10.3-5.6-20-12-29.2-19.4c-0.4-0.3-1.3-0.4-1.8-0.2c-4.3,2.3-8.2,5.2-11.6,8.8c-1.2,1.3-2.3,2.8-2.8,4.4
		c-1.1,3.1-1,6.1,1.5,8.7c7.3,7.4,15.5,13.6,25.5,17.1C155.1,435.8,157.7,436.2,160.2,436.8z M460.3,285.3c-0.5-3.2-1-6.4-1.6-9.5
		c-0.8-3.7-3.5-5.4-7.1-5.9c-5.4-0.7-10.5,0.7-15.6,1.8c-0.4,0.1-0.9,1-1,1.5c-1,10.6-2.9,21-5.8,31.3c-1.1,4-1.1,4,2.3,6.4
		c4,2.9,8.3,5.3,13.2,6.4c4.1,0.9,7.9-1,9.7-4.8C458.5,303.9,459.8,294.7,460.3,285.3z M74.9,160.1c0.1,0,0.3,0.1,0.4,0.1
		c-0.4,2.7,0.9,4.7,2.9,6.2c1.4,1,3,2,4.6,2.5c4.1,1.2,8.2,2.1,12.4,3c0.4,0.1,1.2-0.3,1.4-0.8c5.5-10,11.8-19.5,19-28.4
		c0.3-0.4,0.4-1.3,0.2-1.8c-2.4-4.5-5.4-8.5-9.1-12c-1.1-1-2.4-2-3.8-2.5c-3.3-1.4-6.5-1.3-9.2,1.4c-7,6.9-12.9,14.6-16.4,23.9
		C76.2,154.4,75.7,157.3,74.9,160.1z"/>
	<path class="st0" d="M119,225.8c0,0.5,0,1,0,1.5c0,22.3,0,44.6,0,67c0,2,0.3,4.1,0.7,6.1c0.7,3.8,3,6.4,6.6,7.5
		c2.5,0.8,5.2,1.2,7.8,1.7c1,0.2,1.3,0.6,1.3,1.6c-0.1,5.1,0.6,4.1-3.9,4.1c-11.5,0.1-23.1,0-34.6,0.1c-1.7,0-2.3-0.5-2.2-2.2
		c0.1-4-0.2-3.1,3.3-3.8c1.3-0.2,2.6-0.4,3.8-0.7c5.5-1.3,7.9-4.1,8.1-9.8c0-1.2,0-2.4,0-3.6c0-26.2,0-52.5,0-78.7
		c0-1.6-0.4-2.9-1.5-4.1c-2.3-2.4-4.4-5-6.9-7.3c-1.5-1.3-3.5-1.9-5.2-3c-0.4-0.3-0.7-0.8-1-1.2c0,0,0-0.1,0-0.2
		c0.1-5-0.6-4.2,4-4.3c10.3,0,20.7,0,31-0.1c1.8,0,3,0.6,4.1,2c18.8,23.2,37.6,46.4,56.5,69.6c0.4,0.4,0.7,0.8,1.4,1.6
		c0.1-1,0.1-1.5,0.1-2.1c0-16.4,0-32.7,0-49.1c0-1.8-0.1-3.6-0.3-5.4c-0.5-5.1-3.3-8.3-8.3-9.7c-1.4-0.4-2.8-0.6-4.1-0.9
		c-1.1-0.2-2.9-0.2-3.1-0.8c-0.5-1.3-0.2-2.9-0.2-4.4c0-0.3,0.5-0.6,0.8-0.7c0.5-0.1,1-0.1,1.5-0.1c11.3,0,22.6,0,33.9,0
		c2.3,0,2.3,0,2.4,2.4c0,0.5-0.1,1,0,1.5c0.1,1.3-0.5,1.8-1.7,2c-1.4,0.2-2.8,0.4-4.2,0.8c-5.4,1.4-7.4,4-7.7,9.6c0,1,0,1.9,0,2.9
		c0,33.2,0,66.3,0,99.5c0,0.6,0,1.3,0,1.9c0,0.9-0.4,1.3-1.3,1.3c-1.2,0-2.4,0.2-3.6-0.1c-0.8-0.2-1.7-0.8-2.2-1.5
		c-8.4-10.2-16.7-20.3-25.1-30.5c-16.3-19.8-32.6-39.7-48.9-59.5c-0.3-0.4-0.7-0.7-1-1.1C119.2,225.7,119.1,225.8,119,225.8z"/>
	<path class="st0" d="M366.7,196.5c15.7,0,31.5,0,47.2,0c2.6,0,2.6,0,2.6,2.5c0,10.5,0,20.9,0,31.4c0,2.3,0,2.4-2.4,2.3
		c-3.4,0-2.8,0.5-3.7-3c-0.6-2.3-1.2-4.6-1.9-6.9c-2.9-9.8-9.5-15.6-19.5-17.6c-7.3-1.5-14.7-1.9-22.2-1.1c-3.6,0.4-4.9,1.6-5.4,5.2
		c-0.1,0.8-0.1,1.6-0.1,2.4c0,12.3,0,24.7,0,37c0,2.4,0.1,2.5,2.5,2.3c2.1-0.2,4.3-0.5,6.4-0.9c6.3-1.4,10.8-5.1,13-11.1
		c1.4-3.8,2.2-7.7,3.1-11.7c0.3-1.5,0.8-2.2,2.5-2.1c3.9,0.2,3.5-0.5,3.5,3.4c0,18,0,36,0,54c0,2.6,0,2.6-2.7,2.6c-0.3,0-0.7,0-1,0
		c-1.5,0.2-2-0.6-2.2-2c-0.6-3.5-1.1-7-2.1-10.3c-3.3-11.2-12-14.4-21.7-14.5c-0.4,0-0.9,0.7-1.2,1.2c-0.2,0.3,0,0.9,0,1.3
		c0,12.2,0,24.3,0,36.5c0,0.9,0,1.7,0.1,2.6c0.8,5.9,3.1,8.3,9,9c2.8,0.4,5.5,0.5,8.3,0.7c1.2,0.1,1.7,0.4,1.7,1.7
		c-0.1,4.8,0.6,4-3.9,4c-19.1,0-38.3,0-57.4,0c-2.5,0-2.5,0-2.5-2.4c0-3.2,0-3.1,3.2-3.5c1.7-0.2,3.4-0.4,5-0.8c4.6-1,6.8-3.6,7-8.4
		c0.1-1.1,0-2.2,0-3.2c0-27.4,0-54.9,0-82.3c0-1.6-0.1-3.3-0.4-4.9c-0.6-3.3-2.6-5.6-5.9-6.4c-2.2-0.5-4.5-0.8-6.7-1
		c-1.7-0.1-2.4-0.7-2.3-2.5c0.1-3.4,0-3.4,3.4-3.4C335.6,196.5,351.2,196.5,366.7,196.5z"/>
	<path class="st0" d="M223.5,296.6c0-6.7,0-13.4,0-20.1c0-1.6,0.5-2,2-2c4.1,0,4.1,0,5.1,4c1.7,6.8,4.2,13.2,8.2,19
		c5.1,7.4,11.8,12.3,20.9,13.7c5,0.8,10,0.6,14.8-1.2c6.6-2.5,10-7.5,11.2-14.3c1.2-7-1-12.7-6.8-16.8c-2.8-1.9-5.8-3.6-8.8-5.1
		c-7.1-3.6-14.4-6.9-21.5-10.7c-6.2-3.3-11.8-7.5-16.3-13c-5.5-6.6-7.5-14.3-7-22.8c0.4-6.5,2.1-12.6,5.7-18.1
		c5.5-8.4,13.7-12.7,23.4-14.3c9.6-1.6,19-0.8,28.2,2.5c2.1,0.7,4.2,1.5,6.3,2c4.1,1.1,6,0.1,7.2-3.9c0.4-1.3,1-1.6,2.3-1.6
		c4.5,0,4.5,0,4.5,4.5c0,10.8,0,21.6,0,32.4c0,1.7-0.4,2.3-2.2,2.2c-3.7-0.1-3.7,0-4.9-3.6c-3-8.8-7.4-16.6-14.8-22.4
		c-7.2-5.6-15.3-7.7-24.2-5.1c-8,2.3-12,8.6-11.4,16.9c0.4,5.1,2.6,9,6.8,11.6c5,3.1,10.2,5.9,15.5,8.6c6.7,3.5,13.5,6.7,20.3,10.1
		c12.9,6.6,20.9,20,19.9,34.6c-1.2,16.5-11.8,28.9-27.8,33.1c-12.7,3.4-25.3,2.5-37.7-1.8c-1.9-0.7-3.8-1.3-5.7-1.8
		c-3.5-0.8-5.3,0.1-6.2,3.5c-0.5,1.8-1.3,2.3-3.1,2.2c-4.3-0.2-3.7,0.5-3.7-3.7C223.4,308.8,223.5,302.7,223.5,296.6z"/>
</g>
</svg>
