<?xml version="1.0" encoding="utf-8"?>
<!-- Generator: Adobe Illustrator 24.1.0, SVG Export Plug-In . SVG Version: 6.00 Build 0)  -->
<svg version="1.1" id="Layer_1" xmlns="http://www.w3.org/2000/svg" xmlns:xlink="http://www.w3.org/1999/xlink" x="0px" y="0px"
	 viewBox="0 0 512 512" style="enable-background:new 0 0 512 512;" xml:space="preserve">
<style type="text/css">
	.st0{fill:#8FA1CC;}
</style>
<g>
	<path class="st0" d="M180.8,264.3l-3.1,8.6h-0.3c-0.5-1.9-1.4-4.9-3-8.5l-16.4-41.1h-16v65.5h10.6v-40.4c0-2.5,0-5.4-0.1-9
		c-0.1-1.8-0.3-3.1-0.3-4.2h0.3c0.5,2.5,1.1,4.4,1.5,5.6l19.7,47.8h7.5l19.5-48.2c0.4-1.1,0.8-3.3,1.3-5.2h0.3
		c-0.3,4.8-0.4,9.2-0.5,11.8v41.5H213v-65.5h-15.4L180.8,264.3z M223.7,241.7h11v47h-11V241.7z M229.3,221.8c-1.9,0-3.4,0.7-4.7,1.9
		c-1.3,1.2-1.9,2.7-1.9,4.6c0,1.8,0.7,3.3,1.9,4.5c1.3,1.2,2.8,1.8,4.7,1.8s3.5-0.7,4.7-1.8c1.3-1.2,1.9-2.7,1.9-4.5
		s-0.7-3.3-1.9-4.6C232.8,222.5,231.2,221.8,229.3,221.8 M273.8,241.2c-2-0.4-4.2-0.7-6.2-0.7c-5,0-9.6,1.1-13.4,3.3
		c-3.8,2.2-6.9,5.3-8.8,9.1c-2,3.9-3.1,8.4-3.1,13.6c0,4.5,1,8.5,3,12.1c1.9,3.6,4.7,6.4,8.3,8.4c3.5,2,7.5,3,12.1,3
		c5.3,0,9.7-1.1,13.3-3.1l0.1-0.1v-10.2l-0.4,0.3c-1.6,1.2-3.5,2.2-5.3,2.8c-1.9,0.7-3.7,1-5.3,1c-4.4,0-7.9-1.3-10.3-4.1
		c-2.5-2.7-3.8-6.4-3.8-11.1c0-4.8,1.3-8.6,3.9-11.4c2.6-2.8,6.1-4.2,10.3-4.2c3.6,0,7.2,1.2,10.5,3.6l0.4,0.3V243l-0.1-0.1
		C277.6,242.4,276,241.7,273.8,241.2 M310.1,240.9c-2.7,0-5.3,0.8-7.5,2.6c-1.9,1.5-3.1,3.7-4.2,6.4h-0.1v-8.2h-11v47h11v-24
		c0-4.1,0.8-7.5,2.7-9.9c1.9-2.5,4.2-3.8,7.1-3.8c1,0,2,0.3,3.3,0.4c1.2,0.3,2,0.7,2.6,1.1l0.4,0.3v-11l-0.3-0.1
		C313.5,241.2,312,240.9,310.1,240.9 M340.1,240.7c-7.7,0-13.9,2.3-18.2,6.8c-4.4,4.5-6.5,10.7-6.5,18.5c0,7.3,2.2,13.2,6.4,17.5
		c4.2,4.2,10,6.4,17.2,6.4c7.5,0,13.6-2.3,17.9-6.9c4.4-4.6,6.5-10.7,6.5-18.2c0-7.5-2-13.4-6.2-17.7
		C353.3,242.8,347.4,240.7,340.1,240.7 M349,276.8c-2,2.6-5.3,3.9-9.2,3.9s-7.2-1.3-9.5-4.1c-2.3-2.6-3.4-6.4-3.4-11.3
		c0-5,1.2-8.8,3.4-11.5c2.3-2.7,5.4-4.1,9.4-4.1c3.9,0,7,1.3,9.2,3.9c2.2,2.6,3.4,6.4,3.4,11.4C352,270.2,351.1,274.1,349,276.8
		 M388,261.2c-3.5-1.4-5.7-2.5-6.7-3.5c-0.8-0.8-1.3-2-1.3-3.6c0-1.3,0.5-2.5,1.8-3.4s2.7-1.3,4.8-1.3c1.9,0,3.8,0.3,5.7,0.8
		c1.9,0.5,3.6,1.3,4.9,2.3l0.4,0.3v-10.3l-0.3-0.1c-1.3-0.5-3-1-5-1.4c-2-0.3-3.9-0.5-5.4-0.5c-5.3,0-9.6,1.3-13,4.1
		c-3.4,2.6-5,6.2-5,10.3c0,2.2,0.3,4.2,1.1,5.8s1.9,3.1,3.4,4.4c1.5,1.2,3.7,2.5,6.8,3.8c2.5,1.1,4.5,2,5.7,2.6
		c1.2,0.7,1.9,1.4,2.5,2c0.4,0.7,0.7,1.5,0.7,2.6c0,3.1-2.4,4.7-7.2,4.7c-1.9,0-3.8-0.3-6.1-1.1c-2.3-0.8-4.4-1.9-6.2-3.1l-0.4-0.3
		v10.8l0.3,0.1c1.6,0.8,3.6,1.3,5.9,1.9c2.4,0.4,4.5,0.8,6.4,0.8c5.7,0,10.3-1.3,13.6-4.1c3.4-2.7,5.2-6.2,5.2-10.7
		c0-3.1-0.8-5.9-2.7-8.1C395.5,265,392.5,262.9,388,261.2 M429.8,240.7c-7.7,0-13.9,2.3-18.2,6.8c-4.3,4.5-6.5,10.7-6.5,18.5
		c0,7.3,2.2,13.2,6.4,17.5c4.2,4.2,10,6.4,17.2,6.4c7.5,0,13.6-2.3,17.9-6.9c4.4-4.6,6.5-10.7,6.5-18.2c0-7.5-2-13.4-6.2-17.7
		C442.9,242.8,437.1,240.7,429.8,240.7 M438.5,276.8c-2,2.6-5.3,3.9-9.2,3.9c-4.1,0-7.2-1.3-9.5-4.1c-2.3-2.6-3.4-6.4-3.4-11.3
		c0-5,1.2-8.8,3.4-11.5c2.3-2.7,5.4-4.1,9.4-4.1c3.8,0,7,1.3,9.2,3.9s3.4,6.4,3.4,11.4C441.7,270.2,440.6,274.1,438.5,276.8
		 M512,250.7v-9.1h-11.1v-13.9l-0.3,0.1L490,231l-0.3,0.1v10.6h-16.6v-5.9c0-2.7,0.7-4.8,1.9-6.2c1.2-1.4,3-2,5.2-2
		c1.5,0,3.1,0.3,4.9,1.1l0.4,0.3v-9.6l-0.3-0.1c-1.5-0.5-3.6-0.8-6.2-0.8c-3.3,0-6.2,0.8-8.8,2c-2.6,1.4-4.6,3.4-6,6
		c-1.4,2.5-2.2,5.4-2.2,8.7v6.5h-7.7v9h7.7v38h11.1v-37.9h16.6v24.2c0,9.9,4.7,14.9,14,14.9c1.5,0,3.1-0.3,4.7-0.5
		c1.6-0.3,2.8-0.8,3.5-1.1l0.1-0.1v-9.1l-0.4,0.3c-0.7,0.4-1.3,0.8-2.3,1c-0.8,0.3-1.6,0.3-2.2,0.3c-2.2,0-3.7-0.5-4.8-1.8
		c-1-1.2-1.5-3.1-1.5-6v-22.2H512L512,250.7z"/>
	<path class="st0" d="M0,201.3h52v52H0V201.3z"/>
	<path class="st0" d="M57.4,201.3h52v52h-52V201.3z"/>
	<path class="st0" d="M0,258.7h52v52H0V258.7z"/>
	<path class="st0" d="M57.4,258.7h52v52h-52V258.7z"/>
</g>
</svg>
