<?xml version="1.0" encoding="utf-8"?>
<!-- Generator: Adobe Illustrator 24.1.0, SVG Export Plug-In . SVG Version: 6.00 Build 0)  -->
<svg version="1.1" id="Layer_1" xmlns="http://www.w3.org/2000/svg" xmlns:xlink="http://www.w3.org/1999/xlink" x="0px" y="0px"
	 viewBox="0 0 512 512" style="enable-background:new 0 0 512 512;" xml:space="preserve">
<style type="text/css">
	.st0{fill:none;stroke:#2086AB;stroke-width:8.7262;stroke-linecap:round;stroke-linejoin:round;stroke-miterlimit:10;}
</style>
<g>
	<path class="st0" d="M196.4,399.9c0-11-9-20-20-20H59V185.1c0-5.2-4.2-9.4-9.4-9.4H28.4c-5.2,0-9.4,4.2-9.4,9.4v307.2
		c0,5.2,4.2,9.4,9.4,9.4h21.2c5.2,0,9.4-4.2,9.4-9.4v-72.4h97.4v72.4c0,5.2,4.2,9.4,9.4,9.4H187c5.2,0,9.4-4.2,9.4-9.4v-91.8
		c0-0.1,0-0.2,0-0.3C196.4,400.1,196.4,400,196.4,399.9z"/>
	<path class="st0" d="M485.4,251.3H237.1c-4.2,0-7.6,3.4-7.6,7.6v24.7c0,4.2,3.4,7.6,7.6,7.6h104.2v202.8c0,4.5,3.7,8.2,8.2,8.2H373
		c4.5,0,8.2-3.7,8.2-8.2V291.3h104.2c4.2,0,7.6-3.4,7.6-7.6v-24.7C493,254.7,489.5,251.3,485.4,251.3z"/>
	<path class="st0" d="M126.4,104L126.4,104c-26.4,0-48.1-21.6-48.1-48.1v0c0-26.4,21.6-48.1,48.1-48.1h0c26.4,0,48.1,21.6,48.1,48.1
		v0C174.5,82.3,152.9,104,126.4,104z"/>
	<polyline class="st0" points="295.7,226.3 394.3,226.3 431.8,127.7 	"/>
	<path class="st0" d="M253.7,317.5h-84.2V186.2l82.3,39.9c4.6,2.2,10.3,0.3,12.5-4.3l9.3-19.1c2.2-4.6,0.3-10.3-4.3-12.5
		l-116.3-56.3c-0.7-0.3-1.5-0.6-2.2-0.9c-3.9-1.7-8.2-2.7-12.8-2.7h-24.4c-17.3,0-31.5,14.2-31.5,31.5v164.2
		c0,17.3,14.2,31.5,31.5,31.5h4.2H138h95.8v137.4c0,5.1,4.2,9.3,9.3,9.3h21.3c5.1,0,9.3-4.2,9.3-9.3V339.3c0-2.2-0.4-4.3-1-6.3
		C270.9,324.2,263.1,317.5,253.7,317.5z"/>
</g>
</svg>
