<?xml version="1.0" encoding="utf-8"?>
<!-- Generator: Adobe Illustrator 24.1.0, SVG Export Plug-In . SVG Version: 6.00 Build 0)  -->
<svg version="1.1" id="Layer_1" xmlns="http://www.w3.org/2000/svg" xmlns:xlink="http://www.w3.org/1999/xlink" x="0px" y="0px"
	 viewBox="0 0 370 57.4" style="enable-background:new 0 0 370 57.4;" xml:space="preserve">
<style type="text/css">
	.st0{fill:#231F20;}
</style>
<g>
	<g>
		<path class="st0" d="M162.9,17c-10.9,0-19.7,9-19.7,20.2s8.8,20.2,19.7,20.2c10.9,0,19.7-9,19.7-20.2S173.8,17,162.9,17z
			 M162.9,52.6c-6,0-5.8-6.9-5.8-15.4s-0.3-15.4,5.8-15.4c6,0,5.8,6.9,5.8,15.4S168.9,52.6,162.9,52.6z"/>
		<path class="st0" d="M88.5,7.7L108.1,0v25.8c0-1.4,5-7.9,12.6-7.9s11.1,6.6,11.1,10.8c0,4.6,0,21.5,0,23.5s3.6,3,5.1,3v2.2h-22.7
			v-2.3c0.8,0,2.9-1.5,2.9-2.9s0-22.5,0-24.2c0-1.4-1.2-3.2-4-3.2s-4.4,3-4.4,4.8s0,19,0,21.5s1.4,4.1,3.4,4.1v2.3H89.7v-2.7
			c2.4,0,5-1,5-2.5c0-1.2,0-38.4,0-38.4C94.7,11.9,88.5,7.7,88.5,7.7z"/>
		<path class="st0" d="M47.2,36.5c0-10.5,8.3-20.2,19.6-20.2c7.5,0,15.5,4.1,15.5,11c0,4.6-1.6,7-5.9,7c-7.5,0-6.2-8.3-6.2-8.3
			s1.1-6.6-4.8-6.6c-1.5,0-5.7,0.7-5.6,10.4c0,12,5.4,19.1,14.3,19.1c5.6,0,8.1-3.2,8.1-3.2l1.6,1.7c0,0-5.9,10-17.8,10
			C57.7,57.4,47.2,51.2,47.2,36.5z"/>
		<path class="st0" d="M35.2,45.8c0,0-2.7,3.2-7.2,3.2c-8.5,0-14.6-7.5-14.6-15.8h22.4c0-8.1-4.8-16.5-16.3-16.5
			C7.1,16.8,0.2,27.5,0.2,35.5c0,18,11.8,21.9,19.1,21.9c10.5,0,17.5-10,17.5-10L35.2,45.8z M13.5,27.5c0-2,0.9-8,6-8
			c3,0,4.9,2.8,4.9,5.6c0,4.6-0.7,5.3-7.9,5.3l-3-0.1C13.5,30.3,13.5,29.5,13.5,27.5z"/>
		<path class="st0" d="M187.7,7.7L207.3,0c0,0,0,49.8,0,52.3s2.9,2.8,4.9,2.8v2.3h-23.3v-2.7c2.4,0,5-1,5-2.5c0-1.2,0-38.4,0-38.4
			C193.9,11.9,187.7,7.7,187.7,7.7z"/>
		<path class="st0" d="M264.8,7.7L284.4,0c0,0,0,49.8,0,52.3s2.9,2.8,4.9,2.8v2.3H266v-2.7c2.4,0,5-1,5-2.5c0-1.2,0-38.4,0-38.4
			C271,11.9,264.8,7.7,264.8,7.7z"/>
		<g>
			<path class="st0" d="M296.5,28l19.6-7.6c0,0,0,29.4,0,31.9s2.9,2.8,4.9,2.8v2.3h-23.3v-2.7c2.4,0,5-1,5-2.5c0-1.2,0-18,0-18
				C302.7,32.2,296.5,28,296.5,28z"/>
			<ellipse class="st0" cx="308.1" cy="9.8" rx="8" ry="8.1"/>
		</g>
		<path class="st0" d="M259.7,49.9c-3.3,3.3-4.6-0.8-4.6-1.9c0-0.9,0-17.2,0-19c0-1.8-0.5-12.1-16.7-12.1s-17.5,9.7-17.5,10.7
			c0,1-0.6,5.6,4.8,5.6s6.4-4.1,6.4-6.3c0-4.3,0.4-7.5,3.8-7.5c5.2,0,5.6,6.5,5.6,6.5s0,4.4,0,6c0,1.5-23.1,0.8-23,14.7
			c0,6.6,4.5,10.5,11.8,10.5c7.3,0,11.6-5.6,11.6-5.6s3,5.9,8.4,5.9c5.5,0,10.9-6,10.9-6L259.7,49.9z M241.3,45.9
			c0,2.3-1.7,4.5-4.8,4.5c-3.1,0-4.4-3.2-4.4-6.7c0-5.6,7.1-8.6,9.2-8.6C241.3,35.1,241.3,43.6,241.3,45.9z"/>
		<path class="st0" d="M368.7,49.9c-3.3,3.3-4.6-0.8-4.6-1.9c0-0.9,0-17.2,0-19c0-1.8-0.5-12.1-16.7-12.1
			c-16.2,0-17.5,9.7-17.5,10.7c0,1-0.6,5.6,4.8,5.6s6.4-4.1,6.4-6.3c0-4.3,0.4-7.5,3.8-7.5c5.2,0,5.6,6.5,5.6,6.5s0,4.4,0,6
			c0,1.5-23.1,0.8-23,14.7c0,6.6,4.5,10.5,11.8,10.5s11.6-5.6,11.6-5.6s3,5.9,8.4,5.9c5.5,0,10.9-6,10.9-6L368.7,49.9z M350.2,45.9
			c0,2.3-1.7,4.5-4.8,4.5c-3.1,0-4.4-3.2-4.4-6.7c0-5.6,7.1-8.6,9.2-8.6C350.2,35.1,350.2,43.6,350.2,45.9z"/>
	</g>
</g>
</svg>
