<?xml version="1.0" encoding="utf-8"?>
<!-- Generator: Adobe Illustrator 24.1.0, SVG Export Plug-In . SVG Version: 6.00 Build 0)  -->
<svg version="1.1" id="Layer_1" xmlns="http://www.w3.org/2000/svg" xmlns:xlink="http://www.w3.org/1999/xlink" x="0px" y="0px"
	 viewBox="0 0 968 682" style="enable-background:new 0 0 968 682;" xml:space="preserve">
<style type="text/css">
	.st0{opacity:0.15;}
	.st1{opacity:0.2;}
	.st2{fill:url(#SVGID_1_);}
	.st3{fill:url(#SVGID_2_);}
	.st4{fill:url(#SVGID_3_);}
	.st5{fill:url(#SVGID_4_);}
	.st6{fill:#333740;}
	.st7{opacity:0.1;fill:#FFFFFF;}
	.st8{opacity:0.25;}
	.st9{fill:#FFFFFF;}
	.st10{opacity:0.25;fill:#FFFFFF;}
	.st11{opacity:0.5;fill:#FFFFFF;}
	.st12{opacity:0.5;}
	.st13{opacity:0.3;}
	.st14{fill:none;stroke:#FFFFFF;stroke-width:3;stroke-linecap:round;stroke-miterlimit:10;}
	.st15{fill:none;stroke:#FFFFFF;stroke-linecap:round;stroke-miterlimit:10;}
	.st16{opacity:0.2;fill:#FFFFFF;}
	.st17{opacity:0.4;fill:none;stroke:#FFFFFF;stroke-width:10;stroke-linecap:round;stroke-miterlimit:10;}
	.st18{opacity:0.3;fill:none;stroke:#FFFFFF;stroke-width:7;stroke-linecap:round;stroke-miterlimit:10;}
	.st19{opacity:0.3;fill:none;stroke:#FFFFFF;stroke-width:5;stroke-linecap:round;stroke-miterlimit:10;}
	.st20{opacity:0.15;fill:none;stroke:#FFFFFF;stroke-width:5;stroke-linecap:round;stroke-miterlimit:10;}
	.st21{opacity:0.3;fill:none;stroke:#000000;stroke-width:5;stroke-linecap:round;stroke-miterlimit:10;}
</style>
<g>
	<g>
		<g class="st0">
			
				<image style="overflow:visible;" width="887" height="223" xlink:href="A083D304C535C6ED.png"  transform="matrix(1 0 0 1 41 496)">
			</image>
		</g>
		<g class="st1">
			
				<image style="overflow:visible;" width="1006" height="87" xlink:href="A083D304C535C6EF.png"  transform="matrix(1 0 0 1 -18 505)">
			</image>
		</g>
		<linearGradient id="SVGID_1_" gradientUnits="userSpaceOnUse" x1="458.6143" y1="-31.4631" x2="510.676" y2="563.6044">
			<stop  offset="0" style="stop-color:#EBEBEB"/>
			<stop  offset="9.168781e-02" style="stop-color:#F2F2F2"/>
			<stop  offset="0.7904" style="stop-color:#D6D6D6"/>
			<stop  offset="0.9188" style="stop-color:#DDDDDD"/>
		</linearGradient>
		<path class="st2" d="M869.3,532.1H100c-12.5,0-22.7-10.2-22.7-22.7V22.7C77.3,10.2,87.5,0,100,0h769.3C881.8,0,892,10.2,892,22.7
			v486.8C892,521.9,881.8,532.1,869.3,532.1z"/>
		<linearGradient id="SVGID_2_" gradientUnits="userSpaceOnUse" x1="4.846697e-09" y1="529.4395" x2="968" y2="529.4395">
			<stop  offset="0" style="stop-color:#BABABB"/>
			<stop  offset="4.528299e-02" style="stop-color:#D3D3D3"/>
			<stop  offset="9.271572e-02" style="stop-color:#E5E5E5"/>
			<stop  offset="0.1429" style="stop-color:#F0F0F0"/>
			<stop  offset="0.2" style="stop-color:#F3F3F3"/>
			<stop  offset="0.3638" style="stop-color:#CDCDCD"/>
			<stop  offset="0.45" style="stop-color:#BEBEBF"/>
			<stop  offset="0.55" style="stop-color:#BEBEBF"/>
			<stop  offset="0.6145" style="stop-color:#C3C3C4"/>
			<stop  offset="0.6896" style="stop-color:#D1D1D2"/>
			<stop  offset="0.7697" style="stop-color:#E8E8E8"/>
			<stop  offset="0.8" style="stop-color:#F3F3F3"/>
			<stop  offset="0.8642" style="stop-color:#F0F0F0"/>
			<stop  offset="0.9113" style="stop-color:#E7E7E7"/>
			<stop  offset="0.9529" style="stop-color:#D7D7D7"/>
			<stop  offset="0.9911" style="stop-color:#C0C0C1"/>
			<stop  offset="1" style="stop-color:#BABABB"/>
		</linearGradient>
		<rect x="0" y="526.2" class="st3" width="968" height="6.5"/>
		<linearGradient id="SVGID_3_" gradientUnits="userSpaceOnUse" x1="398.3104" y1="529.4395" x2="569.6896" y2="529.4395">
			<stop  offset="0" style="stop-color:#9E9F9F"/>
			<stop  offset="2.841890e-02" style="stop-color:#B2B3B3"/>
			<stop  offset="6.982982e-02" style="stop-color:#C8C8C8"/>
			<stop  offset="0.1188" style="stop-color:#D9D9D9"/>
			<stop  offset="0.1793" style="stop-color:#E4E4E4"/>
			<stop  offset="0.2642" style="stop-color:#EBEBEB"/>
			<stop  offset="0.5" style="stop-color:#EDEDED"/>
			<stop  offset="0.7358" style="stop-color:#EBEBEB"/>
			<stop  offset="0.8207" style="stop-color:#E4E4E4"/>
			<stop  offset="0.8812" style="stop-color:#D9D9D9"/>
			<stop  offset="0.9302" style="stop-color:#C8C8C8"/>
			<stop  offset="0.9716" style="stop-color:#B2B3B3"/>
			<stop  offset="1" style="stop-color:#9E9F9F"/>
		</linearGradient>
		<path class="st4" d="M564.7,532.7H403.3c-2.8,0-5-2.2-5-5v-1.5h171.4v1.5C569.7,530.5,567.5,532.7,564.7,532.7z"/>
		<linearGradient id="SVGID_4_" gradientUnits="userSpaceOnUse" x1="484" y1="532.6944" x2="484" y2="546.1072">
			<stop  offset="0" style="stop-color:#BABABB"/>
			<stop  offset="1" style="stop-color:#7D7F83"/>
		</linearGradient>
		<path class="st5" d="M968,532.7H0c0,0,47.6,13.4,149.9,13.4s559.1,0,668.3,0S968,532.7,968,532.7z"/>
	</g>
	<path class="st6" d="M851,496.7H118.3c-0.6,0-1-0.4-1-1V36.4c0-0.6,0.4-1,1-1H851c0.6,0,1,0.4,1,1v459.3
		C852,496.3,851.6,496.7,851,496.7z"/>
	<g>
		<path class="st7" d="M851.7,74.1H117.5c-0.2,0-0.3-0.1-0.3-0.3V35.7c0-0.2,0.1-0.3,0.3-0.3h734.2c0.2,0,0.3,0.1,0.3,0.3v38.1
			C852,73.9,851.9,74.1,851.7,74.1z"/>
		<g>
			<path class="st1" d="M410.5,66.8H249.8c-2.1,0-3.7-1.7-3.7-3.7V46.4c0-2.1,1.7-3.7,3.7-3.7h160.7c2.1,0,3.7,1.7,3.7,3.7V63
				C414.3,65.1,412.6,66.8,410.5,66.8z"/>
			<g class="st8">
				<g>
					<path class="st9" d="M267.2,60.5l-3.9-3.9c0.7-0.9,1.2-2.1,1.2-3.3c0-2.9-2.4-5.3-5.3-5.3s-5.3,2.4-5.3,5.3
						c0,2.9,2.4,5.3,5.3,5.3c1.3,0,2.4-0.4,3.3-1.2l3.9,3.9c0.1,0.1,0.3,0.1,0.4,0l0.4-0.4C267.3,60.8,267.3,60.6,267.2,60.5z
						 M259.2,57.5c-2.3,0-4.2-1.9-4.2-4.2c0-2.3,1.9-4.2,4.2-4.2s4.2,1.9,4.2,4.2C263.3,55.6,261.5,57.5,259.2,57.5z"/>
				</g>
			</g>
			<path class="st10" d="M367.2,57.7l-87.3,0c-1.7,0-3-1.3-3-3v0c0-1.7,1.3-3,3-3h87.3c1.7,0,3,1.3,3,3v0
				C370.2,56.4,368.8,57.7,367.2,57.7z"/>
		</g>
		<path class="st11" d="M451.1,59.2h-19c-2.5,0-4.5-2-4.5-4.5v0c0-2.5,2-4.5,4.5-4.5h19c2.5,0,4.5,2,4.5,4.5v0
			C455.6,57.2,453.6,59.2,451.1,59.2z"/>
		<path class="st11" d="M513.1,59.2h-31c-2.5,0-4.5-2-4.5-4.5v0c0-2.5,2-4.5,4.5-4.5h31c2.5,0,4.5,2,4.5,4.5v0
			C517.6,57.2,515.6,59.2,513.1,59.2z"/>
		<path class="st11" d="M569.5,59.2h-27.4c-2.5,0-4.5-2-4.5-4.5v0c0-2.5,2-4.5,4.5-4.5h27.4c2.5,0,4.5,2,4.5,4.5v0
			C574,57.2,572,59.2,569.5,59.2z"/>
		<path class="st11" d="M647.5,59.2h-46.2c-2.5,0-4.5-2-4.5-4.5v0c0-2.5,2-4.5,4.5-4.5h46.2c2.5,0,4.5,2,4.5,4.5v0
			C652,57.2,650,59.2,647.5,59.2z"/>
		<g class="st12">
			<path class="st9" d="M740.7,60.4c0,1.6-1.3,2.8-2.8,2.8s-2.8-1.3-2.8-2.8c0-1.6,1.3-2.8,2.8-2.8S740.7,58.9,740.7,60.4z"/>
			<path class="st9" d="M742.9,54.7c-2.4-0.3-4.3-2.4-4.3-4.9c0-0.7,0.2-1.4,0.4-2c-0.4-0.1-0.7-0.1-1.1-0.1c-2.7,0-5,2.2-5,5v2
				c0,1.4-0.6,2.7-1.7,3.6c-0.3,0.2-0.4,0.6-0.4,0.9c0,0.7,0.6,1.2,1.2,1.2h11.7c0.7,0,1.2-0.6,1.2-1.2c0-0.4-0.2-0.7-0.4-0.9
				C743.5,57.4,742.9,56.1,742.9,54.7z"/>
			<path class="st9" d="M747.1,49.8c0,2-1.6,3.5-3.5,3.5c-2,0-3.5-1.6-3.5-3.5c0-2,1.6-3.5,3.5-3.5
				C745.5,46.3,747.1,47.9,747.1,49.8z"/>
		</g>
		<circle class="st11" cx="814.2" cy="54.9" r="11.7"/>
		<g class="st13">
			<path d="M833.8,57.6c-0.2,0-0.5-0.1-0.6-0.3l-3.6-3.6c-0.4-0.4-0.4-0.9,0-1.3c0.2-0.2,0.4-0.3,0.6-0.3s0.5,0.1,0.6,0.3l2.9,2.9
				l2.9-2.9c0.2-0.2,0.4-0.3,0.6-0.3s0.5,0.1,0.6,0.3c0.2,0.2,0.3,0.4,0.3,0.6c0,0.2-0.1,0.5-0.3,0.6l-3.6,3.6
				C834.2,57.5,834,57.6,833.8,57.6L833.8,57.6z"/>
		</g>
		<g class="st12">
			<line class="st14" x1="768.9" y1="49.5" x2="768.9" y2="58.9"/>
			<line class="st14" x1="764.2" y1="54.2" x2="773.6" y2="54.2"/>
		</g>
		<g class="st13">
			<path d="M782.9,57.6c-0.2,0-0.5-0.1-0.6-0.3l-3.6-3.6c-0.4-0.4-0.4-0.9,0-1.3c0.2-0.2,0.4-0.3,0.6-0.3c0.2,0,0.5,0.1,0.6,0.3
				l2.9,2.9l2.9-2.9c0.2-0.2,0.4-0.3,0.6-0.3c0.2,0,0.5,0.1,0.6,0.3c0.2,0.2,0.3,0.4,0.3,0.6c0,0.2-0.1,0.5-0.3,0.6l-3.6,3.6
				C783.4,57.5,783.2,57.6,782.9,57.6L782.9,57.6z"/>
		</g>
		<path class="st11" d="M145.7,62.6h-7.2c-0.3,0-0.5-0.2-0.5-0.5V47.4c0-0.3,0.2-0.5,0.5-0.5h7.2c0.3,0,0.5,0.2,0.5,0.5v14.6
			C146.2,62.4,146,62.6,145.7,62.6z"/>
		<path class="st11" d="M156.1,62.6h-7.2c-0.3,0-0.5-0.2-0.5-0.5V47.4c0-0.3,0.2-0.5,0.5-0.5h7.2c0.3,0,0.5,0.2,0.5,0.5v14.6
			C156.7,62.4,156.4,62.6,156.1,62.6z"/>
		<path class="st11" d="M166.6,62.6h-7.2c-0.3,0-0.5-0.2-0.5-0.5V47.4c0-0.3,0.2-0.5,0.5-0.5h7.2c0.3,0,0.5,0.2,0.5,0.5v14.6
			C167.1,62.4,166.9,62.6,166.6,62.6z"/>
		<path class="st11" d="M177,62.6h-7.2c-0.3,0-0.5-0.2-0.5-0.5V47.4c0-0.3,0.2-0.5,0.5-0.5h7.2c0.3,0,0.5,0.2,0.5,0.5v14.6
			C177.6,62.4,177.3,62.6,177,62.6z"/>
		<path class="st11" d="M187.5,62.6h-7.2c-0.3,0-0.5-0.2-0.5-0.5V47.4c0-0.3,0.2-0.5,0.5-0.5h7.2c0.3,0,0.5,0.2,0.5,0.5v14.6
			C188,62.4,187.8,62.6,187.5,62.6z"/>
		<path class="st11" d="M198,62.6h-7.2c-0.3,0-0.5-0.2-0.5-0.5V47.4c0-0.3,0.2-0.5,0.5-0.5h7.2c0.3,0,0.5,0.2,0.5,0.5v14.6
			C198.5,62.4,198.3,62.6,198,62.6z"/>
		<path class="st11" d="M208.4,62.6h-7.2c-0.3,0-0.5-0.2-0.5-0.5V47.4c0-0.3,0.2-0.5,0.5-0.5h7.2c0.3,0,0.5,0.2,0.5,0.5v14.6
			C209,62.4,208.7,62.6,208.4,62.6z"/>
		<path class="st11" d="M218.9,62.6h-7.2c-0.3,0-0.5-0.2-0.5-0.5V47.4c0-0.3,0.2-0.5,0.5-0.5h7.2c0.3,0,0.5,0.2,0.5,0.5v14.6
			C219.4,62.4,219.2,62.6,218.9,62.6z"/>
	</g>
	<g>
		<path class="st12" d="M161.3,496.7h-43.9c-0.1,0-0.2-0.1-0.2-0.2V74.3c0-0.1,0.1-0.2,0.2-0.2h43.9c0.1,0,0.2,0.1,0.2,0.2v422.2
			C161.6,496.6,161.5,496.7,161.3,496.7z"/>
		<path class="st6" d="M161.5,118.3h-44.2c0,0-0.1,0-0.1-0.1V74.1c0,0,0-0.1,0.1-0.1h44.2c0,0,0.1,0,0.1,0.1L161.5,118.3
			C161.6,118.3,161.6,118.3,161.5,118.3z"/>
		<path class="st11" d="M146.2,195.6c-0.1,0-0.2,0-0.3-0.1l-6.5-2.9l-6.5,2.9c-0.2,0.1-0.5,0.1-0.7-0.1c-0.2-0.2-0.3-0.4-0.2-0.7
			l1.4-7.1l-5-5c-0.2-0.2-0.2-0.5-0.2-0.7c0.1-0.2,0.3-0.4,0.5-0.5l7.1-1.4l2.8-6.4c0.2-0.5,1.1-0.5,1.3,0l2.8,6.4l7.1,1.4
			c0.3,0.1,0.5,0.2,0.5,0.5c0.1,0.2,0,0.5-0.2,0.7l-5,5l1.4,7.1c0.1,0.3,0,0.5-0.2,0.7C146.5,195.5,146.3,195.6,146.2,195.6
			L146.2,195.6z"/>
		<g class="st12">
			<g class="st12">
				<g>
					<g>
						<path class="st9" d="M144.9,141.4c1.4-0.8,2.4-2.2,2.4-3.9c0-2.5-2-4.5-4.5-4.5s-4.5,2-4.5,4.5c0,1.7,1,3.2,2.4,3.9
							c-2.9,0.3-5.7,3.2-5.7,6.7h15.7C150.6,144.6,147.8,141.7,144.9,141.4z"/>
					</g>
				</g>
			</g>
			<g>
				<g>
					<path class="st9" d="M138.8,141c1.5-0.8,2.5-2.4,2.5-4.2c0-2.6-2.1-4.7-4.7-4.7c-2.6,0-4.7,2.1-4.7,4.7c0,1.8,1,3.4,2.5,4.2
						c-3.1,0.3-6,3.3-6,7.1h16.6C144.8,144.4,141.9,141.3,138.8,141z"/>
				</g>
			</g>
			<g>
				<g>
					<path class="st9" d="M138.8,141c1.5-0.8,2.5-2.4,2.5-4.2c0-2.6-2.1-4.7-4.7-4.7c-2.6,0-4.7,2.1-4.7,4.7c0,1.8,1,3.4,2.5,4.2
						c-3.1,0.3-6,3.3-6,7.1h16.6C144.8,144.4,141.9,141.3,138.8,141z"/>
				</g>
			</g>
		</g>
		<g class="st12">
			<g>
				<g>
					<path class="st9" d="M151.6,98.4L151.6,98.4l-4.4-10c-0.4-0.9-1.3-1.5-2.4-1.5H134c-1,0-1.9,0.6-2.4,1.5l-4.5,10l0,0
						c-0.1,0.3-0.2,0.6-0.2,0.9v4.1c0,1.1,0.9,2.1,2.1,2.1h20.7c1.1,0,2.1-0.9,2.1-2.1v-4.1C151.8,99,151.7,98.7,151.6,98.4z
						 M132.6,88.8c0.2-0.6,0.8-0.9,1.4-0.9h10.8c0.6,0,1.2,0.4,1.4,0.9l3.8,8.4c-0.1,0-0.1,0-0.2,0h-20.7c-0.1,0-0.1,0-0.2,0
						L132.6,88.8z M150.8,103.4c0,0.6-0.5,1-1,1h-20.7c-0.6,0-1-0.5-1-1v-4.1c0-0.6,0.5-1,1-1h20.7c0.6,0,1,0.5,1,1V103.4z"/>
					<circle class="st9" cx="148.1" cy="100.3" r="0.9"/>
					<line class="st15" x1="130.3" y1="102.9" x2="148.5" y2="102.9"/>
				</g>
			</g>
		</g>
		<g class="st12">
			<path class="st9" d="M128.8,229c0,5.9,4.8,10.6,10.6,10.6c5.9,0,10.6-4.8,10.6-10.6c0-5.9-4.8-10.6-10.6-10.6
				C133.6,218.4,128.8,223.1,128.8,229z M139.4,238.3c-5.1,0-9.3-4.2-9.3-9.3c0-5.1,4.2-9.3,9.3-9.3c5.1,0,9.3,4.2,9.3,9.3
				C148.7,234.1,144.6,238.3,139.4,238.3L139.4,238.3z"/>
			<path class="st9" d="M138.8,222.3h1.3v6.9l-4.2,4.2l-0.9-0.9l3.8-3.8V222.3z"/>
		</g>
	</g>
	<g>
		<path class="st16" d="M801.1,231.6H207.2c-2.9,0-5.3-2.4-5.3-5.3V125.6c0-2.9,2.4-5.3,5.3-5.3h593.9c2.9,0,5.3,2.4,5.3,5.3v100.6
			C806.3,229.2,804,231.6,801.1,231.6z"/>
		<line class="st17" x1="220.4" y1="137.6" x2="690.4" y2="137.6"/>
		<path class="st1" d="M801.1,231.6H207.2c-2.9,0-5.3-2.4-5.3-5.3v-18.9h604.4v18.9C806.3,229.2,804,231.6,801.1,231.6z"/>
		<line class="st18" x1="219.1" y1="152.8" x2="261.1" y2="152.8"/>
		<line class="st19" x1="218.1" y1="165" x2="782.1" y2="165"/>
		<line class="st19" x1="218.1" y1="177.1" x2="319.1" y2="177.1"/>
		<line class="st20" x1="218.1" y1="192.3" x2="245.9" y2="192.3"/>
		<line class="st20" x1="265.3" y1="192.3" x2="300.7" y2="192.3"/>
		<line class="st20" x1="319.8" y1="192.3" x2="384.1" y2="192.3"/>
		<line class="st20" x1="403.5" y1="192.3" x2="443.9" y2="192.3"/>
		<line class="st20" x1="463.2" y1="192.3" x2="511.7" y2="192.3"/>
		<line class="st20" x1="531" y1="192.3" x2="565.7" y2="192.3"/>
		<g class="st13">
			<g>
				<g>
					<polygon points="641.1,216.3 641.1,214.4 639.8,214.4 639.8,216.3 637.9,216.3 637.9,217.5 639.8,217.5 639.8,219.4 
						641.1,219.4 641.1,217.5 643,217.5 643,216.3 					"/>
				</g>
			</g>
			<g>
				<g>
					<path d="M634.3,220.1c1-0.6,1.8-1.7,1.8-3c0-1.9-1.5-3.4-3.4-3.4s-3.4,1.5-3.4,3.4c0,1.3,0.7,2.4,1.8,3c-2.2,0.2-4.3,2.4-4.3,5
						h11.7C638.6,222.5,636.5,220.3,634.3,220.1z"/>
				</g>
			</g>
		</g>
		<path class="st13" d="M687.8,225.5c-0.1,0-0.1,0-0.2,0l-3.5-1.5l-3.5,1.5c-0.1,0.1-0.3,0-0.4-0.1c-0.1-0.1-0.2-0.2-0.1-0.4
			l0.8-3.8l-2.7-2.7c-0.1-0.1-0.1-0.2-0.1-0.4c0-0.1,0.1-0.2,0.3-0.3l3.8-0.8l1.5-3.4c0.1-0.3,0.6-0.3,0.7,0l1.5,3.4l3.8,0.8
			c0.1,0,0.2,0.1,0.3,0.3c0,0.1,0,0.3-0.1,0.4l-2.7,2.7l0.8,3.8c0,0.1,0,0.3-0.1,0.4C688,225.4,687.9,225.5,687.8,225.5L687.8,225.5
			z"/>
		<g class="st13">
			<path d="M787.8,218c0.8,0.8,0.8,2.2,0,3s-2.2,0.8-3,0s-0.8-2.2,0-3S787,217.1,787.8,218"/>
			<path d="M781.4,218c0.8,0.8,0.8,2.2,0,3s-2.2,0.8-3,0s-0.8-2.2,0-3S780.6,217.1,781.4,218"/>
			<path d="M775.1,218c0.8,0.8,0.8,2.2,0,3s-2.2,0.8-3,0s-0.8-2.2,0-3S774.2,217.1,775.1,218"/>
		</g>
		<g class="st13">
			<g>
				<g>
					<path d="M733.4,219c-0.1-0.1-0.2-0.2-0.3-0.2h-1.3v-4.3c0-0.2-0.1-0.3-0.3-0.3H730c-0.2,0-0.3,0.1-0.3,0.3v4.3h-1.3
						c-0.1,0-0.3,0.1-0.3,0.2c-0.1,0.1,0,0.3,0.1,0.4l2.3,2.7c0.1,0.1,0.2,0.1,0.3,0.1c0.1,0,0.2,0,0.3-0.1l2.3-2.7
						C733.4,219.3,733.4,219.1,733.4,219z"/>
				</g>
			</g>
			<g>
				<g>
					<path d="M734.4,221.5v2H727v-2h-1.3v2.7c0,0.4,0.3,0.7,0.7,0.7h8.7c0.4,0,0.7-0.3,0.7-0.7v-2.7H734.4z"/>
				</g>
			</g>
		</g>
	</g>
	<g>
		<path class="st16" d="M744.4,106.1h-33.1c-0.9,0-1.6-0.7-1.6-1.6V87.8c0-0.9,0.7-1.6,1.6-1.6h33.1V106.1z"/>
		<rect x="744.5" y="86.2" class="st7" width="34.7" height="19.9"/>
		<path class="st7" d="M812.4,106.1h-33.1V86.2h33.1c0.9,0,1.6,0.7,1.6,1.6v16.7C814,105.4,813.3,106.1,812.4,106.1z"/>
		<line class="st19" x1="718.5" y1="96.2" x2="735.6" y2="96.2"/>
		<line class="st21" x1="750.5" y1="96.2" x2="773.2" y2="96.2"/>
		<line class="st21" x1="790.4" y1="96.2" x2="802.9" y2="96.2"/>
		<path class="st7" d="M273.4,106.1h-69.6c-1.3,0-2.3-1-2.3-2.3V88.6c0-1.3,1-2.3,2.3-2.3h69.6c1.3,0,2.3,1,2.3,2.3v15.2
			C275.7,105.1,274.7,106.1,273.4,106.1z"/>
		<line class="st21" x1="209.3" y1="96.2" x2="248.1" y2="96.2"/>
		<g class="st13">
			<path d="M266.2,98.9c-0.2,0-0.5-0.1-0.6-0.3l-3.6-3.6c-0.4-0.4-0.4-0.9,0-1.3c0.2-0.2,0.4-0.3,0.6-0.3c0.2,0,0.5,0.1,0.6,0.3
				l2.9,2.9l2.9-2.9c0.2-0.2,0.4-0.3,0.6-0.3c0.2,0,0.5,0.1,0.6,0.3c0.2,0.2,0.3,0.4,0.3,0.6c0,0.2-0.1,0.5-0.3,0.6l-3.6,3.6
				C266.6,98.8,266.4,98.9,266.2,98.9L266.2,98.9z"/>
		</g>
		<path class="st7" d="M357.6,106.1H288c-1.3,0-2.3-1-2.3-2.3V88.6c0-1.3,1-2.3,2.3-2.3h69.6c1.3,0,2.3,1,2.3,2.3v15.2
			C359.9,105.1,358.8,106.1,357.6,106.1z"/>
		<line class="st21" x1="293.5" y1="96.2" x2="319.6" y2="96.2"/>
		<g class="st13">
			<path d="M350.4,98.9c-0.2,0-0.5-0.1-0.6-0.3l-3.6-3.6c-0.4-0.4-0.4-0.9,0-1.3c0.2-0.2,0.4-0.3,0.6-0.3c0.2,0,0.5,0.1,0.6,0.3
				l2.9,2.9l2.9-2.9c0.2-0.2,0.4-0.3,0.6-0.3c0.2,0,0.5,0.1,0.6,0.3c0.2,0.2,0.3,0.4,0.3,0.6c0,0.2-0.1,0.5-0.3,0.6l-3.6,3.6
				C350.8,98.8,350.6,98.9,350.4,98.9L350.4,98.9z"/>
		</g>
		<path class="st7" d="M441.8,106.1h-69.6c-1.3,0-2.3-1-2.3-2.3V88.6c0-1.3,1-2.3,2.3-2.3h69.6c1.3,0,2.3,1,2.3,2.3v15.2
			C444.1,105.1,443,106.1,441.8,106.1z"/>
		<line class="st21" x1="377.7" y1="96.2" x2="421.3" y2="96.2"/>
		<g class="st13">
			<path d="M434.6,98.9c-0.2,0-0.5-0.1-0.6-0.3l-3.6-3.6c-0.4-0.4-0.4-0.9,0-1.3c0.2-0.2,0.4-0.3,0.6-0.3c0.2,0,0.5,0.1,0.6,0.3
				l2.9,2.9l2.9-2.9c0.2-0.2,0.4-0.3,0.6-0.3c0.2,0,0.5,0.1,0.6,0.3c0.2,0.2,0.3,0.4,0.3,0.6c0,0.2-0.1,0.5-0.3,0.6l-3.6,3.6
				C435,98.8,434.8,98.9,434.6,98.9L434.6,98.9z"/>
		</g>
		<path class="st7" d="M526,106.1h-69.6c-1.3,0-2.3-1-2.3-2.3V88.6c0-1.3,1-2.3,2.3-2.3H526c1.3,0,2.3,1,2.3,2.3v15.2
			C528.3,105.1,527.2,106.1,526,106.1z"/>
		<line class="st21" x1="461.9" y1="96.2" x2="494.6" y2="96.2"/>
		<g class="st13">
			<path d="M518.8,98.9c-0.2,0-0.5-0.1-0.6-0.3l-3.6-3.6c-0.4-0.4-0.4-0.9,0-1.3c0.2-0.2,0.4-0.3,0.6-0.3c0.2,0,0.5,0.1,0.6,0.3
				l2.9,2.9l2.9-2.9c0.2-0.2,0.4-0.3,0.6-0.3c0.2,0,0.5,0.1,0.6,0.3c0.2,0.2,0.3,0.4,0.3,0.6c0,0.2-0.1,0.5-0.3,0.6l-3.6,3.6
				C519.2,98.8,519,98.9,518.8,98.9L518.8,98.9z"/>
		</g>
		<path class="st7" d="M610.1,106.1h-69.6c-1.3,0-2.3-1-2.3-2.3V88.6c0-1.3,1-2.3,2.3-2.3h69.6c1.3,0,2.3,1,2.3,2.3v15.2
			C612.5,105.1,611.4,106.1,610.1,106.1z"/>
		<line class="st21" x1="546.1" y1="96.2" x2="584.9" y2="96.2"/>
		<g class="st13">
			<path d="M603,98.9c-0.2,0-0.5-0.1-0.6-0.3l-3.6-3.6c-0.4-0.4-0.4-0.9,0-1.3c0.2-0.2,0.4-0.3,0.6-0.3c0.2,0,0.5,0.1,0.6,0.3
				l2.9,2.9l2.9-2.9c0.2-0.2,0.4-0.3,0.6-0.3c0.2,0,0.5,0.1,0.6,0.3c0.2,0.2,0.3,0.4,0.3,0.6c0,0.2-0.1,0.5-0.3,0.6l-3.6,3.6
				C603.4,98.8,603.2,98.9,603,98.9L603,98.9z"/>
		</g>
	</g>
	<g>
		<path class="st16" d="M801.1,359.5H207.2c-2.9,0-5.3-2.4-5.3-5.3V253.5c0-2.9,2.4-5.3,5.3-5.3h593.9c2.9,0,5.3,2.4,5.3,5.3v100.6
			C806.3,357.1,804,359.5,801.1,359.5z"/>
		<line class="st17" x1="220.4" y1="265.6" x2="749.7" y2="265.6"/>
		<path class="st1" d="M801.1,359.5H207.2c-2.9,0-5.3-2.4-5.3-5.3v-18.9h604.4v18.9C806.3,357.1,804,359.5,801.1,359.5z"/>
		<line class="st18" x1="219.1" y1="280.7" x2="261.1" y2="280.7"/>
		<line class="st19" x1="218.1" y1="292.9" x2="782.1" y2="292.9"/>
		<line class="st19" x1="218.1" y1="305" x2="723.8" y2="305"/>
		<line class="st20" x1="218.1" y1="320.2" x2="245.9" y2="320.2"/>
		<line class="st20" x1="265.3" y1="320.2" x2="300.7" y2="320.2"/>
		<line class="st20" x1="319.8" y1="320.2" x2="384.1" y2="320.2"/>
		<line class="st20" x1="403.5" y1="320.2" x2="443.9" y2="320.2"/>
		<line class="st20" x1="463.2" y1="320.2" x2="511.7" y2="320.2"/>
		<line class="st20" x1="531" y1="320.2" x2="565.7" y2="320.2"/>
		<g class="st13">
			<g>
				<g>
					<polygon points="641.1,344.2 641.1,342.3 639.8,342.3 639.8,344.2 637.9,344.2 637.9,345.5 639.8,345.5 639.8,347.3 
						641.1,347.3 641.1,345.5 643,345.5 643,344.2 					"/>
				</g>
			</g>
			<g>
				<g>
					<path d="M634.3,348c1-0.6,1.8-1.7,1.8-3c0-1.9-1.5-3.4-3.4-3.4s-3.4,1.5-3.4,3.4c0,1.3,0.7,2.4,1.8,3c-2.2,0.2-4.3,2.4-4.3,5
						h11.7C638.6,350.4,636.5,348.2,634.3,348z"/>
				</g>
			</g>
		</g>
		<path class="st13" d="M687.8,353.4c-0.1,0-0.1,0-0.2,0l-3.5-1.5l-3.5,1.5c-0.1,0.1-0.3,0-0.4-0.1c-0.1-0.1-0.2-0.2-0.1-0.4
			l0.8-3.8l-2.7-2.7c-0.1-0.1-0.1-0.2-0.1-0.4c0-0.1,0.1-0.2,0.3-0.3l3.8-0.8l1.5-3.4c0.1-0.3,0.6-0.3,0.7,0l1.5,3.4l3.8,0.8
			c0.1,0,0.2,0.1,0.3,0.3c0,0.1,0,0.3-0.1,0.4l-2.7,2.7l0.8,3.8c0,0.1,0,0.3-0.1,0.4C688,353.4,687.9,353.4,687.8,353.4L687.8,353.4
			z"/>
		<g class="st13">
			<path d="M787.8,345.9c0.8,0.8,0.8,2.2,0,3s-2.2,0.8-3,0s-0.8-2.2,0-3S787,345.1,787.8,345.9"/>
			<path d="M781.4,345.9c0.8,0.8,0.8,2.2,0,3s-2.2,0.8-3,0s-0.8-2.2,0-3S780.6,345.1,781.4,345.9"/>
			<path d="M775.1,345.9c0.8,0.8,0.8,2.2,0,3s-2.2,0.8-3,0s-0.8-2.2,0-3S774.2,345.1,775.1,345.9"/>
		</g>
		<g class="st13">
			<g>
				<g>
					<path d="M733.4,346.9c-0.1-0.1-0.2-0.2-0.3-0.2h-1.3v-4.3c0-0.2-0.1-0.3-0.3-0.3H730c-0.2,0-0.3,0.1-0.3,0.3v4.3h-1.3
						c-0.1,0-0.3,0.1-0.3,0.2c-0.1,0.1,0,0.3,0.1,0.4l2.3,2.7c0.1,0.1,0.2,0.1,0.3,0.1c0.1,0,0.2,0,0.3-0.1l2.3-2.7
						C733.4,347.2,733.4,347,733.4,346.9z"/>
				</g>
			</g>
			<g>
				<g>
					<path d="M734.4,349.4v2H727v-2h-1.3v2.7c0,0.4,0.3,0.7,0.7,0.7h8.7c0.4,0,0.7-0.3,0.7-0.7v-2.7H734.4z"/>
				</g>
			</g>
		</g>
	</g>
	<g>
		<path class="st16" d="M801.1,488.4H207.2c-2.9,0-5.3-2.4-5.3-5.3V382.4c0-2.9,2.4-5.3,5.3-5.3h593.9c2.9,0,5.3,2.4,5.3,5.3v100.6
			C806.3,486,804,488.4,801.1,488.4z"/>
		<line class="st17" x1="220.4" y1="394.4" x2="609" y2="394.4"/>
		<path class="st1" d="M801.1,488.4H207.2c-2.9,0-5.3-2.4-5.3-5.3v-18.9h604.4v18.9C806.3,486,804,488.4,801.1,488.4z"/>
		<line class="st18" x1="219.1" y1="409.6" x2="261.1" y2="409.6"/>
		<line class="st19" x1="218.1" y1="421.8" x2="782.1" y2="421.8"/>
		<line class="st19" x1="218.1" y1="433.9" x2="633" y2="433.9"/>
		<line class="st20" x1="218.1" y1="449.1" x2="245.9" y2="449.1"/>
		<line class="st20" x1="265.3" y1="449.1" x2="300.7" y2="449.1"/>
		<line class="st20" x1="319.8" y1="449.1" x2="384.1" y2="449.1"/>
		<line class="st20" x1="403.5" y1="449.1" x2="443.9" y2="449.1"/>
		<line class="st20" x1="463.2" y1="449.1" x2="511.7" y2="449.1"/>
		<line class="st20" x1="531" y1="449.1" x2="565.7" y2="449.1"/>
		<g class="st13">
			<g>
				<g>
					<polygon points="641.1,473.1 641.1,471.2 639.8,471.2 639.8,473.1 637.9,473.1 637.9,474.4 639.8,474.4 639.8,476.2 
						641.1,476.2 641.1,474.4 643,474.4 643,473.1 					"/>
				</g>
			</g>
			<g>
				<g>
					<path d="M634.3,476.9c1-0.6,1.8-1.7,1.8-3c0-1.9-1.5-3.4-3.4-3.4s-3.4,1.5-3.4,3.4c0,1.3,0.7,2.4,1.8,3c-2.2,0.2-4.3,2.4-4.3,5
						h11.7C638.6,479.3,636.5,477.1,634.3,476.9z"/>
				</g>
			</g>
		</g>
		<path class="st13" d="M687.8,482.3c-0.1,0-0.1,0-0.2,0l-3.5-1.5l-3.5,1.5c-0.1,0.1-0.3,0-0.4-0.1c-0.1-0.1-0.2-0.2-0.1-0.4
			l0.8-3.8l-2.7-2.7c-0.1-0.1-0.1-0.2-0.1-0.4c0-0.1,0.1-0.2,0.3-0.3l3.8-0.8l1.5-3.4c0.1-0.3,0.6-0.3,0.7,0l1.5,3.4l3.8,0.8
			c0.1,0,0.2,0.1,0.3,0.3c0,0.1,0,0.3-0.1,0.4l-2.7,2.7l0.8,3.8c0,0.1,0,0.3-0.1,0.4C688,482.3,687.9,482.3,687.8,482.3L687.8,482.3
			z"/>
		<g class="st13">
			<path d="M787.8,474.8c0.8,0.8,0.8,2.2,0,3s-2.2,0.8-3,0s-0.8-2.2,0-3S787,474,787.8,474.8"/>
			<path d="M781.4,474.8c0.8,0.8,0.8,2.2,0,3s-2.2,0.8-3,0s-0.8-2.2,0-3S780.6,474,781.4,474.8"/>
			<path d="M775.1,474.8c0.8,0.8,0.8,2.2,0,3s-2.2,0.8-3,0s-0.8-2.2,0-3S774.2,474,775.1,474.8"/>
		</g>
		<g class="st13">
			<g>
				<g>
					<path d="M733.4,475.8c-0.1-0.1-0.2-0.2-0.3-0.2h-1.3v-4.3c0-0.2-0.1-0.3-0.3-0.3H730c-0.2,0-0.3,0.1-0.3,0.3v4.3h-1.3
						c-0.1,0-0.3,0.1-0.3,0.2c-0.1,0.1,0,0.3,0.1,0.4l2.3,2.7c0.1,0.1,0.2,0.1,0.3,0.1c0.1,0,0.2,0,0.3-0.1l2.3-2.7
						C733.4,476.1,733.4,475.9,733.4,475.8z"/>
				</g>
			</g>
			<g>
				<g>
					<path d="M734.4,478.3v2H727v-2h-1.3v2.7c0,0.4,0.3,0.7,0.7,0.7h8.7c0.4,0,0.7-0.3,0.7-0.7v-2.7H734.4z"/>
				</g>
			</g>
		</g>
	</g>
</g>
</svg>
