<?xml version="1.0" encoding="utf-8"?>
<!-- Generator: Adobe Illustrator 24.1.0, SVG Export Plug-In . SVG Version: 6.00 Build 0)  -->
<svg version="1.1" id="Layer_1" xmlns="http://www.w3.org/2000/svg" xmlns:xlink="http://www.w3.org/1999/xlink" x="0px" y="0px"
	 viewBox="0 0 512 512" style="enable-background:new 0 0 512 512;" xml:space="preserve">
<style type="text/css">
	.st0{fill:#CED3E0;}
	.st1{fill:#8FA1CC;}
	.st2{fill:none;stroke:#3B374C;stroke-width:6.8211;stroke-linecap:round;stroke-miterlimit:10;stroke-dasharray:13.6421,20.4632;}
</style>
<g>
	<g>
		
			<ellipse transform="matrix(9.247302e-02 -0.9957 0.9957 9.247302e-02 -127.9213 475.2233)" class="st0" cx="196.7" cy="307.8" rx="109.5" ry="108.4"/>
		
			<ellipse transform="matrix(9.247302e-02 -0.9957 0.9957 9.247302e-02 -65.9622 149.3311)" class="st1" cx="48.9" cy="110.9" rx="29" ry="28.7"/>
		
			<ellipse transform="matrix(9.247302e-02 -0.9957 0.9957 9.247302e-02 204.8009 653.3649)" class="st1" cx="460.8" cy="214.3" rx="49.5" ry="49"/>
	</g>
	<g>
		
			<ellipse transform="matrix(9.247302e-02 -0.9957 0.9957 9.247302e-02 -179.9134 473.0834)" class="st2" cx="169.6" cy="335.2" rx="109.5" ry="108.4"/>
		
			<ellipse transform="matrix(9.247302e-02 -0.9957 0.9957 9.247302e-02 -91.9582 148.2611)" class="st2" cx="35.4" cy="124.6" rx="29" ry="28.7"/>
		
			<ellipse transform="matrix(9.247302e-02 -0.9957 0.9957 9.247302e-02 178.8049 652.295)" class="st2" cx="447.2" cy="228.1" rx="49.5" ry="49"/>
	</g>
</g>
</svg>
