<?xml version="1.0" encoding="utf-8"?>
<!-- Generator: Adobe Illustrator 24.1.0, SVG Export Plug-In . SVG Version: 6.00 Build 0)  -->
<svg version="1.1" id="Layer_1" xmlns="http://www.w3.org/2000/svg" xmlns:xlink="http://www.w3.org/1999/xlink" x="0px" y="0px"
	 viewBox="0 0 512 512" style="enable-background:new 0 0 512 512;" xml:space="preserve">
<style type="text/css">
	.st0{fill:#8FA1CC;}
</style>
<g>
	<path class="st0" d="M255,414.3V411l-4.1-0.8c-10.6-2.2-13.8-4.4-16-11.1c-1-3.2-1.2-7.6-1.4-40.4c-0.2-29.7,0-36.6,0.6-35.7
		c0.5,0.6,16.7,22.4,36,48.5v0l35.1,47.4l3.9,0l3.9,0l0.2-50.5c0.2-43.4,0.4-51,1.3-54c1.7-5.9,3.6-7.2,13-9.3l5.2-1.1l-0.2-3.1
		l-0.2-3.1l-24.5-0.2l-24.5-0.2v3.3v3.3l5.8,1.5c15.1,3.8,15.3,4.3,15,51.3l-0.2,30.6l-33.1-44.8l-33.1-44.8l-17.4-0.2l-17.4-0.2
		v3.3v3.3l4.2,1.2c5.6,1.6,11.8,4.9,13.7,7.5c3.6,4.7,3.7,6.5,3.7,44.6c0,19.9-0.3,37.2-0.7,39.9c-1.2,8.3-3.3,10.5-12.6,12.7
		l-6.2,1.5l0,3.2l0,3.2h25h25V414.3z"/>
	<path class="st0" d="M253.1,509.4c-1.3,0-3.3-2-6.4-6.2c-2-2.8-2.3-3.9-0.9-3.9c1.5,0,3.8-3.4,3.8-5.7c0-1.4-0.6-2.7-1.7-3.8
		c-1.6-1.5-2.4-1.7-9.1-1.9c-6.4-0.2-7.4-0.1-7.4,0.8c0,0.6,0.6,1.1,1.3,1.1c1.8,0,2.1,1.2,2.1,9.8c0,8.6-0.3,9.8-2.1,9.8
		c-0.7,0-1.3,0.5-1.3,1c0,0.8,1,1,5.1,1c3.9,0,5.1-0.2,5.1-1c0-0.5-0.7-1.1-1.5-1.2c-1.4-0.2-1.5-0.6-1.7-4.5c-0.2-3.8-0.1-4.3,1-4
		c0.7,0.1,2.9,2.6,4.9,5.5l3.7,5.2h3.2c2.4,0,3.2-0.3,3.2-1C254.3,509.8,253.7,509.4,253.1,509.4z M242.3,498.4
		c-0.8,0.4-2.1,0.8-2.9,0.8c-1.3,0-1.4-0.4-1.4-4.7v-4.7h2.1c3.4,0,4.7,1.1,4.7,3.9C244.8,496.6,244.4,497.4,242.3,498.4z"/>
	<path class="st0" d="M253.6,447.9c-3.6,0-4.7,0.2-4.7,0.9c0,0.5,0.7,1.1,1.7,1.4c2,0.5,2.6,2.8,2.3,9.7l-0.2,5l-6.2-8.5l-6.2-8.5
		h-3.4c-2.6,0-3.4,0.2-3.4,1c0,0.6,0.4,1,1,1c2.5,0,3.1,1.9,3.1,10.5c0,8.4,0,8.4-1.7,9.1c-0.9,0.4-1.7,1-1.7,1.3
		c0,0.4,2,0.7,4.7,0.7c4.9,0,6.1-0.8,3.1-2c-2.1-0.8-2.5-2.4-2.2-9.6l0.2-5.9l6.6,8.8c3.6,4.8,7,8.8,7.6,8.8c0.8,0,1-1.8,1.2-10.3
		c0.2-9.9,0.2-10.3,1.7-11C259.9,448.9,258.6,447.9,253.6,447.9z"/>
	<path class="st0" d="M278.4,489.9c0.8-0.1,1.5-0.7,1.5-1.2c0-0.8-1.2-1-5.4-1c-4.2,0-5.4,0.2-5.4,1c0,0.5,0.7,1.1,1.5,1.2
		c1.5,0.2,1.5,0.4,1.7,9.8l0.2,9.6h-1.7c-1.1,0-1.7,0.4-1.7,1c0,0.8,1.1,1,5.4,1c4.2,0,5.4-0.2,5.4-1c0-0.5-0.7-1.1-1.5-1.2
		c-1.5-0.2-1.5-0.4-1.5-9.7C276.9,490.3,276.9,490.1,278.4,489.9z"/>
	<path class="st0" d="M96.4,497.5c-4.2-1.6-5.5-2.8-5.5-5.2c0-1.4,0.5-2.1,1.7-2.7c2.5-1.1,4.9,0.2,6.3,3.5c1.7,4,2.8,3.5,2.8-1.4
		c0-3.9-0.1-4.1-1.5-3.7c-0.8,0.2-2.6,0.1-3.9-0.3c-3.2-1-6.9,0.5-8.4,3.5c-2.1,4.1,0.2,7.8,5.9,9.9c5.4,1.9,6.9,6.1,3.1,8.3
		c-2.7,1.5-6.1-0.3-7.7-4c-1.7-3.8-2.7-3.1-2.4,1.7c0.3,4.4,0.5,4.9,1.5,3.9c0.5-0.5,1.5-0.4,3.2,0.2c5.7,2.1,11.1-1.3,11.1-6.9
		C102.4,501.2,100.6,499.1,96.4,497.5z"/>
	<path class="st0" d="M131.6,468.1c2.1-2.9,0.7-3.6-1.8-0.9c-1.8,1.9-2.7,2.4-4.9,2.4c-3.5,0-5.3-1.4-6.7-5.1
		c-2.9-7.7,2-17,7.6-14.4c1.1,0.5,2.4,2.1,3.2,3.7c2,4.2,3,3.7,3-1.5c0-3.5-0.2-4.4-1-4.4c-0.6,0-1,0.3-1,0.6c0,0.4-0.8,0.4-2.1-0.1
		c-3.5-1.2-8.5-0.4-10.9,1.9c-3,2.9-4,5.1-4,9.7c0,5.7,2.3,9.6,6.8,11.4C123.9,473.1,129,471.6,131.6,468.1z"/>
	<path class="st0" d="M138.8,487.7c-3.7,0-4.7,0.2-4.7,1c0,0.5,0.7,1.1,1.5,1.2c1.9,0.3,2.4,2.1,2.5,8.7c0.1,5.7-0.8,9.1-2.7,10.1
		c-2.1,1.1-5.9,0.8-7.4-0.7c-1.2-1.2-1.4-2.3-1.4-9.8c0-8,0.1-8.4,1.4-8.4c0.8,0,1.4-0.5,1.4-1c0-0.8-1-1-5.1-1
		c-5.2,0-6.5,0.8-3.4,2c1.7,0.6,1.7,0.7,1.7,9c0,9.4,0.8,11.3,4.9,12.5c1.2,0.3,2.6,0.6,3.2,0.7c2.2,0.1,5.9-1.4,7.5-3
		c1.5-1.6,1.7-2.4,2-10.3c0.3-8.2,0.4-8.6,1.9-8.8c0.8-0.1,1.5-0.7,1.5-1.2C143.5,488,142.4,487.7,138.8,487.7z"/>
	<path class="st0" d="M100.8,442.5c-0.4-2-2.7-1.5-5.3,1c-1.4,1.4-2.4,2.8-2.3,3.1C93.8,447.6,101,443.6,100.8,442.5z"/>
	<path class="st0" d="M277.1,448c-3.6-0.2-4.6,0-6.5,1.3c-3.8,2.6-5,4.8-5.3,9.5c-0.3,5.5,1.6,9.6,5.6,11.8
		c7.7,4.3,16.5-1.3,16.5-10.5c0-4.3-1.2-7.3-4-9.9C281.6,448.6,280.6,448.2,277.1,448z M280.3,468.6c-1.7,1.7-5.1,2.1-7.2,0.9
		c-4.3-2.5-4.9-14.4-0.8-18.2c3.7-3.5,8.9-1.2,10.4,4.5C283.9,460.9,283,465.8,280.3,468.6z"/>
	<path class="st0" d="M157.8,450.3c-1.8-1.7-2.8-2-6.3-2.3c-3.6-0.2-4.6,0-6.5,1.3c-3.8,2.6-5,4.8-5.3,9.5
		c-0.3,5.5,1.6,9.6,5.6,11.8c7.7,4.3,16.5-1.3,16.5-10.5C161.8,455.9,160.6,452.9,157.8,450.3z M154.6,468.6
		c-1.7,1.7-5.1,2.1-7.2,0.9c-4.3-2.5-4.9-14.4-0.8-18.2c3.7-3.5,8.9-1.2,10.4,4.5C158.3,460.9,157.4,465.8,154.6,468.6z"/>
	<path class="st0" d="M104.8,465c-2.6,4.2-3.1,4.6-7.1,4.3l-3.8-0.2l-0.2-4.6c-0.2-4.9,0-5.2,3.5-3.9c1.1,0.4,1.7,1.2,1.7,2
		c0,0.8,0.4,1.4,1,1.4c0.8,0,1-1,1-4.7c0-5-0.7-5.9-2.2-2.9c-0.7,1.4-1.5,1.9-3.1,2.1l-2.2,0.2v-4.4v-4.4h3.4c2.9,0,3.5,0.2,4.9,2
		c0.8,1.1,1.7,2,2,2c0.3,0,0.5-1.4,0.5-3v-3h-9.1c-7.3,0-9.1,0.2-9.1,0.9c0,0.5,0.8,1.1,1.7,1.4l1.7,0.4v9.4v9.4l-1.7,0.4
		c-0.9,0.2-1.7,0.7-1.7,1.1c0,0.4,3.8,0.7,9.7,0.7h9.7l0.5-3.4C106.5,464.4,106,463,104.8,465z"/>
	<path class="st0" d="M187.4,464.1c-0.4,0-1.3,1.2-2,2.6c-1.1,2.1-1.8,2.7-3.6,2.9c-5.4,0.6-5.3,0.9-5.3-9.7c0-8.9,0.1-9.5,1.4-9.8
		c0.7-0.2,1.4-0.8,1.4-1.3c0-0.8-1-0.9-4.8-0.8c-4.9,0.2-6.9,1.3-3.6,2.2l1.7,0.4v9.1c0,9.1,0,9.1-1.7,9.9c-0.9,0.4-1.7,1-1.7,1.3
		c0,0.3,4.3,0.6,9.5,0.6h9.5v-3.7C188.1,465.8,187.8,464.1,187.4,464.1z"/>
	<path class="st0" d="M201.6,486.1c0,0.7,0.9,0.5,3.5-0.8c2-1,3.8-2.1,4-2.5c0.5-0.8-0.6-2.5-1.6-2.5
		C206.6,480.3,201.6,485.2,201.6,486.1z"/>
	<path class="st0" d="M213.6,471.5l0.5-3.4c0.5-3.7-0.1-5.1-1.3-3.1c-2.6,4.2-3.1,4.6-7.1,4.3l-3.8-0.2l-0.2-4.6
		c-0.2-4.9,0-5.2,3.5-3.9c1.1,0.4,1.7,1.2,1.7,2c0,0.8,0.4,1.4,1,1.4c0.8,0,1-1,1-4.7c0-5-0.7-5.9-2.2-2.9c-0.7,1.4-1.5,1.9-3.1,2.1
		l-2.2,0.2v-4.4v-4.4h3.4c2.9,0,3.5,0.2,4.9,2c0.8,1.1,1.7,2,2,2c0.3,0,0.5-1.4,0.5-3v-3h-9.1c-7.3,0-9.1,0.2-9.1,0.9
		c0,0.5,0.8,1.1,1.7,1.4l1.7,0.4v9.4v9.4l-1.7,0.4c-0.9,0.2-1.7,0.7-1.7,1.1c0,0.4,3.8,0.7,9.7,0.7H213.6z"/>
	<path class="st0" d="M174.6,488.9c-3.2-1.6-14.8-1.7-14.8-0.2c0,0.6,0.6,1,1.3,1c1.8,0,2.1,1.2,2.1,9.8c0,8.6-0.3,9.8-2.1,9.8
		c-0.7,0-1.3,0.5-1.3,1c0,0.8,1,1,5.1,1c3.9,0,5.1-0.2,5.1-1c0-0.5-0.7-1.1-1.5-1.2c-1.3-0.2-1.5-0.7-1.7-4.1l-0.2-3.9h2.5
		C177.1,501.3,181.2,492.3,174.6,488.9z M171.9,497.9c-0.8,0.8-2.3,1.4-3.4,1.4h-2v-4.7v-4.7h2.3
		C172.8,489.8,174.8,494.9,171.9,497.9z"/>
	<path class="st0" d="M181.3,382l-2.3,5.3c-2.9,6.7-7.3,14.1-10.3,17.4c-3.9,4.3-7.3,5-24.5,5c-13.2,0-14.8-0.1-17.2-1.4
		c-1.8-0.9-3.2-2.3-4.1-4.1c-1.2-2.5-1.4-4.3-1.6-23.9l-0.2-21.2l11.1,0.2c10.7,0.2,11.2,0.3,13.8,2.1c3.3,2.2,5.8,7.1,7.1,13.6
		l0.8,4.5h3.6h3.6V356v-23.6l-3.5,0l-3.5,0l-1.2,4.9c-1.5,6.4-4.1,10.5-7.9,12.5c-2.7,1.4-3.8,1.6-13.3,1.6h-10.4v-23.4v-23.4
		l16.4,0.3c15.5,0.3,16.6,0.4,19.6,1.9c4.2,2,9.7,8.7,12.7,15.3l2.2,5h3.2h3.2v-14.9v-14.9h-46.3H86.1v3.4c0,3.1,0.1,3.4,1.9,3.7
		c5.1,1,10.1,2.5,11.5,3.5c3.5,2.3,3.5,2.2,3.5,50.2c0,48.2,0,47.9-3.6,50.3c-0.9,0.6-4.3,1.4-7.5,1.9l-5.8,0.8v3.3v0v3.3l49.8-0.2
		l49.8-0.2l0.8-12.5c0.4-6.9,1-14.9,1.2-17.8l0.4-5.3l-3.4,0.2L181.3,382z"/>
	<path class="st0" d="M213.8,504c-0.4,0-1.3,1.2-2,2.7c-1.4,2.7-1.4,2.7-5.3,2.7c-4.6,0-4.8-0.3-4.8-5.8c0-3.6,0-3.7,2-3.7
		c2.1,0,4.1,1.5,4.1,3.1c0,0.5,0.5,1,1,1c0.8,0,1-1,1-4.7c0-3.8-0.2-4.7-1-4.7c-0.6,0-1,0.4-1,1c0,1.3-2.6,3.1-4.5,3.1
		c-1.4,0-1.5-0.3-1.5-4.4v-4.4h3.7c3.5,0,3.8,0.2,4.9,2c1.7,3,2.8,2.6,2.8-1v-3H204c-7.7,0-9.1,0.2-9.1,1c0,0.6,0.6,1,1.3,1
		c1.8,0,2.1,1.2,2.1,9.8c0,8.6-0.3,9.8-2.1,9.8c-0.7,0-1.3,0.5-1.3,1c0,0.9,1.5,1,9.8,1h9.8v-3.7C214.4,505.6,214.1,504,213.8,504z"
		/>
	<path class="st0" d="M316.2,469.5c-0.9-0.3-3.1-2.5-4.9-4.8c-3-3.9-3.2-4.3-2-4.9c4.2-2.4,5.1-6.9,2-9.9c-1.6-1.5-2.3-1.6-8.9-1.6
		c-4.9,0-7.2,0.3-7.4,0.8c-0.1,0.4,0.4,0.9,1.3,1c1.5,0.2,1.6,0.4,1.7,9.5l0.2,9.3l-1.7,0.8c-0.9,0.4-1.7,1-1.7,1.3
		c0,0.3,2.3,0.6,5.1,0.6c4.9,0,6.6-0.8,3.7-1.7c-1.2-0.4-1.4-1-1.4-4.4c0-5.5,1.1-5.3,5.5,1.1l3.5,5.1h3.2
		C318,471.5,318.8,470.5,316.2,469.5z M307.3,457.7c-0.9,0.9-2.4,1.7-3.4,1.7c-1.7,0-1.7-0.1-1.7-4.7v-4.7h2
		C308.6,449.9,310.4,454.6,307.3,457.7z"/>
	<path class="st0" d="M397.2,346.3c-17.4-7-21.6-9.9-24.9-17.2c-1.9-4.4-1.9-12.2,0-15.9c1.9-3.7,5.3-6.7,9.3-8.6
		c4.7-2.1,12.5-2.1,18.2,0.1c8.4,3.2,15.2,12.7,19.5,27.2l1.8,5.9h3.7h3.7v-5.6c0-3.1-0.2-12.2-0.4-20.3l-0.4-14.7h-3.5
		c-3.4,0-3.5,0.1-5,2.7c-0.8,1.5-1.7,2.7-1.9,2.7c-0.2,0-2.8-1.2-5.9-2.7c-7.5-3.6-13-4.9-20.7-4.9c-7.4,0-12.4,1.2-19,4.7
		c-4.9,2.6-10.7,8.1-13.6,13.1c-5.8,9.9-4.9,25.5,2,34.5c5.1,6.8,11.6,10.6,29.7,17.5c15.8,6,19,7.9,22.4,13.3
		c7.8,12.2,3.8,28.2-7.9,32.2c-8.4,2.9-19.1,1.7-26.2-2.9c-7.7-5-14.1-14.2-18-25.7l-1.7-5.1l-3.8-0.2l-3.8-0.2l0.4,15.1
		c0.2,8.3,0.6,17.6,0.8,20.6l0.4,5.6h3.6c3.5,0,3.7-0.1,5.1-2.7c0.8-1.5,1.7-2.7,2-2.7c0.3,0,2.7,1,5.4,2.3c5.6,2.6,11,4.2,16.7,5.1
		h0c5,0.8,14.9,0.2,20.1-1.1c5.9-1.5,12.9-5.4,17.7-10c13.5-12.6,14.3-35.5,1.6-47.6C419.6,356.1,413.4,352.8,397.2,346.3z"/>
	<path class="st0" d="M428.9,506.5c-1.3,2.5-1.4,2.5-5.4,2.5h-4.1l-0.2-4.6c-0.2-4.5-0.2-4.6,1.5-4.6c1.8,0,3.8,1.6,3.8,3.1
		c0,0.5,0.5,1,1,1c0.8,0,1-1,1-4.7c0-3.6-0.2-4.7-0.9-4.7c-0.5,0-1.1,0.7-1.3,1.6c-0.4,1.5-2,2.4-4.3,2.4c-0.6,0-0.8-1.3-0.8-4.4
		v-4.4h3.4c3.1,0,3.5,0.2,4.6,2c1.7,3,2.8,2.6,2.8-1v-3h-9.1c-7.5,0-9.1,0.2-9.1,1c0,0.5,0.7,1.1,1.5,1.2c1.5,0.2,1.5,0.4,1.5,9.7
		c0,9.3,0,9.5-1.5,9.7c-0.8,0.1-1.5,0.7-1.5,1.2v0c0,0.8,1.8,1,9.8,1h9.8v-2.6c0-1.5,0.2-3.1,0.4-3.7
		C432.5,502.8,430.2,504,428.9,506.5z"/>
	<path class="st0" d="M413.4,469.6c-0.9,0.4-1.7,1-1.7,1.3c0,0.3,4.4,0.6,9.7,0.6h9.7l0.2-3.4c0.1-1.9-0.1-3.6-0.4-3.8
		c-0.3-0.2-0.7-0.1-0.8,0.2c-0.1,0.3-0.8,1.6-1.5,2.8c-1.3,2.1-1.5,2.2-5.4,2.2h-4.1v-4.7c0-3.3,0.2-4.7,0.8-4.7
		c2.3,0,3.9,1,4.3,2.4c0.2,0.9,0.8,1.6,1.3,1.6c0.7,0,0.9-1.1,0.9-4.7c0-3.8-0.2-4.7-1-4.7c-0.6,0-1,0.4-1,1c0,1.5-1.9,3.1-3.8,3.1
		c-1.6,0-1.6-0.2-1.6-4.4v-4.4h3c3,0,5.7,1.6,5.7,3.4c0,0.4,0.5,0.7,1,0.7c0.8,0,1-0.8,1-3v-3h-9.1c-7.3,0-9.1,0.2-9.1,0.9
		c0,0.5,0.8,1.1,1.7,1.4l1.7,0.4v9.1C415,468.8,415,468.9,413.4,469.6z"/>
	<path class="st0" d="M440.2,211.3c-1-1.1-3.6-3-5.8-4.3c-2.7-1.6-4-2.9-4.3-4.2c-0.4-1.5,0.4-11.7,1.6-19.7c0.3-2,0-2.8-2.1-5.2
		c-2.3-2.7-2.6-2.9-6.2-2.9c-3.1,0-3.6-0.2-3-0.9c0.4-0.5,1.3-3.2,2-5.9c0.7-2.8,2.1-6.3,3.1-7.9c2-3.1,2-3.1-2.7-4.1
		c-2.7-0.6-2.9-0.5-7.4,3.2c-3.7,3.1-5,3.8-6.5,3.6c-1.5-0.2-3.1,0.6-7.1,3.5c-7.7,5.6-9.2,5.3-15.8-2.5l-4.1-4.9l0.2-4.1
		c0.1-3.8-0.1-4.4-2.2-7.5c-1.3-1.8-2.6-3.9-2.9-4.6c-0.7-1.8,2.2-7.8,3.7-7.8c0.8,0,1.3-0.7,1.6-2.5c0.2-1.4,0.7-3.2,1-4.1
		c0.3-0.9,0.6-3.6,0.6-6.1c0-4.4-0.1-4.7-2.5-7c-2.7-2.7-5.7-4.1-10.6-5.2c-2.6-0.6-3.8-0.5-7.3,0.7c-7.3,2.4-10.2,4.7-13.2,10.6
		c-1.5,2.9-3.7,7.6-4.8,10.6c-1.2,3-2.4,5.7-2.8,6c-0.4,0.4-0.6-4.3-0.6-12.2v-12.8l3.1-3c2.6-2.5,3-3.3,2.7-4.9
		c-0.2-1-0.1-1.9,0.2-1.9c0.9,0,2.2-3.5,1.7-4.8c-0.5-1.6-3-2.6-4.5-1.8c-2.2,1.1-1.4-1.5,3.7-11.9c4.2-8.7,4.9-10.6,4.9-13.7
		c0-3.2-0.3-3.9-2.2-5.8c-1.6-1.6-3-2.3-5.2-2.5l-3-0.4l5-6c2.8-3.3,5-6.3,5-6.7s-0.9-2.6-2.1-5c-8.3-17.5-32.9-33.7-62.2-41.1
		c-21.7-5.5-44.1-5-65.5,1.5c-29.1,8.8-51.1,24.9-58,42.6l-1.4,3.5l4.8,5.6l4.8,5.6l-2.3,0.4c-3.3,0.6-5.2,1.7-6.4,4.1
		c-1.9,3.7-1,7.6,4.4,18.6c5.2,10.8,5.7,12.2,3.4,11c-1.1-0.6-1.8-0.5-3,0.3c-1.9,1.3-2.1,3.4-0.5,5.8c0.6,0.9,1.1,2.2,1,2.9
		c-0.1,0.8,1,2.5,2.9,4.4l3.1,3.2l-0.2,15.2c-0.2,13.2-0.3,14.9-1.1,13.1c-0.5-1.1-1.5-2.6-2.2-3.4c-2.1-2.2-3.4-6.9-3.4-12.4
		c0-5.9-1.3-9.4-4.1-10.7c-0.9-0.4-3.6-1.8-5.9-2.9c-7.3-3.7-12-2.8-18.4,3.4c-3.7,3.6-4.1,5.6-2.3,10.7c0.6,1.6,1,4.1,1,5.7
		c0,3.5,0.8,4.7,2.5,4.2c0.9-0.3,1.6,0.1,2.4,1.4c0.6,1,1.8,2.6,2.7,3.4c1.4,1.3,1.9,1.4,3.5,0.8c2.7-1,3.1-0.9,3.1,1.3
		c0,1.8-0.4,2.1-3.2,3.1c-3.2,1-5.6,3.1-10.8,9.3c-1.7,2-2.1,2.9-1.7,4.5c0.2,1.1,0.2,2.5,0,3.1c-0.4,0.9-0.7,0.9-2.6-0.4
		c-1.2-0.8-5.1-4.3-8.7-7.6c-8.5-8.1-10.6-9.6-11.6-8.6c-0.6,0.6-0.6,1.1,0.1,2.1c1.1,1.7,0.1,1.7-2,0c-1.7-1.3-3.2-0.9-3.2,1
		c0,1.4,4.1,6.5,4.8,6c0.4-0.2,1.4,0.2,2.2,1c0.8,0.8,2.6,1.9,4,2.4c2.2,0.9,2.9,1.9,5.9,7.7l3.3,6.7l-4.5-0.3
		c-2.5-0.2-5.2-0.8-6.1-1.3c-1.2-0.8-3.4-0.9-9.8-0.8l-8.2,0.2l-4.3,3l-4.3,3l0.3,4.9c0.2,3.4,0.1,5.5-0.6,6.8
		c-2.5,5-5.7,21.5-5.7,29.6c0,5.4-1.6,10.6-4.2,13.5c-1.4,1.6-1.9,2.6-1.3,2.9c0.6,0.3,0.4,1.7-0.7,5c-1.4,4.2-1.7,4.6-4.9,6.3
		c-4,2.1-6.4,4.7-6.4,6.9c0,2.1,2.5,2,8.8-0.5c5.9-2.3,6.8-2.4,6.8-0.9c0,1.9,2.6,5.4,6.5,8.6l3.8,3.1h-3.4c-1.9,0-3.9,0.2-4.5,0.4
		c-1.3,0.5-3.3,4.1-2.7,5h0c0.5,0.8,347.9,0.9,348.4,0.1c0.4-0.7-1.4-4.3-2.5-5c-0.4-0.3-2-0.5-3.4-0.5c-4.3,0-2.5-1.6,2.8-2.4
		c2.7-0.4,5-0.9,5.3-1.2c0.3-0.3,0.6-3,0.8-6.1l0.3-5.6l2.5-1.3l2.5-1.3l0.2-16.2l0.2-16.2L440.2,211.3z M230.7,9.1
		c24.6-6.2,49.2-4.4,74.2,5.5c19.1,7.6,34.4,19.1,40.4,30.4l2.2,4.1l-4.5,5.5l-4.5,5.5l-79.5,0l-79.5,0l-3.9-4.5
		c-2.1-2.5-4-4.9-4.2-5.4c-0.7-1.9,4.3-9.5,10.2-15.5C193.3,23.1,210,14.4,230.7,9.1z M333.3,115.6h3.4v68.2V252h-3.4h-3.4v-68.2
		v-68.2H333.3z M329.9,110.8V95.3V79.8h3h3v15.5v15.5h-3H329.9z M333,256.7h5.7v3.7v3.7H333h-5.7v-3.7v-3.7H333z M333,75h-5.7v-3.7
		v-3.7h5.7h5.7v3.7V75H333z M185.4,115.6h3.4v68.2V252h-3.4H182v-68.2v-68.2H185.4z M182.7,110.8V95.3V79.8h2.7h2.7v15.5v15.5h-2.7
		H182.7z M185.1,75h-5.7v-3.7v-3.7h5.7h5.7v3.7V75H185.1z M179.3,260.5v-3.7h5.7h5.7v3.7v3.7h-5.7h-5.7V260.5z M194.8,252
		c-0.4,0-0.7-29.2-0.7-86.1c0-57,0.2-86.1,0.7-86.1c0.4,0,0.7-2.8,0.7-7.1v-7.1h63.8h63.8v7.1c0,4.3,0.3,7.1,0.7,7.1
		c0.4,0,0.7,29.2,0.7,86.1c0,57-0.2,86.1-0.7,86.1c-0.4,0-0.7,2.4-0.7,5.7v5.7h-63.8h-63.8v-5.7C195.5,254.4,195.2,252,194.8,252z"
		/>
	<path class="st0" d="M314.2,506.7c-1.5,2.3-1.8,2.4-5.6,2.4h-4l-0.2-4.6l-0.2-4.6h2.1c1.6,0,2.4,0.5,3.2,2c0.6,1.1,1.4,2,1.7,2
		c0.3,0,0.5-2.1,0.5-4.7c0-4.6-0.8-6.2-1.7-3.3c-0.2,0.8-1.2,1.7-2.1,2c-3.3,1.3-3.6,1-3.6-3.8v-4.4l3.2,0c3.6,0,4.4,0.4,5.5,2.5
		c1.4,2.7,2.8,1.9,2.8-1.5v-3h-9.5c-9.3,0-11.6,0.6-7.8,2l1.7,0.6v9.4c0,9.2,0,9.4-1.5,9.6c-0.8,0.1-1.6,0.6-1.8,1.1v0
		c-0.2,0.7,1.8,0.8,9.7,0.7l10-0.2l0.2-3.6C317.2,503.3,316.6,503.1,314.2,506.7z"/>
	<path class="st0" d="M352.6,487.7c-5.3,0-6.3,0.7-3.2,2.2c1.8,0.9,1.9,0.9,2,8.6c0.2,7.1,0.1,7.8-1.3,9.3c-1.1,1.2-2.2,1.6-4.3,1.6
		c-4.4,0-5.2-1.4-5.6-9.4c-0.4-8,0-10.2,1.9-10.2c0.7,0,1.3-0.5,1.3-1c0-0.8-1-1-5.1-1c-4.1,0-5.1,0.2-5.1,1c0,0.6,0.6,1,1.3,1
		c1.8,0,2.1,1.2,2.1,9.8c0,8.6,0.8,10.6,4.9,11.8v0c2.9,0.8,3.8,0.9,6.7,0c4.4-1.2,5.3-3.1,5.3-11.2c0-7.9,0.7-10.4,2.7-10.4
		c0.8,0,1.4-0.4,1.4-1C357.6,487.9,356.6,487.7,352.6,487.7z"/>
	<path class="st0" d="M330.6,469.6l-2-0.7l0-8l0-8l3.5,9.3c1.9,5.1,3.8,9.2,4.1,9.1c0.3-0.1,2.1-4,4-8.6c1.8-4.6,3.5-8.5,3.6-8.7
		c0.2-0.2,0.3,3.3,0.3,7.6c0,7.8,0,7.9-1.7,8.3c-3.4,0.8-1.6,1.6,3.7,1.6c5.6,0,6.7-0.6,3.7-1.9l-1.7-0.8l0.2-9.3
		c0.2-9.1,0.2-9.3,1.7-9.5c0.8-0.1,1.5-0.7,1.5-1.2c0-0.7-1-1-3.9-1l-3.9,0l-3,8.1c-1.7,4.5-3.2,8.1-3.4,8.1c-0.2,0-1.7-3.6-3.4-7.9
		l-3.1-7.9h-4c-2.6,0-4.1,0.3-4.3,0.8c-0.2,0.5,0.2,0.8,0.7,0.8c2.5,0,3.1,1.9,3.1,9.1c0,7.7-0.6,10.1-2.7,10.8
		c-0.8,0.2-1.4,0.7-1.4,1.1c0,0.3,2.3,0.6,5.1,0.6C332.9,471.5,334,470.8,330.6,469.6z"/>
	<polygon class="st0" points="322.5,470.9 322.5,470.9 322.5,470.9 	"/>
	<path class="st0" d="M394.9,509.3c-1-0.4-3.3-2.6-5.1-5l-3.2-4.3l2-1c3.7-1.9,4.5-5.8,1.8-8.9c-1.6-1.8-1.9-1.9-9.1-2.1
		c-6.5-0.2-7.5-0.1-7.5,0.8c0,0.6,0.6,1.1,1.4,1.1c1.3,0,1.4,0.4,1.4,9.8c0,9.3-0.1,9.8-1.4,9.8c-0.8,0-1.4,0.5-1.4,1
		c0,0.8,1,1,5.1,1c3.9,0,5.1-0.2,5.1-1c0-0.5-0.7-1.1-1.5-1.2c-1.4-0.2-1.5-0.6-1.7-4.4c-0.3-5.8,0.9-5.6,5.6,1.2l3.8,5.4h3.3
		C397.1,511.4,397.9,510.3,394.9,509.3z M386.1,497.4c-0.7,0.6-2.2,1.3-3.4,1.5l-2.2,0.4v-4.8v-4.8h2.3c1.3,0,2.8,0.5,3.4,1.1
		C387.7,492.3,387.6,496,386.1,497.4z"/>
	<path class="st0" d="M403.3,466c-0.5,1-1.4,2.3-2,2.7c-1.4,1.2-6.5,1.1-7.3,0c-0.3-0.5-0.5-4.7-0.4-9.4c0.2-8,0.2-8.5,1.7-9.1
		c0.8-0.4,1.5-1,1.5-1.5c0-0.6-1.4-0.9-5.1-0.9c-3.6,0-5.1,0.2-5.1,0.9c0,0.5,0.7,1.2,1.5,1.5c1.5,0.6,1.5,1.1,1.7,9.6l0.2,9
		l-1.7,0.8c-0.9,0.4-1.7,1-1.7,1.3h0c0,0.3,4.1,0.6,9,0.6c10.1,0,9.8,0.1,9.9-5.2C405.6,463.6,404.6,463.5,403.3,466z"/>
	<path class="st0" d="M379.8,469.6c-1.2-0.5-2.4-2.8-5.5-11.2c-2.8-7.3-4.3-10.5-5-10.4c-0.5,0.1-2.7,4.8-5,10.5
		c-3.3,8.4-4.4,10.5-5.7,11c-0.9,0.3-1.6,0.9-1.6,1.3h0c0,0.4,2,0.7,4.7,0.7c4.7,0,6.3-0.9,3-1.7c-1.9-0.5-2-1.1-0.9-4.2
		c0.7-2.1,0.9-2.1,4.6-2.1h3.9l0.8,2.8c0.7,2.3,0.7,2.9-0.1,3.4c-0.5,0.3-1.1,0.6-1.4,0.6c-0.3,0-0.5,0.3-0.5,0.7
		c0,0.4,2.1,0.7,5.1,0.7C381.3,471.5,382.8,470.7,379.8,469.6z M368.5,461.4c-1.5,0-2.8-0.2-2.8-0.5c0-0.3,0.6-2,1.2-3.8l1.2-3.3
		l1.2,2.9c0.7,1.6,1.3,3.3,1.5,3.8C371.2,461.1,370.5,461.4,368.5,461.4z"/>
	<path class="st0" d="M238.1,42.6c-1.3,0-1.4-0.5-1.4-9.5c0-5.2-0.2-9.5-0.5-9.5c-0.3,0-1.8,0.7-3.4,1.5c-3,1.6-3.9,3-1.5,2.2
		c1.3-0.4,1.4-0.1,1.4,7.3c0,7.3-0.1,7.7-1.5,8.4c-1.2,0.6-0.6,0.7,3.4,0.8c2.8,0,4.9-0.2,4.9-0.6C239.4,42.9,238.8,42.6,238.1,42.6
		z"/>
	<path class="st0" d="M276.5,38.6c1.1,0,2.9,0.2,4.1,0.4c2,0.4,2.1,0.6,2,3.2c-0.1,1.5-0.1,3,0,3.2c0,0.2,0.8,0.3,1.8,0.1
		c1.5-0.3,1.7-0.7,1.7-3.2c0-2.3,0.3-3,1.4-3.2c0.9-0.2,1.4-0.9,1.4-2.2c0-1.5-0.2-1.7-1.4-1.4c-1.3,0.4-1.4,0.1-1.4-5.7
		c0-7.1-0.6-7.6-3.9-3.5c-3.7,4.6-7.6,10.4-7.6,11.4C274.6,38.2,275.3,38.6,276.5,38.6z M280.6,31.1l2-2.4l0,3.5h0l0,3.5h-2.7
		C276.8,35.9,276.9,35.4,280.6,31.1z"/>
	<path class="st0" d="M311.7,251.3v-86.8V77.8h-52.3H207v86.8v86.8h52.3H311.7z M306.3,221.1c0,12.2-0.1,22.1-0.2,22.1
		c-0.1,0-6.2-2.7-13.5-5.9l-13.3-5.9v-20.1c0-11.1,0.2-20.1,0.5-20.1c0.3,0,6.4,1.7,13.5,3.9l13,3.9L306.3,221.1L306.3,221.1z
		 M305.5,194.5c-0.5,0-6.5-1.8-13.3-3.9l-12.5-3.9v-20.5v-20.5l12.8-3.9c7.1-2.2,13.1-3.9,13.3-3.9c0.3,0,0.5,12.8,0.5,28.4
		C306.3,188.5,306.1,194.6,305.5,194.5z M306.3,85.2v24.1v24.1l-13.5,4.1l-13.5,4.1v-22.1V97.6l10-4.6c5.5-2.5,11.6-5.3,13.5-6.2
		L306.3,85.2z M211.7,109.1c0-19.4,0.2-24,0.9-23.7c0.5,0.2,6.7,3,13.8,6.3l13,5.9v21.8c0,24.8,0.6,22.7-6.1,20.5
		c-2-0.7-7.7-2.5-12.7-4l-8.9-2.8V109.1z M212.9,137.9c0.7,0,6.8,1.8,13.7,3.9l12.5,3.9l0.2,20.4c0.2,19,0.1,20.4-1,20.7
		c-0.7,0.2-6.7,2-13.5,4.1c-6.8,2.1-12.5,3.8-12.7,3.8c-0.2,0-0.4-12.8-0.4-28.4C211.7,139.7,211.8,137.9,212.9,137.9z M212.5,199
		c0.4-0.2,6.1-2.1,12.7-4.1c6.6-2,12.5-3.8,13.1-4c1.1-0.3,1.2,0.9,1.2,20.1l0,20.5l-13.2,5.7c-7.3,3.2-13.5,5.8-13.8,6
		C211.4,243.5,211.5,199.5,212.5,199z M218.6,246.3c0.2-0.2,5.8-2.7,12.4-5.7l12.1-5.4l0.2-70.2l0.2-70.2l-12.7-6.1l-12.7-6.1
		l41-0.1c22.6,0,41,0,41,0.2c0,0.1-5.8,2.9-12.8,6.2l-12.8,6v69.9v69.9l12.8,5.7c7.1,3.1,12.8,5.8,12.8,5.9h0c0,0.1-18.4,0.2-41,0.2
		S218.4,246.5,218.6,246.3z"/>
	<path class="st0" d="M338.1,54.8l-0.5-2.2c-3.2-15.7-26.8-31.5-57.5-38.8c-7.4-1.7-9.1-1.9-21.2-1.9c-15,0-21.2,1-35.3,5.7
		c-23.9,8-39.9,21-42.1,34.3l-0.5,2.9h78.5H338.1z M193.9,46.5c6.1-12,23.7-23.4,44.8-28.9c10.2-2.7,24-3.3,33.8-1.6
		c12.5,2.2,27.2,8.2,37.6,15.4c5.8,4,13,11.3,15,15.3l1.5,2.9h-66.9c-36.8,0-66.9-0.2-66.9-0.4C192.8,48.8,193.3,47.7,193.9,46.5z"
		/>
	<path class="st0" d="M261,43c-0.7,0.2-1.3,0.7-1.3,1c0,2.6,8.9-2.6,11-6.4c3.6-6.6,0.7-15.2-5.2-15.2c-3.2,0-4.8,0.9-6.1,3.4
		c-3,5.8,1.1,12.5,6.2,10.2c2.3-1,2.6-0.6,1.3,1.8C265.7,40,263.1,42.3,261,43z M267.2,33.4c-1.5,1.4-1.7,1.4-3.5-0.1
		c-1.8-1.4-2.6-6.1-1.4-8.2c0.5-0.9,1.4-1.4,2.4-1.4C268,23.7,269.9,31,267.2,33.4z"/>
	<path class="st0" d="M243.7,23.3c-0.1,0.1-0.4,1.4-0.6,3c-0.5,2.9,0.6,4.1,1.3,1.5c0.2-0.9,0.9-1.4,2-1.4c0.9,0,2.6-0.2,3.8-0.4
		c2.9-0.6,2.8,0.7-0.9,7.4c-3,5.5-4.3,9.8-3.4,11.2c0.3,0.4,1.2,0.7,2.2,0.5c1.6-0.2,1.7-0.5,1.9-3.9c0.1-2.2,1-6,2.3-9.3
		c1.2-3.1,2.1-6.6,2.1-7.7v-2.1l-5.2,0.5C246.2,22.9,243.8,23.2,243.7,23.3z"/>
</g>
</svg>
