<?xml version="1.0" encoding="utf-8"?>
<!-- Generator: Adobe Illustrator 24.1.0, SVG Export Plug-In . SVG Version: 6.00 Build 0)  -->
<svg version="1.1" id="Layer_1" xmlns="http://www.w3.org/2000/svg" xmlns:xlink="http://www.w3.org/1999/xlink" x="0px" y="0px"
	 viewBox="0 0 512 512" style="enable-background:new 0 0 512 512;" xml:space="preserve">
<style type="text/css">
	.st0{fill:#8FA1CC;}
</style>
<g>
	<path class="st0" d="M95.9,352.2l7.6-1c8.8-0.9,9.7-3.6,7.3-10.9c-1.7-5.7-8.6-24.2-15.2-41.3H47.5c-2.4,6.2-8.6,24.7-11.9,34.6
		c-4.5,13.8-2.4,16.9,8.3,17.8l7.1,0.7v5.4H0.2v-5.5c15.4-1.7,17.3-3.1,25.6-24.2l48.9-126l5.4-2.1l16.8,45.1
		c11.2,30.1,21.6,60.3,30.9,84.5c7.6,19.9,10.7,21.6,25.4,22.8v5.4H95.8V352L95.9,352.2z M50.6,290h42l-20.9-58.4h-0.5L50.6,290
		L50.6,290z"/>
	<path class="st0" d="M309.9,359.5h-6.3L198.6,231.9h-0.5v61.7c0,25.4,1,38.5,1.9,46c1.2,8.5,7.8,11.9,23.7,12.6v5.6h-58.1v-5.5
		c13.3-0.5,19.6-4.1,20.8-12.6c1-7.5,2-20.5,2-46v-52.6c0-17.4-0.2-21.3-4.6-26.9c-4.6-5.8-11.1-7.5-21.3-8.2v-5.6h35.4l101.9,122
		h0.5v-57.9c0-25.4-1-38.5-2-46c-1.2-8.5-7.7-11.8-23.7-12.6v-5.6h58.1v5.6c-13.3,0.5-19.6,4.1-20.8,12.6c-1,7.5-1.9,20.6-1.9,46
		v94.9L309.9,359.5z"/>
	<path class="st0" d="M377.4,311.8c0,34.7,2.5,36.9,28.6,38.8v7.3h-84.6v-7.3c26.7-1.9,29.3-4.1,29.3-38.8V197.3
		c0-34.7-2.5-36.9-28-38.8v-7.3h80.8c20.4,0,38.5,2.8,50.3,10.8c12.7,7.9,21,22.3,21,40.7c0,26.4-16.2,45.2-42,55.7
		c5.7,9.5,18.8,31.5,28.3,45.5c11.5,16.8,18.1,25.4,26.7,35c6.7,7.9,12.4,13,23.9,15.9l-0.6,6h-4.5c-36.6-1-47.7-12.1-59.8-29.6
		c-9.9-14.3-23.2-37.9-32.1-52.8c-5.1-8.3-10.2-11.5-20-11.5h-17.1v44.8L377.4,311.8z M377.4,257.8h18.4c13,0,23.2-1.6,31.8-8.6
		c13.7-10.8,18.5-26.4,18.5-42c0-33.4-24.2-46.7-48-46.7c-10.8,0-15.3,0.6-17.8,1.6c-1.9,0.6-2.9,2.2-2.9,8.6L377.4,257.8
		L377.4,257.8z"/>
	<path class="st0" d="M3,183.5l-1.5,3.9h-1.8l6.5-16.3l6.5,16.3h-1.8l-1.5-3.9H3z M6.1,175.4l-2.4,6.3h4.8L6.1,175.4L6.1,175.4z
		 M25.5,179.6v0.6c0,4.3-2.6,7.6-6.4,7.6c-3.8,0-6.8-3.8-6.8-8.1c0-4.5,3.1-8.2,7-8.2c2.1,0,4.2,1.1,5.5,3l-1.2,1.3
		c-1-1.5-2.6-2.5-4.3-2.5c-3,0-5.4,2.8-5.4,6.4c0,3.3,2.3,6.4,5.3,6.4c2.1,0,4.4-2.1,4.4-4.7h-3.5v-1.8h5.4L25.5,179.6z M27.2,171.8
		h7.3v1.8h-5.6v4.4h5.4v1.8h-5.4v5.9h5.6v1.8h-7.3V171.8L27.2,171.8z M37.1,171.1l10.2,12.3v-11.6h1.7v16.3l-10.2-12.3v11.7h-1.7
		L37.1,171.1L37.1,171.1z M61.5,174.8c-1-1-2.3-1.5-3.6-1.5c-3,0-5.3,2.9-5.3,6.4c0,3.4,2.3,6.4,5.3,6.4c1.3,0,2.6-0.6,3.6-1.6v2.3
		c-1,0.7-2.4,1.1-3.6,1.1c-3.9,0-7.1-3.6-7.1-8.1c0-4.6,3.2-8.2,7.2-8.2c1.2,0,2.4,0.3,3.4,1L61.5,174.8L61.5,174.8z M63.9,171.8
		h7.3v1.8h-5.6v4.4H71v1.8h-5.4v5.9h5.6v1.8h-7.3V171.8L63.9,171.8z M79,171l10.2,12.3v-11.6h1.7v16.3l-10.2-12.3v11.7H79V171
		L79,171z M95.5,183.5l-1.5,3.9h-1.8l6.5-16.3l6.5,16.3h-1.8l-1.5-3.9L95.5,183.5L95.5,183.5z M98.6,175.4l-2.4,6.3h4.8L98.6,175.4
		L98.6,175.4z M108.8,187.5h-1.7v-13.9h-3.2v-1.8h8.1v1.8h-3.2L108.8,187.5L108.8,187.5z M113.6,187.5h1.7v-15.7h-1.7V187.5
		L113.6,187.5z M131.4,179.6c0,4.7-3.2,8.2-7.1,8.2c-3.9,0-7.1-3.5-7.1-8.2c0-4.5,3.2-8.2,7.1-8.2
		C128.1,171.5,131.3,175.1,131.4,179.6 M129.6,179.6c0-3.4-2.2-6.4-5.4-6.4c-3.2,0-5.4,2.9-5.4,6.3c0,3.6,2.5,6.3,5.4,6.3
		C127.1,185.9,129.6,183.1,129.6,179.6 M132.7,171.1l10.2,12.3v-11.6h1.7v16.3l-10.2-12.3v11.7h-1.7V171.1L132.7,171.1z
		 M149.2,183.5l-1.5,3.9h-1.8l6.5-16.3l6.5,16.3h-1.8l-1.5-3.9L149.2,183.5L149.2,183.5z M152.3,175.4l-2.4,6.3h4.8L152.3,175.4
		L152.3,175.4z M161.9,185.7h4.1v1.8h-5.8v-15.7h1.7L161.9,185.7L161.9,185.7z M167.8,171.8h7.3v1.8h-5.6v4.4h5.4v1.8h-5.4v5.9h5.6
		v1.8h-7.2L167.8,171.8L167.8,171.8z M183.2,171.8h2.8c4.1,0,7.6,2.5,7.6,7.8c0,5.3-3.4,7.9-7.6,7.9h-2.7L183.2,171.8L183.2,171.8z
		 M184.9,185.7h0.6c3.4,0,6.4-1.5,6.4-6c0-4.6-3-6-6.4-6h-0.6L184.9,185.7L184.9,185.7z M195.6,171.8h7.3v1.8h-5.6v4.4h5.4v1.8h-5.4
		v5.9h5.6v1.8h-7.3L195.6,171.8L195.6,171.8z M211.1,185.7h4.1v1.8h-5.8v-15.7h1.7V185.7z M220.1,183.5l-1.5,3.9h-1.8l6.5-16.3
		l6.5,16.3h-1.8l-1.5-3.9L220.1,183.5L220.1,183.5z M223.2,175.4l-2.4,6.3h4.8L223.2,175.4L223.2,175.4z M245.1,187.5h-2l-4-6.6
		h-0.7v6.6h-1.7v-15.7h2c1.2,0,2.5,0,3.6,0.7c1.1,0.8,1.8,2.2,1.8,3.7c0,2.2-1.3,4.1-3.3,4.4L245.1,187.5L245.1,187.5z M238.4,179.2
		h0.5c1.7,0,3.6-0.4,3.6-2.9c0-2.5-2-2.8-3.7-2.8h-0.4C238.4,173.6,238.4,179.2,238.4,179.2z M246.8,171.8h7.3v1.8h-5.6v4.4h5.4v1.8
		h-5.4v5.9h5.6v1.8h-7.3L246.8,171.8L246.8,171.8z M266.3,174.8c-1-1-2.3-1.5-3.6-1.5c-3,0-5.3,2.9-5.3,6.4c0,3.4,2.3,6.4,5.3,6.4
		c1.3,0,2.6-0.6,3.6-1.6v2.3c-1.1,0.7-2.4,1.1-3.6,1.1c-3.9,0-7.1-3.6-7.1-8.1c0-4.6,3.2-8.2,7.2-8.2c1.2,0,2.4,0.3,3.4,1v2.2
		L266.3,174.8z M276.7,178.1v-6.3h1.7v15.7h-1.7v-7.5h-6.4v7.5h-1.7v-15.7h1.7v6.3L276.7,178.1L276.7,178.1z M281.2,171.8h7.3v1.8
		h-5.6v4.4h5.4v1.8h-5.4v5.9h5.6v1.8h-7.3V171.8L281.2,171.8z M299.3,187.5h-2l-4-6.6h-0.7v6.6h-1.7v-15.7h2c1.2,0,2.5,0,3.5,0.7
		c1.1,0.8,1.8,2.2,1.8,3.7c0,2.2-1.3,4.1-3.3,4.4L299.3,187.5L299.3,187.5z M292.6,179.2h0.5c1.7,0,3.6-0.4,3.6-2.9
		c0-2.5-2-2.8-3.7-2.8h-0.4L292.6,179.2L292.6,179.2z M310.9,174.8c-1-1-2.3-1.5-3.6-1.5c-3,0-5.3,2.9-5.3,6.4
		c0,3.4,2.3,6.4,5.3,6.4c1.3,0,2.6-0.6,3.6-1.6v2.3c-1,0.7-2.4,1.1-3.6,1.1c-3.9,0-7-3.6-7-8.1c0-4.6,3.3-8.2,7.2-8.2
		c1.2,0,2.4,0.3,3.4,1L310.9,174.8L310.9,174.8z M321.2,178.1v-6.3h1.7v15.7h-1.7v-7.5h-6.4v7.5h-1.7v-15.7h1.7v6.3L321.2,178.1
		L321.2,178.1z M325.7,171.8h7.3v1.8h-5.6v4.4h5.4v1.8h-5.4v5.9h5.6v1.8h-7.3L325.7,171.8L325.7,171.8z"/>
</g>
</svg>
