<?xml version="1.0" encoding="utf-8"?>
<!-- Generator: Adobe Illustrator 24.1.0, SVG Export Plug-In . SVG Version: 6.00 Build 0)  -->
<svg version="1.1" id="Layer_1" xmlns="http://www.w3.org/2000/svg" xmlns:xlink="http://www.w3.org/1999/xlink" x="0px" y="0px"
	 viewBox="0 0 512 512" style="enable-background:new 0 0 512 512;" xml:space="preserve">
<style type="text/css">
	.st0{fill:#8FA1CC;}
</style>
<g id="Calque_2">
	<g id="Calque_1-2">
		<path id="path4603" class="st0" d="M102.7,200.6c7.5-4.6,14.5-10.2,20.6-16.4c5-5.1-17.2-2.8-22.5,1.8
			c-6.1,5.1-11.9,10.7-17.1,16.7C80.5,206.3,95.7,204.7,102.7,200.6z M509.5,316c3.9,2.4,3.8-10-4.2-14.9
			c-28.5-17.7-106.5,13.2-136.1,16.7c-5.5,0.7-7.6-0.8-6.2-4.5c2.5-7.3,12.4-20.6,14.4-25.2c2-4.6,1.6-19.4-20.6-19.4
			c-18.3,0-35,8.4-46.7,19.1c-11.2,9.6-32.9,28.4-46.2,28.4c-13.8,0,26.6-41.7,28.9-43.8c6-5.6-13-4.3-20.9,1.8
			c-3.2,2.4-16,16-23.9,29.3c-23,16-46,19.6-35.1,6.4c5.8-7.1,15.6-16.5,22.4-24c9.4-10.4,7.7-17.3-13.1-17.3
			c-27.8,0-30.7,2.4-46.5,20.8c-2.9,3.4-1.5,12,1.6,9c18.9-18.6,18.4-17.1,43.3-17.1c-4,4.3-11.2,8.5-23.3,23.9
			c-10.8,13.7-3.8,24.8,11.6,24.8c8.5,0,21.2-4,32.8-12.1c-1.4,7.3,1.5,12.3,12.4,12.3c12.6,0,27.1-7.5,39.1-15.9
			c-1.5,9,3.2,15.9,16.5,15.9c10.3,0,22.3-4,34.7-14.8c0,8.2,5.7,14.8,16.5,14.8C387.2,329.9,478,297,509.5,316z M316.8,318.1
			c-17.2,0,17.2-39.4,39.8-39.4C370.1,278.7,333.5,318.1,316.8,318.1L316.8,318.1z M303,257.2c9.6-6.1,18.5-13.1,26.7-21
			c5-5.1-17.2-2.8-22.5,1.8c-7.3,6.2-14.3,13-20.7,20.1c-3.2,3.6,9.7,3.2,16.7-0.9H303z M167.2,299.2c-6.7,6.6-21.5,17.7-34.5,17.7
			c-9.6,0,9.5-17.1,18.9-30.9c9-13.2,1.6-17.1-5.8-17.1c-18.4,0-36.3,12.9-48.5,22c3.6-4.9,9.4-11.3,15.5-19.3
			c3.4-4.5-16.9-2.9-22.1,3.9c-1.6,2.1-3.5,4.6-5.5,7.3c-17.6,21.1-44.2,35.3-57.2,35.3c-7.3,0-9.9-5-5.5-14.4
			c10.8-22.8,48.5-66.1,68.9-85.1c9.3-8.7-18.6-5.1-25,1.3c-28.2,28.5-56.7,60.2-64.7,85c-4.4,13.6-0.3,25.9,16.6,25.9
			c13.9,0,29.4-6.9,42.6-15.1l-8.5,11.6c-3.7,5,15.1,3.2,19-1.8c14.8-19,50.6-42.4,60.5-42.4c9,0-22.1,23.4-21.8,37.6
			c0.3,18.8,43.8,7.3,58.6-12C171.1,305.5,169.3,297.2,167.2,299.2z"/>
	</g>
</g>
</svg>
