<?xml version="1.0" encoding="utf-8"?>
<!-- Generator: Adobe Illustrator 24.1.2, SVG Export Plug-In . SVG Version: 6.00 Build 0)  -->
<svg version="1.1" id="Layer_1" xmlns="http://www.w3.org/2000/svg" xmlns:xlink="http://www.w3.org/1999/xlink" x="0px" y="0px"
	 viewBox="0 0 512 512" style="enable-background:new 0 0 512 512;" xml:space="preserve">
<style type="text/css">
	.st0{fill:#8FA1CC;}
</style>
<g>
	<g>
		<path class="st0" d="M22.2,350.3c0,7-4.8,11.3-11.1,11.3c-6.4,0-11.1-4.3-11.1-11.3V335h5.4v15.8c0,3.9,2.5,6,5.8,6
			c3.3,0,5.7-2,5.7-6V335h5.4V350.3z"/>
	</g>
	<g>
		<polygon class="st0" points="62.2,335 62.2,361.7 60.4,361.7 45.3,345.5 45.3,361.2 39.9,361.2 39.9,334.5 41.7,334.5 56.9,350.6 
			56.9,335 		"/>
		<rect x="80.1" y="335" class="st0" width="5.4" height="26.2"/>
		<polygon class="st0" points="126.1,335 114.4,361.7 112.6,361.7 100.9,335 107,335 113.5,350.9 120,335 		"/>
		<polygon class="st0" points="159.2,339.8 146.9,339.8 146.9,345.1 155.9,345.1 155.9,349.7 146.9,349.7 146.9,356.3 159.7,356.3 
			159.7,361.2 141.6,361.2 141.6,335 159.2,335 		"/>
	</g>
	<g>
		<path class="st0" d="M181.6,347.2h4.5c2.5,0,4-1.5,4-3.8c0-2.2-1.5-3.7-4-3.7h-4.5V347.2z M192.3,361.2l-6.8-9.2h-3.9v9.2h-5.4
			V335h9.8c5.5,0,9.4,3.3,9.4,8.5c0,3.4-1.8,6-4.6,7.4l7.4,10.3H192.3z"/>
		<path class="st0" d="M230.2,339.5l-3.7,2.8c-1.3-1.9-2.8-3-5-3c-1.8,0-3.3,0.8-3.3,2.5c0,1.5,1.2,2.1,3.1,3l3,1.3
			c4.1,1.8,6.5,3.9,6.5,7.7c0,4.9-4,7.9-9.2,7.9c-4.5,0-8.2-2.3-10.1-5.8l3.7-2.8c1.4,2,3.3,3.8,6.4,3.8c2.3,0,3.7-1.1,3.7-2.9
			c0-1.7-1.3-2.3-3.3-3.3l-2.8-1.3c-3.7-1.7-6.3-3.9-6.3-7.5c0-4.5,3.8-7.4,8.7-7.4C225.7,334.5,228.6,336.6,230.2,339.5"/>
	</g>
	<g>
		<rect x="247.4" y="335" class="st0" width="5.4" height="26.2"/>
		<polygon class="st0" points="290.4,339.8 282,339.8 282,361.2 276.6,361.2 276.6,339.8 268.2,339.8 268.2,335 290.4,335 		"/>
		<path class="st0" d="M321.7,326l-5.4,6.4h-3.9l2.8-7.4h6.5V326z M323.4,339.8h-12.3v5.3h9v4.6h-9v6.6h12.7v4.8h-18.1V335h17.6
			V339.8z"/>
	</g>
	<g>
		<path class="st0" d="M368.9,339.7v7.5h4.5c2.5,0,4-1.5,4-3.8c0-2.2-1.5-3.7-4-3.7H368.9z M382.8,343.4c0,5-3.9,8.5-9.4,8.5h-4.5
			v9.2h-5.3V335h9.8C378.9,335,382.8,338.3,382.8,343.4"/>
	</g>
	<g>
		<path class="st0" d="M405.9,344.5l-3.5,8.8h6.9L405.9,344.5z M411.3,357.8h-10.7l-1.5,3.4h-5.8l11.7-26.7h1.8l11.7,26.7h-5.8
			L411.3,357.8z"/>
	</g>
	<g>
		<path class="st0" d="M439.3,347.2h4.5c2.5,0,4-1.5,4-3.8c0-2.2-1.5-3.7-4-3.7h-4.5V347.2z M450,361.2l-6.8-9.2h-3.9v9.2h-5.4V335
			h9.8c5.5,0,9.4,3.3,9.4,8.5c0,3.4-1.8,6-4.6,7.4l7.4,10.3H450z"/>
	</g>
	<g>
		<rect x="471.3" y="335" class="st0" width="5.4" height="26.2"/>
	</g>
	<g>
		<path class="st0" d="M511.4,339.5l-3.7,2.8c-1.3-1.9-2.8-3-5-3c-1.7,0-3.2,0.8-3.2,2.5c0,1.5,1.2,2.1,3.1,3l3,1.3
			c4.1,1.8,6.5,3.9,6.5,7.7c0,4.9-4,7.9-9.2,7.9c-4.5,0-8.2-2.3-10.1-5.8l3.7-2.8c1.4,2,3.3,3.8,6.4,3.8c2.3,0,3.7-1.1,3.7-2.9
			c0-1.7-1.3-2.3-3.3-3.3l-2.8-1.3c-3.7-1.7-6.4-3.9-6.4-7.5c0-4.5,3.8-7.4,8.7-7.4C506.9,334.5,509.9,336.6,511.4,339.5"/>
	</g>
	<g>
		<polygon class="st0" points="360.2,153.3 431.2,224.4 431.5,224.1 360.4,153.1 		"/>
		<polygon class="st0" points="360.3,228.6 360.3,229 431.8,229 431.8,228.6 		"/>
	</g>
	<g>
		<path class="st0" d="M391.6,289.2c-1.3,4.2-1.9,8.6-1.9,13.2c0,0.6,0,1.2,0,1.8h0.8c0-0.6,0-1.2,0-1.8c0-4.4,0.6-8.7,1.8-12.7"/>
		<path class="st0" d="M479,289.8c1.2,4,1.8,8.3,1.8,12.7c0,0.6,0,1.2-0.1,1.8h0.8c0-0.6,0.1-1.2,0.1-1.8c0-4.5-0.6-8.8-1.8-12.8"/>
	</g>
	<g>
		<polygon class="st0" points="360.4,304.4 360.2,304.1 433.2,231.1 433.4,231.4 		"/>
		<polygon class="st0" points="510.7,303.9 443.6,236.8 443.9,236.5 511,303.7 		"/>
		<rect x="439.5" y="228.6" class="st0" width="71.8" height="0.4"/>
		<rect x="435.5" y="257.3" class="st0" width="0.4" height="47"/>
		<path class="st0" d="M359.8,304.8h152v-152h-152V304.8z M361.1,154.1h149.4v149.4H361.1V154.1z"/>
	</g>
	<g>
		<path class="st0" d="M435.7,304.1L435.7,304.1c-15.6,0-30.6-4.8-43.4-13.8c-16.4-11.6-27.3-28.9-30.8-48.7
			c-3.4-19.8,1.1-39.8,12.7-56.2c14.1-19.9,37.1-31.8,61.6-31.8c15.6,0,30.6,4.8,43.4,13.8c16.4,11.6,27.3,28.9,30.7,48.7
			c3.4,19.8-1.1,39.8-12.7,56.2C483.2,292.1,460.2,304.1,435.7,304.1 M435.9,154.8c-24,0-46.6,11.7-60.5,31.3
			c-11.4,16.1-15.8,35.7-12.5,55.2c3.3,19.5,14.1,36.5,30.2,47.9c12.6,8.9,27.3,13.6,42.6,13.6h0c24,0,46.6-11.7,60.5-31.3
			c11.4-16.1,15.9-35.8,12.5-55.2c-3.3-19.5-14.1-36.5-30.2-47.9C465.9,159.5,451.2,154.8,435.9,154.8"/>
		<path class="st0" d="M473.1,192.1c11.5,0,21.7,5.3,28.4,13.5h1c-6.9-8.7-17.5-14.3-29.4-14.3c-8.7,0-16.8,3-23.1,8l0.2,0.8
			C456.5,195.1,464.5,192.1,473.1,192.1"/>
		<path class="st0" d="M471.8,266.2c0.5,0,0.9,0,1.4,0c20.6,0,37.5-16.8,37.5-37.4c0-7.9-2.5-15.3-6.7-21.4l-0.6,0.5
			c4.1,5.9,6.6,13.1,6.6,20.9c0,20.2-16.5,36.7-36.7,36.7c-0.5,0-1.1,0-1.6,0"/>
		<path class="st0" d="M506.3,205.7h-3.7c0.4,0.6,0.9,1.2,1.3,1.8L506.3,205.7z"/>
		<path class="st0" d="M503.2,207.9l0.6-0.5c-0.4-0.6-0.8-1.2-1.3-1.8h-1C502.2,206.4,502.7,207.1,503.2,207.9"/>
		<path class="st0" d="M471.7,266.2c-0.1-0.2-0.2-0.5-0.2-0.7L471.7,266.2z"/>
		<path class="st0" d="M477.9,284.5l-6.1-18.3c-3.7-0.1-7.3-0.8-10.7-2C468.5,269.2,474.3,276.2,477.9,284.5"/>
		<path class="st0" d="M452,205.7l-1.7-5.5c-8.4,6.7-13.8,17.1-13.8,28.6c0,19.7,15.6,35.8,35.1,36.6l-9.3-27.8l41-29.8
			c-0.5-0.8-1.1-1.5-1.7-2.2H452z"/>
		<path class="st0" d="M435.6,256.5c5.6,0,11,1,16,2.9c-9.6-6.8-15.9-18-15.9-30.6c0-11.9,5.6-22.5,14.3-29.4l-14.2-45.1l-16.5,51.4
			h-53.7l43.4,31.8l-15.7,46.9C400.4,268,416.6,256.5,435.6,256.5"/>
		<path class="st0" d="M479.3,288.7l-0.5,0.4c-5.7-18.4-22.9-31.8-43.1-31.8c-20.2,0-37.3,13.2-43.1,31.5l-0.5-0.4l-0.4,1.1
			l44.1-32.2l43.9,32.5L479.3,288.7z"/>
		<path class="st0" d="M391.9,288.3l0.2,0.1l1.3-4C392.8,285.6,392.3,286.9,391.9,288.3"/>
		<path class="st0" d="M479.4,288.6c-0.4-1.4-1-2.8-1.5-4.1l1.4,4.2L479.4,288.6z"/>
	</g>
	<g>
		
			<rect x="426.9" y="187.9" transform="matrix(0.7071 -0.7071 0.7071 0.7071 6.5081 391.9877)" class="st0" width="99.1" height="0.4"/>
	</g>
	<g>
		<path class="st0" d="M100,196.8c0,25.8-18.2,44.4-47.4,44.4H18v63.5H0.4V152.9h52.1C81.8,152.9,100,171.3,100,196.8 M18,169v56.2
			h34.2c19.6,0,29.7-11.7,29.7-28.1c0-16.1-10.1-28.1-29.7-28.1H18z"/>
		<path class="st0" d="M212.4,176.1l-12.8,9.9c-7.9-12.2-20.5-19.1-34-19.1c-13.7,0-26.3,7.1-26.3,22.1c0,13.8,10.3,18.9,23.8,25.5
			l16.4,8.1c21.6,10.6,34.6,21.9,34.6,42.4c0,25.5-20.4,42.3-47.9,42.3c-23.6,0-43.2-12.7-54.6-32.7l13-9.9c9,14,22.2,26,41.4,26
			c17.5,0,29.9-9.9,29.9-25.3c0-14-10.1-19.6-24.8-26.7l-16.6-8.1c-17.3-8.5-33.5-19.3-33.5-40.7c0-24.2,20.7-39.6,44.7-39.6
			C186.1,150.3,203.2,161.2,212.4,176.1"/>
	</g>
	<g>
		<polygon class="st0" points="245.3,152.9 245.3,304.8 333.2,304.8 333.2,288.7 262.8,288.7 262.8,152.9 		"/>
	</g>
</g>
</svg>
