<?xml version="1.0" encoding="utf-8"?>
<!-- Generator: Adobe Illustrator 24.1.0, SVG Export Plug-In . SVG Version: 6.00 Build 0)  -->
<svg version="1.1" id="Layer_1" xmlns="http://www.w3.org/2000/svg" xmlns:xlink="http://www.w3.org/1999/xlink" x="0px" y="0px"
	 viewBox="0 0 512 512" style="enable-background:new 0 0 512 512;" xml:space="preserve">
<style type="text/css">
	.st0{fill:#8FA1CC;}
</style>
<path class="st0" d="M430,76.2c-64.8-46.6-127.1-72-185.3-75.6c-4.6-0.3-9.2-0.4-13.7-0.4C167.7,0.1,110.3,27.1,60.3,80.6
	C14.8,129.2-0.5,168.3-0.4,215.5c0.1,25.3,4.6,52.9,11.2,85.5c12.5,61.3,48.9,120.5,99.9,162.4c39,32.1,82.6,48.5,128.4,48.8
	c23.8,0.2,48.2-4,72.9-12.5c79.9-27.6,156.3-106.5,185.8-191.9c9.3-27,13.9-53.4,13.8-78.4C511.4,168.2,483.4,114.5,430,76.2z
	 M107.1,290.8c26.7,0,28.8-29.9,28.9-33.3l0-0.5h17.6c1.6,0,3.2,0.7,4.4,2c1.1,1.2,1.6,2.7,1.5,4.3c-0.7,11.6-6.4,49.3-52.6,49.3
	c-38.8,0-59.3-29.6-59.3-85.5c0-55.8,20.5-85.3,59.3-85.3c48,0,52.3,41.3,52.6,49.6c0.1,1.5-0.5,2.9-1.6,4.1
	c-1.1,1.2-2.7,1.8-4.3,1.8H136l0-0.5c-0.1-1.4-1.7-33.3-28.9-33.3c-23.9,0-36,21.4-36,63.6C71.1,269.4,83.2,290.8,107.1,290.8z
	 M270.7,312.5h-15.8v-121c0-15.9-12.9-28.8-28.8-28.8c-15.9,0-28.8,12.9-28.8,28.8v120.9h-15.9c-3.9,0-6.5-2.3-6.5-6.6V152.1
	c0-3.6,1.8-6.7,6.6-6.7h15.9v9.1c8.5-7.7,19.8-12.5,32.2-12.5c26.3,0,47.7,22.3,47.7,48.7c0,0.2,0,115.3,0,115.3
	C277.3,310.1,275.1,312.5,270.7,312.5z M347.6,162.4c-15.9,0-28.8,12.9-28.8,28.8v120.9h-15.9c-3.9,0-6.6-2.3-6.6-6.6V151.8
	c0-3.6,1.8-6.7,6.6-6.7h15.9v9.1c8.5-7.7,19.8-12.5,32.2-12.5c5.1,0,10,0.8,14.6,2.4c2.4,0.8,4.1,3,4.1,5.7c0,1.4-0.5,2.7-1.3,3.7
	l0,0l-9.2,11.5C355.7,163.4,351.7,162.4,347.6,162.4z M410.6,312.5c-12.2,0-29.2-3.1-40.7-18c-4.2-5.4-4.2-8.7,0.2-12.5l8.4-7.4
	l0.5,0.6c12.8,14.5,23.2,16.5,32.5,16.5c10.9,0,29.3-5.4,29.3-25.8c0-14.9-7.4-20.9-22.9-27.8l-15.4-6.9
	c-17.5-7.8-33.7-18.6-33.7-44.3c0-26.2,21.1-45.1,50.2-45.1c15.1,0,27.7,5.1,35.6,14.4c1.9,2.5,3.3,6.4-1.4,10.8l-8.1,7.4l-0.5-0.5
	c-9.4-9.5-17.1-11.5-26.4-11.5c-15.8,0-26.5,9.8-26.5,24.3c0,11.2,5.1,17.4,19.7,23.8l15.1,6.6c22.4,9.6,37.2,21.5,37.2,48.3
	C463.7,296.3,437,312.5,410.6,312.5z"/>
</svg>
