<?xml version="1.0" encoding="utf-8"?>
<!-- Generator: Adobe Illustrator 24.1.0, SVG Export Plug-In . SVG Version: 6.00 Build 0)  -->
<svg version="1.1" id="Layer_1" xmlns="http://www.w3.org/2000/svg" xmlns:xlink="http://www.w3.org/1999/xlink" x="0px" y="0px"
	 viewBox="0 0 512 512" style="enable-background:new 0 0 512 512;" xml:space="preserve">
<style type="text/css">
	.st0{fill:#8FA1CC;}
</style>
<g>
	<path class="st0" d="M410.5,440.1l-11.7,11.7l22.4,22.4l55.4-55.4l-11.7-11.7l-43.7,43.7L410.5,440.1z"/>
	<path class="st0" d="M101.5,43.7L57.8,87.4L47.1,76.7L35.5,88.4l22.4,22.4l55.4-55.4L101.5,43.7z"/>
	<path class="st0" d="M256,156.9c-36.4,0-66.1,29.6-66.1,66.1S219.6,289,256,289s66.1-29.6,66.1-66.1S292.4,156.9,256,156.9z
		 M256,272.5c-27.3,0-49.5-22.2-49.5-49.5s22.2-49.5,49.5-49.5s49.5,22.2,49.5,49.5S283.3,272.5,256,272.5z"/>
	<path class="st0" d="M256,189.9c-18.2,0-33,14.8-33,33s14.8,33,33,33c18.2,0,33-14.8,33-33S274.2,189.9,256,189.9z M256,239.5
		c-9.1,0-16.5-7.4-16.5-16.5c0-9.1,7.4-16.5,16.5-16.5c9.1,0,16.5,7.4,16.5,16.5C272.5,232.1,265.1,239.5,256,239.5z"/>
	<path class="st0" d="M346.7,183.1l6.9-14.4l-43.3-43.3l-14.4,6.9c-1.3-0.6-2.6-1.1-3.9-1.6l-5.3-15.1h-61.2l-5.3,15.1
		c-1.3,0.5-2.6,1-3.9,1.6l-14.4-6.9l-43.3,43.3l6.9,14.4c-0.6,1.3-1.1,2.6-1.6,3.9l-15.1,5.3v61.2l15.1,5.3c0.5,1.3,1,2.6,1.6,3.9
		l-6.9,14.4l43.3,43.3l14.4-6.9c1.3,0.6,2.6,1.1,3.9,1.6l5.3,15.1h61.2l5.3-15.1c1.3-0.5,2.6-1,3.9-1.6l14.4,6.9l43.3-43.3
		l-6.9-14.4c0.6-1.3,1.1-2.6,1.6-3.9l15.1-5.3v-61.2l-15.1-5.3C347.8,185.7,347.2,184.4,346.7,183.1L346.7,183.1z M346.8,241.9
		l-11.5,4.1l-1.3,3.8c-1.1,3.1-2.4,6.3-3.9,9.5l-1.8,3.6l5.3,11l-26.8,26.8l-11-5.3l-3.6,1.8c-3.1,1.5-6.3,2.9-9.5,3.9l-3.8,1.3
		l-4,11.5h-37.9l-4.1-11.5l-3.8-1.3c-3.2-1.1-6.3-2.4-9.5-3.9l-3.6-1.8l-11,5.3l-26.8-26.8l5.3-11l-1.8-3.6
		c-1.5-3.1-2.9-6.3-3.9-9.5l-1.3-3.8l-11.5-4.1V204l11.5-4.1l1.3-3.8c1.1-3.1,2.4-6.3,3.9-9.5l1.8-3.6l-5.3-11l26.8-26.8l11,5.3
		l3.6-1.8c3.1-1.5,6.3-2.8,9.5-3.9l3.8-1.3l4-11.5h37.9l4.1,11.5l3.8,1.3c3.2,1.1,6.4,2.4,9.5,3.9l3.6,1.8l11-5.3l26.8,26.8l-5.3,11
		l1.8,3.6c1.5,3.1,2.9,6.3,3.9,9.5l1.3,3.8l11.5,4.1L346.8,241.9z"/>
	<path class="st0" d="M33,429.4h99.1v16.5H33V429.4z"/>
	<path class="st0" d="M115.6,462.5h16.5V479h-16.5V462.5z"/>
	<path class="st0" d="M33,462.5h66.1V479H33V462.5z"/>
	<path class="st0" d="M408.1,115.6h13.1H512V0h-49.5v16.5h-33V33h-33v70.9l-25.3,25.3c-4.9-6-10.2-11.8-16-17.1
		c-31.9-28.6-73.1-41.7-116.1-36.9c-67.3,7.5-122.2,61.8-130.4,129c-0.4,3.5-0.7,7-0.9,10.4H90.8c-4.6,0-8.3-3.7-8.3-8.3v-58.3
		c37.1-4.1,66.1-35.7,66.1-73.8c0-41-33.3-74.3-74.3-74.3S0,33.3,0,74.3c0,38.2,29,69.7,66.1,73.8v58.3c0,13.7,11.1,24.8,24.8,24.8
		h16.8c0.9,17.3,4.8,34,11.4,49.5H82.6c-13.7,0-24.8,11.1-24.8,24.8v90.8h-33C11.1,396.4,0,407.5,0,421.2v66.1
		C0,500.9,11.1,512,24.8,512h115.6c13.7,0,24.8-11.1,24.8-24.8v-66.1c0-13.7-11.1-24.8-24.8-24.8v-14.6c0-10.2-8.3-18.5-18.5-18.5
		c-7,0-13.4,3.9-16.5,10.2L94,396.4H74.3v-90.8c0-4.6,3.7-8.3,8.3-8.3h44.6c12.1,21.1,29.5,39.2,51.2,52.4
		c-7.8,4.2-13.2,12.4-13.2,21.9c0,11.4,7.8,21,18.3,23.8c-1.1,2.9-1.8,6-1.8,9.2c0,11.4,7.8,21,18.3,23.8c-1.1,2.9-1.8,6-1.8,9.2
		c0,10.8,6.9,19.8,16.5,23.3v9.8c0,22.8,18.5,41.3,41.3,41.3s41.3-18.5,41.3-41.3v-9.8c9.6-3.4,16.5-12.5,16.5-23.3
		c0-3.3-0.7-6.4-1.8-9.2c10.5-2.9,18.3-12.4,18.3-23.8c0-3.3-0.7-6.4-1.8-9.2c10.5-2.9,18.3-12.4,18.3-23.8
		c0-9.5-5.4-17.7-13.2-21.9c41.7-25.5,68.1-69.7,70.7-118.5h16.8c4.6,0,8.3,3.7,8.3,8.3v124.4c-37.1,4.1-66.1,35.6-66.1,73.8
		c0,41,33.3,74.3,74.3,74.3s74.3-33.3,74.3-74.3c0-38.2-29-69.7-66.1-73.8V239.5c0-13.7-11.1-24.8-24.8-24.8h-17
		c-1.4-25.8-9.5-50.5-23.3-71.9L408.1,115.6z M479,16.5h16.5v82.6H479V16.5z M462.5,33v66.1h-16.5V33H462.5z M412.9,49.5h16.5v49.5
		h-8.3h-8.3V49.5z M16.5,74.3c0-31.9,25.9-57.8,57.8-57.8s57.8,25.9,57.8,57.8s-25.9,57.8-57.8,57.8S16.5,106.2,16.5,74.3z
		 M104.2,412.9l16-31.9c0.8-1.6,3.7-0.9,3.7,0.9v31.1h16.5c4.6,0,8.3,3.7,8.3,8.3v66.1c0,4.6-3.7,8.3-8.3,8.3H24.8
		c-4.6,0-8.3-3.7-8.3-8.3v-66.1c0-4.6,3.7-8.3,8.3-8.3H104.2z M495.5,437.7c0,31.9-25.9,57.8-57.8,57.8s-57.8-25.9-57.8-57.8
		s25.9-57.8,57.8-57.8S495.5,405.8,495.5,437.7z M256,495.5c-13.7,0-24.8-11.1-24.8-24.8v-8.3h49.5v8.3
		C280.8,484.4,269.7,495.5,256,495.5z M289,445.9H223c-4.6,0-8.3-3.7-8.3-8.3s3.7-8.3,8.3-8.3H289c4.6,0,8.3,3.7,8.3,8.3
		S293.6,445.9,289,445.9z M305.5,412.9H289H223h-16.5c-4.6,0-8.3-3.7-8.3-8.3c0-4.6,3.7-8.3,8.3-8.3h99.1c4.6,0,8.3,3.7,8.3,8.3
		C313.8,409.2,310.1,412.9,305.5,412.9z M318.2,339.5l-4.4,2.3v21.5h8.3c4.6,0,8.3,3.7,8.3,8.3c0,4.6-3.7,8.3-8.3,8.3h-16.5h-99.1
		h-16.5c-4.6,0-8.3-3.7-8.3-8.3c0-4.6,3.7-8.3,8.3-8.3h8.3v-21.5l-4.4-2.3c-48.6-26-75.7-78.3-68.9-133.2
		c7.3-59.7,56-107.9,115.9-114.6c38.3-4.2,74.9,7.4,103.3,32.8c28,25.1,44.1,61,44.1,98.5C388.1,271.8,361.3,316.5,318.2,339.5
		L318.2,339.5z"/>
</g>
</svg>
