<?xml version="1.0" encoding="utf-8"?>
<!-- Generator: Adobe Illustrator 24.1.0, SVG Export Plug-In . SVG Version: 6.00 Build 0)  -->
<svg version="1.1" id="Layer_1" xmlns="http://www.w3.org/2000/svg" xmlns:xlink="http://www.w3.org/1999/xlink" x="0px" y="0px"
	 viewBox="0 0 512 512" style="enable-background:new 0 0 512 512;" xml:space="preserve">
<style type="text/css">
	.st0{fill:#8FA1CC;}
	.st1{fill:none;stroke:#333740;stroke-width:5.0653;stroke-miterlimit:10;}
</style>
<g>
	<g>
		<g>
			<rect x="241.5" y="318.1" class="st0" width="22.6" height="117.8"/>
			
				<rect x="241.5" y="318.1" transform="matrix(6.123234e-17 -1 1 6.123234e-17 -124.1007 629.7687)" class="st0" width="22.6" height="117.8"/>
		</g>
		<g>
			<rect x="416.7" y="157.2" class="st0" width="29.5" height="153.2"/>
			
				<rect x="416.7" y="157.2" transform="matrix(6.123234e-17 -1 1 6.123234e-17 197.5478 665.226)" class="st0" width="29.5" height="153.2"/>
		</g>
		<g>
			<rect x="90.2" y="68.6" class="st0" width="31.4" height="163.4"/>
			
				<rect x="90.2" y="68.6" transform="matrix(6.123234e-17 -1 1 6.123234e-17 -44.3218 256.2006)" class="st0" width="31.4" height="163.4"/>
		</g>
	</g>
	<g>
		<polygon class="st1" points="243.9,325.6 221.2,325.6 221.2,373.2 173.7,373.2 173.7,395.9 221.2,395.9 221.2,443.4 243.9,443.4 
			243.9,395.9 291.5,395.9 291.5,373.2 243.9,373.2 		"/>
		<polygon class="st1" points="487.7,226.7 425.9,226.7 425.9,164.8 396.4,164.8 396.4,226.7 334.5,226.7 334.5,256.2 396.4,256.2 
			396.4,318.1 425.9,318.1 425.9,256.2 487.7,256.2 		"/>
		<polygon class="st1" points="101.4,76.2 70,76.2 70,142.2 4,142.2 4,173.6 70,173.6 70,239.5 101.4,239.5 101.4,173.6 
			167.4,173.6 167.4,142.2 101.4,142.2 		"/>
	</g>
</g>
</svg>
