<?xml version="1.0" encoding="utf-8"?>
<!-- Generator: Adobe Illustrator 24.1.0, SVG Export Plug-In . SVG Version: 6.00 Build 0)  -->
<svg version="1.1" id="Layer_1" xmlns="http://www.w3.org/2000/svg" xmlns:xlink="http://www.w3.org/1999/xlink" x="0px" y="0px"
	 viewBox="0 0 512 512" style="enable-background:new 0 0 512 512;" xml:space="preserve">
<style type="text/css">
	.st0{fill:#8FA1CC;}
</style>
<g>
	<path class="st0" d="M32.4,304H13.1v-48.1H0v-15.7h13.1v-11.1c0-13.2,5.8-22.7,25.1-22.7c4.1,0,10.5,0.8,10.5,0.8v14.5h-6.7
		c-6.8,0-9.5,2.1-9.5,7.8v10.6h16L47,255.9H32.4L32.4,304z M76.7,239c-0.3,0-0.6,0-0.9,0c-17.9,0-26.1,13.5-26.1,32.6
		c0,24.1,10.6,33.7,26.2,33.7c8.9,0,14.8-3.8,18.4-10.8v9.5h18.4v-63.8H94.3v9.8C91.4,243.8,85.4,239.1,76.7,239z M81.4,254.1
		c7.5,0,12,5.2,12,14.2l0,9.1c0,6-3.7,13-12,13c-12.8,0-12.4-13.8-12.4-18.4C68.9,256.5,75.7,254.1,81.4,254.1L81.4,254.1z
		 M120.1,272.2c0-7.7-0.4-33.1,32.7-33.1c13.3,0,18.8,4.2,18.8,4.2l-4.4,13.8c0,0-5.5-3-12.7-3c-9.2,0-15.1,5.3-15.1,14.8l0,6.7
		c0,9,5.7,15.1,15.1,15.1c6.6,0,12.6-3.1,12.6-3.1l4.4,13.5c0,0-5.1,4.2-18.6,4.2C121.4,305.3,120.1,282.6,120.1,272.2L120.1,272.2z
		 M279.1,239c17.9,0,26.2,13.5,26.2,32.6c0,24.1-10.6,33.7-26.2,33.7c-8.9,0-15.5-3.8-19.1-10.8v9.5l-18.1,0v-95.6l19.2-1.7v42.5
		C263.9,241.8,273.1,239,279.1,239L279.1,239z M273.7,254.1c-7.5,0-12.6,5.2-12.6,14.2l0,9.1c0,6,3.5,13,12.6,13
		c12.8,0,12.4-13.8,12.4-18.4C286.2,256.5,279.4,254.1,273.7,254.1L273.7,254.1z M204.9,239.1c-20.3,0-31,11.1-31,30.7v3.7
		c0,25.5,15,32.1,33,32.1c17.4,0,25.3-4.9,25.3-4.9l-3.6-13c0,0-9.3,3.9-19.4,3.9c-10.5,0-15-2.7-16.2-12.8h40.7v-10.4
		C233.8,247.1,221.7,239.1,204.9,239.1L204.9,239.1z M205.4,252.1c7,0,11.6,4.3,11.3,14.3h-23.7
		C193.5,255.9,198.4,252.1,205.4,252.1L205.4,252.1z M343.7,239c-20.8,0-31.8,11.7-31.8,32.8c0,28.9,18.9,33.5,31.8,33.5
		c18.9,0,31.5-10.2,31.5-33.3C375.3,248,361.1,239,343.7,239L343.7,239z M343.4,254.1c9.2,0,12.8,6.9,12.8,14.7v6.7
		c0,9.5-5.1,14.9-12.8,14.9c-7.2,0-12.3-5.1-12.3-14.9v-6.7C331.1,258.3,337.1,254.1,343.4,254.1z M413.6,239
		c-20.8,0-31.8,11.7-31.8,32.8c0,28.9,18.9,33.5,31.8,33.5c18.9,0,31.5-10.2,31.5-33.3C445.2,248,431,239,413.6,239L413.6,239z
		 M413.3,254.1c9.2,0,12.8,6.9,12.8,14.7v6.7c0,9.5-5.1,14.9-12.8,14.9c-7.2,0-12.3-5.1-12.3-14.9v-6.7
		C401,258.3,407,254.1,413.3,254.1z M452.4,304v-95.6l19.3-1.7v64.1l19.1-30.5h20.4l-20,31.6L512,304h-20.4l-19.9-31.2V304H452.4z"
		/>
</g>
</svg>
