<?xml version="1.0" encoding="utf-8"?>
<!-- Generator: Adobe Illustrator 24.1.0, SVG Export Plug-In . SVG Version: 6.00 Build 0)  -->
<svg version="1.1" id="Layer_1" xmlns="http://www.w3.org/2000/svg" xmlns:xlink="http://www.w3.org/1999/xlink" x="0px" y="0px"
	 viewBox="0 0 512 512" style="enable-background:new 0 0 512 512;" xml:space="preserve">
<style type="text/css">
	.st0{fill:none;stroke:#8FA1CC;stroke-width:9;stroke-linecap:round;stroke-linejoin:round;stroke-miterlimit:10;}
</style>
<path class="st0" d="M356.3,494.9c87.8-38.6,149.1-126.3,149.1-228.4c0-137.7-111.7-249.4-249.4-249.4S6.6,128.8,6.6,266.5
	c0,102,61.3,189.7,149.1,228.4"/>
<path class="st0" d="M58.5,278.9c4.6,75.1,51.2,138.9,116.6,168.2l39.3-139.8c-30.9-15.3-52.2-47.2-52.2-84.1
	c0-51.8,42-93.8,93.8-93.8s93.8,42,93.8,93.8c0,36.8-21.3,68.7-52.2,84.1l39.3,139.8c68.9-30.9,116.9-100.2,116.9-180.6
	c0-54.2-21.8-103.3-57.1-139.1C360.9,91.2,311.1,68.7,256,68.7c-60.4,0-114.4,27-150.7,69.7"/>
<path class="st0" d="M67.8,205.3c-0.2,0.6-0.4,1.3-0.6,1.9c-0.2,0.6-0.4,1.1-0.5,1.7"/>
</svg>
