<?xml version="1.0" encoding="utf-8"?>
<!-- Generator: Adobe Illustrator 24.1.0, SVG Export Plug-In . SVG Version: 6.00 Build 0)  -->
<svg version="1.1" id="Layer_1" xmlns="http://www.w3.org/2000/svg" xmlns:xlink="http://www.w3.org/1999/xlink" x="0px" y="0px"
	 viewBox="0 0 512 512" style="enable-background:new 0 0 512 512;" xml:space="preserve">
<style type="text/css">
	.st0{fill:none;stroke:#0B4E9C;stroke-width:8.7889;stroke-linecap:round;stroke-linejoin:round;stroke-miterlimit:10;}
</style>
<g>
	<g>
		<g id="_x30_1">
			<g id="XMLID_10_">
				<g>
					<path class="st0" d="M16.5,105.5h-1.9c-5,0-9-4-9-9V79.2c0-5,4-9,9-9h1.9c5,0,9,4,9,9v17.3C25.5,101.5,21.5,105.5,16.5,105.5z"
						/>
				</g>
			</g>
			<g>
				<g>
					<line class="st0" x1="45.4" y1="70" x2="45.4" y2="105.5"/>
				</g>
			</g>
			<g>
				<g>
					<line class="st0" x1="65.4" y1="70" x2="65.4" y2="105.5"/>
				</g>
			</g>
			<g>
				<g>
					<line class="st0" x1="85.3" y1="70" x2="85.3" y2="105.5"/>
				</g>
			</g>
			<g id="XMLID_11_">
				<g>
					<path class="st0" d="M116.1,105.5h-1.9c-5,0-9-4-9-9V79.2c0-5,4-9,9-9h1.9c5,0,9,4,9,9v17.3
						C125.1,101.5,121.1,105.5,116.1,105.5z"/>
				</g>
			</g>
			<g id="XMLID_12_">
				<g>
					<path class="st0" d="M155.9,105.5H154c-5,0-9-4-9-9V79.2c0-5,4-9,9-9h1.9c5,0,9,4,9,9v17.3
						C164.9,101.5,160.9,105.5,155.9,105.5z"/>
				</g>
			</g>
			<g id="XMLID_13_">
				<g>
					<path class="st0" d="M195.7,105.5h-1.9c-5,0-9-4-9-9V79.2c0-5,4-9,9-9h1.9c5,0,9,4,9,9v17.3
						C204.8,101.5,200.7,105.5,195.7,105.5z"/>
				</g>
			</g>
			<g id="XMLID_14_">
				<g>
					<path class="st0" d="M224.7,96.5V79.2c0-5,4-9,9-9h1.9c5,0,9,4,9,9v15"/>
				</g>
			</g>
			<g id="XMLID_19_">
				<g>
					<path class="st0" d="M16.5,161.3h-1.9c-5,0-9-4-9-9v-17.3c0-5,4-9,9-9h1.9c5,0,9,4,9,9v17.3C25.5,157.2,21.5,161.3,16.5,161.3z
						"/>
				</g>
			</g>
			<g>
				<g>
					<line class="st0" x1="45.4" y1="125.8" x2="45.4" y2="161.3"/>
				</g>
			</g>
			<g>
				<g>
					<line class="st0" x1="65.4" y1="125.8" x2="65.4" y2="161.3"/>
				</g>
			</g>
			<g>
				<g>
					<line class="st0" x1="85.3" y1="125.8" x2="85.3" y2="161.3"/>
				</g>
			</g>
			<g id="XMLID_18_">
				<g>
					<path class="st0" d="M116.1,161.3h-1.9c-5,0-9-4-9-9v-17.3c0-5,4-9,9-9h1.9c5,0,9,4,9,9v17.3
						C125.1,157.2,121.1,161.3,116.1,161.3z"/>
				</g>
			</g>
			<g id="XMLID_17_">
				<g>
					<path class="st0" d="M155.9,161.3H154c-5,0-9-4-9-9v-17.3c0-5,4-9,9-9h1.9c5,0,9,4,9,9v17.3
						C164.9,157.2,160.9,161.3,155.9,161.3z"/>
				</g>
			</g>
			<g id="XMLID_15_">
				<g>
					<path class="st0" d="M224.7,142v10.2c0,5-4,9-9,9h-1.9c-2,0-3.8-0.6-5.3-1.7"/>
				</g>
			</g>
			<g>
				<g>
					<line class="st0" x1="184.8" y1="125.8" x2="184.8" y2="127.6"/>
				</g>
			</g>
			<g>
				<g>
					<line class="st0" x1="244.6" y1="133.3" x2="244.6" y2="161.3"/>
				</g>
			</g>
			<g id="XMLID_22_">
				<g>
					<path class="st0" d="M16.5,217.7h-1.9c-5,0-9-4-9-9v-17.3c0-5,4-9,9-9h1.9c5,0,9,4,9,9v17.3C25.5,213.7,21.5,217.7,16.5,217.7z
						"/>
				</g>
			</g>
			<g>
				<g>
					<line class="st0" x1="45.4" y1="182.2" x2="45.4" y2="217.7"/>
				</g>
			</g>
			<g>
				<g>
					<line class="st0" x1="65.4" y1="182.2" x2="65.4" y2="217.7"/>
				</g>
			</g>
			<g>
				<g>
					<line class="st0" x1="125.1" y1="182.2" x2="125.1" y2="217.7"/>
				</g>
			</g>
			<g id="XMLID_21_">
				<g>
					<path class="st0" d="M96.2,217.7h-1.9c-5,0-9-4-9-9v-17.3c0-5,4-9,9-9h1.9c5,0,9,4,9,9v17.3
						C105.2,213.7,101.1,217.7,96.2,217.7z"/>
				</g>
			</g>
			<g id="XMLID_20_">
				<g>
					<path class="st0" d="M160.1,216.6c-1.3,0.7-2.7,1-4.2,1H154c-5,0-9-4-9-9v-17.3c0-5,4-9,9-9h1.9c0.9,0,1.8,0.1,2.7,0.4"/>
				</g>
			</g>
			<g id="XMLID_16_">
				<g>
					<path class="st0" d="M200.9,184c2.3,1.6,3.8,4.3,3.8,7.4v17.3c0,2.5-1,4.7-2.6,6.4"/>
				</g>
			</g>
			<g>
				<g>
					<line class="st0" x1="224.7" y1="182.2" x2="224.7" y2="217.7"/>
				</g>
			</g>
			<g id="XMLID_32_">
				<g>
					<path class="st0" d="M16.5,273.5h-1.9c-5,0-9-4-9-9v-17.3c0-5,4-9,9-9h1.9c5,0,9,4,9,9v17.3C25.5,269.4,21.5,273.5,16.5,273.5z
						"/>
				</g>
			</g>
			<g>
				<g>
					<line class="st0" x1="45.4" y1="238" x2="45.4" y2="273.5"/>
				</g>
			</g>
			<g>
				<g>
					<line class="st0" x1="65.4" y1="238" x2="65.4" y2="273.5"/>
				</g>
			</g>
			<g>
				<g>
					<line class="st0" x1="85.3" y1="238" x2="85.3" y2="273.5"/>
				</g>
			</g>
			<g id="XMLID_31_">
				<g>
					<path class="st0" d="M116.1,273.5h-1.9c-5,0-9-4-9-9v-17.3c0-5,4-9,9-9h1.9c5,0,9,4,9,9v17.3
						C125.1,269.4,121.1,273.5,116.1,273.5z"/>
				</g>
			</g>
			<g id="XMLID_28_">
				<g>
					<path class="st0" d="M16.5,329.9h-1.9c-5,0-9-4-9-9v-17.3c0-5,4-9,9-9h1.9c5,0,9,4,9,9v17.3C25.5,325.8,21.5,329.9,16.5,329.9z
						"/>
				</g>
			</g>
			<g>
				<g>
					<line class="st0" x1="45.4" y1="294.4" x2="45.4" y2="329.9"/>
				</g>
			</g>
			<g>
				<g>
					<line class="st0" x1="65.4" y1="294.4" x2="65.4" y2="329.9"/>
				</g>
			</g>
			<g id="XMLID_27_">
				<g>
					<path class="st0" d="M96.2,329.9h-1.9c-5,0-9-4-9-9v-17.3c0-5,4-9,9-9h1.9c5,0,9,4,9,9v17.3
						C105.2,325.8,101.1,329.9,96.2,329.9z"/>
				</g>
			</g>
			<g id="XMLID_26_">
				<g>
					<path class="st0" d="M136,329.9h-1.9c-5,0-9-4-9-9v-17.3c0-5,4-9,9-9h1.9"/>
				</g>
			</g>
			<g id="XMLID_38_">
				<g>
					<path class="st0" d="M16.5,442.1h-1.9c-5,0-9-4-9-9v-17.3c0-5,4-9,9-9h1.9c5,0,9,4,9,9v17.3C25.5,438,21.5,442.1,16.5,442.1z"
						/>
				</g>
			</g>
			<g>
				<g>
					<line class="st0" x1="45.4" y1="406.6" x2="45.4" y2="442.1"/>
				</g>
			</g>
			<g>
				<g>
					<line class="st0" x1="65.4" y1="406.6" x2="65.4" y2="442.1"/>
				</g>
			</g>
			<g id="XMLID_36_">
				<g>
					<path class="st0" d="M136,442.1h-1.9c-5,0-9-4-9-9v-17.3c0-5,4-9,9-9h1.9c5,0,9,4,9,9v17.3C145,438,141,442.1,136,442.1z"/>
				</g>
			</g>
			<g id="XMLID_35_">
				<g>
					<path class="st0" d="M184.8,419.4v13.7c0,5-4,9-9,9H174c-5,0-9-4-9-9v-13.5"/>
				</g>
			</g>
			<g>
				<g>
					<path class="st0" d="M204.8,442.1"/>
				</g>
			</g>
			<g id="XMLID_46_">
				<g>
					<path class="st0" d="M16.5,385.6h-1.9c-5,0-9-4-9-9v-17.3c0-5,4-9,9-9h1.9c5,0,9,4,9,9v17.3C25.5,381.6,21.5,385.6,16.5,385.6z
						"/>
				</g>
			</g>
			<g>
				<g>
					<line class="st0" x1="45.4" y1="350.1" x2="45.4" y2="385.7"/>
				</g>
			</g>
			<g>
				<g>
					<line class="st0" x1="65.4" y1="350.1" x2="65.4" y2="385.7"/>
				</g>
			</g>
			<g id="XMLID_45_">
				<g>
					<path class="st0" d="M96.2,385.6h-1.9c-5,0-9-4-9-9v-17.3c0-5,4-9,9-9h1.9c5,0,9,4,9,9v17.3
						C105.2,381.6,101.1,385.6,96.2,385.6z"/>
				</g>
			</g>
			<g id="XMLID_44_">
				<g>
					<path class="st0" d="M136,385.6h-1.9c-5,0-9-4-9-9v-17.3c0-5,4-9,9-9h1.9"/>
				</g>
			</g>
			<g>
				<g>
					<line class="st0" x1="85.3" y1="406.6" x2="85.3" y2="442.1"/>
				</g>
			</g>
			<g>
				<g>
					<line class="st0" x1="105.2" y1="406.6" x2="105.2" y2="442.1"/>
				</g>
			</g>
			<g>
				<g>
					<line class="st0" x1="244.6" y1="182.2" x2="244.6" y2="217.7"/>
				</g>
			</g>
			<g id="XMLID_23_">
				<g>
					<path class="st0" d="M244.6,419.2v13.9c0,5-4,9-9,9h-1.9c-5,0-9-4-9-9v-15.3"/>
				</g>
			</g>
			<g>
				<g>
					<line class="st0" x1="204.6" y1="417.9" x2="204.6" y2="442.1"/>
				</g>
			</g>
		</g>
		<g id="x">
			<g>
				<g>
					<g>
						<line class="st0" x1="282.5" y1="70.1" x2="270.1" y2="95.6"/>
					</g>
				</g>
				<g>
					<g>
						<g>
							<line class="st0" x1="265.2" y1="70.1" x2="277.7" y2="95.7"/>
						</g>
					</g>
				</g>
			</g>
			<g>
				<g>
					<g>
						<line class="st0" x1="319.7" y1="70.1" x2="302.4" y2="105.5"/>
					</g>
				</g>
				<g>
					<g>
						<g>
							<line class="st0" x1="302.4" y1="70.1" x2="319.7" y2="105.5"/>
						</g>
					</g>
				</g>
			</g>
			<g>
				<g>
					<g>
						<line class="st0" x1="356.9" y1="70.1" x2="339.6" y2="105.5"/>
					</g>
				</g>
				<g>
					<g>
						<g>
							<line class="st0" x1="339.6" y1="70.1" x2="356.9" y2="105.5"/>
						</g>
					</g>
				</g>
			</g>
			<g>
				<g>
					<g>
						<line class="st0" x1="394.1" y1="70.1" x2="376.7" y2="105.5"/>
					</g>
				</g>
				<g>
					<g>
						<g>
							<line class="st0" x1="376.7" y1="70.1" x2="394.1" y2="105.5"/>
						</g>
					</g>
				</g>
			</g>
			<g>
				<g>
					<g>
						<line class="st0" x1="431.2" y1="70.1" x2="413.9" y2="105.5"/>
					</g>
				</g>
				<g>
					<g>
						<g>
							<line class="st0" x1="413.9" y1="70.1" x2="431.2" y2="105.5"/>
						</g>
					</g>
				</g>
			</g>
			<g>
				<g>
					<g>
						<line class="st0" x1="468.4" y1="70.1" x2="451.1" y2="105.5"/>
					</g>
				</g>
				<g>
					<g>
						<g>
							<line class="st0" x1="451.1" y1="70.1" x2="468.4" y2="105.5"/>
						</g>
					</g>
				</g>
			</g>
			<g>
				<g>
					<g>
						<line class="st0" x1="505.6" y1="70.1" x2="488.3" y2="105.5"/>
					</g>
				</g>
				<g>
					<g>
						<g>
							<line class="st0" x1="488.3" y1="70.1" x2="505.6" y2="105.5"/>
						</g>
					</g>
				</g>
			</g>
			<g>
				<g>
					<g>
						<line class="st0" x1="277.9" y1="136" x2="265.2" y2="161.9"/>
					</g>
				</g>
				<g>
					<g>
						<g>
							<line class="st0" x1="269" y1="134.4" x2="282.5" y2="161.9"/>
						</g>
					</g>
				</g>
			</g>
			<g>
				<g>
					<g>
						<line class="st0" x1="303.8" y1="159" x2="302.4" y2="161.9"/>
					</g>
				</g>
				<g>
					<g>
						<g>
						</g>
					</g>
				</g>
			</g>
			<g>
				<g>
					<g>
						<line class="st0" x1="356.9" y1="126.6" x2="344" y2="152.9"/>
					</g>
				</g>
				<g>
					<g>
						<g>
							<line class="st0" x1="339.6" y1="126.6" x2="356.9" y2="161.9"/>
						</g>
					</g>
				</g>
			</g>
			<g>
				<g>
					<g>
						<line class="st0" x1="394.1" y1="126.6" x2="376.7" y2="161.9"/>
					</g>
				</g>
				<g>
					<g>
						<g>
							<line class="st0" x1="376.7" y1="126.6" x2="394.1" y2="161.9"/>
						</g>
					</g>
				</g>
			</g>
			<g>
				<g>
					<g>
						<line class="st0" x1="431.2" y1="126.6" x2="413.9" y2="161.9"/>
					</g>
				</g>
				<g>
					<g>
						<g>
							<line class="st0" x1="413.9" y1="126.6" x2="431.2" y2="161.9"/>
						</g>
					</g>
				</g>
			</g>
			<g>
				<g>
					<g>
						<line class="st0" x1="468.4" y1="126.6" x2="451.1" y2="161.9"/>
					</g>
				</g>
				<g>
					<g>
						<g>
							<line class="st0" x1="451.1" y1="126.6" x2="468.4" y2="161.9"/>
						</g>
					</g>
				</g>
			</g>
			<g>
				<g>
					<g>
						<line class="st0" x1="505.6" y1="126.6" x2="488.3" y2="161.9"/>
					</g>
				</g>
				<g>
					<g>
						<g>
							<line class="st0" x1="488.3" y1="126.6" x2="505.6" y2="161.9"/>
						</g>
					</g>
				</g>
			</g>
			<g>
				<g>
					<g>
						<line class="st0" x1="282.5" y1="182.7" x2="265.2" y2="218"/>
					</g>
				</g>
				<g>
					<g>
						<g>
							<line class="st0" x1="265.2" y1="182.7" x2="282.5" y2="218"/>
						</g>
					</g>
				</g>
			</g>
			<g>
				<g>
					<g>
						<line class="st0" x1="311.2" y1="200" x2="302.4" y2="218"/>
					</g>
				</g>
				<g>
					<g>
						<g>
							<line class="st0" x1="302.4" y1="182.7" x2="311.5" y2="201.2"/>
						</g>
					</g>
				</g>
			</g>
			<g>
				<g>
					<g>
						<line class="st0" x1="356.9" y1="182.7" x2="349.7" y2="197.4"/>
					</g>
				</g>
				<g>
					<g>
						<g>
							<line class="st0" x1="350.1" y1="204.2" x2="356.9" y2="218"/>
						</g>
					</g>
				</g>
			</g>
			<g>
				<g>
					<g>
						<line class="st0" x1="394.1" y1="182.7" x2="376.7" y2="218"/>
					</g>
				</g>
				<g>
					<g>
						<g>
							<line class="st0" x1="376.7" y1="182.7" x2="394.1" y2="218"/>
						</g>
					</g>
				</g>
			</g>
			<g>
				<g>
					<g>
						<line class="st0" x1="431.2" y1="182.7" x2="413.9" y2="218"/>
					</g>
				</g>
				<g>
					<g>
						<g>
							<line class="st0" x1="413.9" y1="182.7" x2="431.2" y2="218"/>
						</g>
					</g>
				</g>
			</g>
			<g>
				<g>
					<g>
						<line class="st0" x1="468.4" y1="182.7" x2="451.1" y2="218"/>
					</g>
				</g>
				<g>
					<g>
						<g>
							<line class="st0" x1="451.1" y1="182.7" x2="468.4" y2="218"/>
						</g>
					</g>
				</g>
			</g>
			<g>
				<g>
					<g>
						<line class="st0" x1="505.6" y1="182.7" x2="488.3" y2="218"/>
					</g>
				</g>
				<g>
					<g>
						<g>
							<line class="st0" x1="488.3" y1="182.7" x2="505.6" y2="218"/>
						</g>
					</g>
				</g>
			</g>
			<g>
				<g>
					<g>
						<line class="st0" x1="394.1" y1="238.4" x2="376.7" y2="273.8"/>
					</g>
				</g>
				<g>
					<g>
						<g>
							<line class="st0" x1="376.7" y1="238.4" x2="394.1" y2="273.8"/>
						</g>
					</g>
				</g>
			</g>
			<g>
				<g>
					<g>
						<line class="st0" x1="431.2" y1="238.4" x2="413.9" y2="273.8"/>
					</g>
				</g>
				<g>
					<g>
						<g>
							<line class="st0" x1="413.9" y1="238.4" x2="431.2" y2="273.8"/>
						</g>
					</g>
				</g>
			</g>
			<g>
				<g>
					<g>
						<line class="st0" x1="468.4" y1="238.4" x2="451.1" y2="273.8"/>
					</g>
				</g>
				<g>
					<g>
						<g>
							<line class="st0" x1="451.1" y1="238.4" x2="468.4" y2="273.8"/>
						</g>
					</g>
				</g>
			</g>
			<g>
				<g>
					<g>
						<line class="st0" x1="505.6" y1="238.4" x2="488.3" y2="273.8"/>
					</g>
				</g>
				<g>
					<g>
						<g>
							<line class="st0" x1="488.3" y1="238.4" x2="505.6" y2="273.8"/>
						</g>
					</g>
				</g>
			</g>
			<g>
				<g>
					<g>
						<line class="st0" x1="394.1" y1="294.9" x2="376.7" y2="330.2"/>
					</g>
				</g>
				<g>
					<g>
						<g>
							<line class="st0" x1="376.7" y1="294.9" x2="394.1" y2="330.2"/>
						</g>
					</g>
				</g>
			</g>
			<g>
				<g>
					<g>
						<line class="st0" x1="431.2" y1="294.9" x2="413.9" y2="330.2"/>
					</g>
				</g>
				<g>
					<g>
						<g>
							<line class="st0" x1="413.9" y1="294.9" x2="431.2" y2="330.2"/>
						</g>
					</g>
				</g>
			</g>
			<g>
				<g>
					<g>
						<line class="st0" x1="468.4" y1="294.9" x2="451.1" y2="330.2"/>
					</g>
				</g>
				<g>
					<g>
						<g>
							<line class="st0" x1="451.1" y1="294.9" x2="468.4" y2="330.2"/>
						</g>
					</g>
				</g>
			</g>
			<g>
				<g>
					<g>
						<line class="st0" x1="505.6" y1="294.9" x2="488.3" y2="330.2"/>
					</g>
				</g>
				<g>
					<g>
						<g>
							<line class="st0" x1="488.3" y1="294.9" x2="505.6" y2="330.2"/>
						</g>
					</g>
				</g>
			</g>
			<g>
				<g>
					<g>
						<line class="st0" x1="394.1" y1="350.6" x2="376.7" y2="386"/>
					</g>
				</g>
				<g>
					<g>
						<g>
							<line class="st0" x1="376.7" y1="350.6" x2="394.1" y2="386"/>
						</g>
					</g>
				</g>
			</g>
			<g>
				<g>
					<g>
						<line class="st0" x1="431.2" y1="350.6" x2="413.9" y2="386"/>
					</g>
				</g>
				<g>
					<g>
						<g>
							<line class="st0" x1="413.9" y1="350.6" x2="431.2" y2="386"/>
						</g>
					</g>
				</g>
			</g>
			<g>
				<g>
					<g>
						<line class="st0" x1="468.4" y1="350.6" x2="451.1" y2="386"/>
					</g>
				</g>
				<g>
					<g>
						<g>
							<line class="st0" x1="451.1" y1="350.6" x2="468.4" y2="386"/>
						</g>
					</g>
				</g>
			</g>
			<g>
				<g>
					<g>
						<line class="st0" x1="505.6" y1="350.6" x2="488.3" y2="386"/>
					</g>
				</g>
				<g>
					<g>
						<g>
							<line class="st0" x1="488.3" y1="350.6" x2="505.6" y2="386"/>
						</g>
					</g>
				</g>
			</g>
			<g>
				<g>
					<g>
						<line class="st0" x1="276.6" y1="419.3" x2="265.2" y2="442.4"/>
					</g>
				</g>
				<g>
					<g>
						<g>
							<line class="st0" x1="270.6" y1="418" x2="282.5" y2="442.4"/>
						</g>
					</g>
				</g>
			</g>
			<g>
				<g>
					<g>
						<line class="st0" x1="314.1" y1="418.5" x2="302.4" y2="442.4"/>
					</g>
				</g>
				<g>
					<g>
						<g>
							<line class="st0" x1="307.1" y1="416.7" x2="319.7" y2="442.4"/>
						</g>
					</g>
				</g>
			</g>
			<g>
				<g>
					<g>
						<line class="st0" x1="351.6" y1="417.8" x2="339.6" y2="442.4"/>
					</g>
				</g>
				<g>
					<g>
						<g>
							<line class="st0" x1="344.9" y1="418" x2="356.9" y2="442.4"/>
						</g>
					</g>
				</g>
			</g>
			<g>
				<g>
					<g>
						<line class="st0" x1="394.1" y1="407.1" x2="376.7" y2="442.4"/>
					</g>
				</g>
				<g>
					<g>
						<g>
							<line class="st0" x1="376.7" y1="407.1" x2="394.1" y2="442.4"/>
						</g>
					</g>
				</g>
			</g>
			<g>
				<g>
					<g>
						<line class="st0" x1="431.2" y1="407.1" x2="413.9" y2="442.4"/>
					</g>
				</g>
				<g>
					<g>
						<g>
							<line class="st0" x1="413.9" y1="407.1" x2="431.2" y2="442.4"/>
						</g>
					</g>
				</g>
			</g>
			<g>
				<g>
					<g>
						<line class="st0" x1="468.4" y1="407.1" x2="451.1" y2="442.4"/>
					</g>
				</g>
				<g>
					<g>
						<g>
							<line class="st0" x1="451.1" y1="407.1" x2="468.4" y2="442.4"/>
						</g>
					</g>
				</g>
			</g>
			<g>
				<g>
					<g>
						<line class="st0" x1="505.6" y1="407.1" x2="488.3" y2="442.4"/>
					</g>
				</g>
				<g>
					<g>
						<g>
							<line class="st0" x1="488.3" y1="407.1" x2="505.6" y2="442.4"/>
						</g>
					</g>
				</g>
			</g>
		</g>
	</g>
	<path class="st0" d="M354,227.3h-4.3c-0.1-9-0.3-28.6-0.3-37c0-25.1-9.7-48.8-27.4-66.8c-17.8-18.1-41.3-28.1-66.3-28.1
		c-25,0-48.5,10-66.3,28.1c-17.7,18-27.4,41.7-27.4,66.8c0,8.4,0.2,28.1,0.3,37h-5c-10.2,0-18.5,8.3-18.5,18.5v152.8
		c0,10.2,8.3,18.5,18.5,18.5H354c10.2,0,18.5-8.3,18.5-18.5V245.8C372.5,235.6,364.2,227.3,354,227.3z M198.8,187.5
		c0.2-15.9,6.4-30.4,17.5-40.8c10.6-10,24.6-15.7,39.3-16c14.1-0.3,28.5,5.7,39.5,16.4c11.3,11.1,17.5,25.6,17.5,40.8v39.4H199.2
		C199.1,217.7,198.8,195.8,198.8,187.5z M268.8,314.9c-0.7,3.8-2.8,7.2-6,9.5v17.4c0,5.1-4.1,9.3-9.3,9.3s-9.3-4.1-9.3-9.3v-17.4
		c-1.4-1-2.6-2.3-3.6-3.7c-2.3-3.4-3.2-7.6-2.4-11.6c0.8-4.1,3.1-7.6,6.5-9.9c3.4-2.3,7.6-3.2,11.6-2.4c4.1,0.8,7.6,3.1,9.9,6.5
		C268.7,306.7,269.5,310.9,268.8,314.9z"/>
</g>
</svg>
