<?xml version="1.0" encoding="utf-8"?>
<!-- Generator: Adobe Illustrator 24.1.0, SVG Export Plug-In . SVG Version: 6.00 Build 0)  -->
<svg version="1.1" id="Layer_1" xmlns="http://www.w3.org/2000/svg" xmlns:xlink="http://www.w3.org/1999/xlink" x="0px" y="0px"
	 viewBox="0 0 512 512" style="enable-background:new 0 0 512 512;" xml:space="preserve">
<style type="text/css">
	.st0{fill:none;stroke:#0B4E9C;stroke-width:8.7965;stroke-linecap:round;stroke-linejoin:round;stroke-miterlimit:10;}
</style>
<g>
	<line class="st0" x1="75.2" y1="184.8" x2="75.2" y2="506.4"/>
	<line class="st0" x1="75.2" y1="6" x2="75.2" y2="66.6"/>
	<line class="st0" x1="195" y1="298.4" x2="195" y2="506.4"/>
	<line class="st0" x1="195" y1="6" x2="195" y2="184.8"/>
	<line class="st0" x1="314.7" y1="227.8" x2="314.7" y2="506.4"/>
	<line class="st0" x1="314.7" y1="6" x2="314.7" y2="115.8"/>
	<line class="st0" x1="434.4" y1="296.9" x2="434.4" y2="506.4"/>
	<line class="st0" x1="434.4" y1="6" x2="434.4" y2="183.3"/>
	<path class="st0" d="M444.4,295.4H426c-10.1,0-18.4-8.3-18.4-18.4v-73.7c0-10.1,8.3-18.4,18.4-18.4h18.4c10.1,0,18.4,8.3,18.4,18.4
		v73.7C462.8,287.1,454.5,295.4,444.4,295.4z"/>
	<path class="st0" d="M204.2,295.4h-18.4c-10.1,0-18.4-8.3-18.4-18.4v-73.7c0-10.1,8.3-18.4,18.4-18.4h18.4
		c10.1,0,18.4,8.3,18.4,18.4v73.7C222.6,287.1,214.3,295.4,204.2,295.4z"/>
	<path class="st0" d="M85.2,181.8H66.8c-10.1,0-18.4-8.3-18.4-18.4V89.7c0-10.1,8.3-18.4,18.4-18.4h18.4c10.1,0,18.4,8.3,18.4,18.4
		v73.7C103.6,173.5,95.3,181.8,85.2,181.8z"/>
	<path class="st0" d="M324.7,226.3h-18.4c-10.1,0-18.4-8.3-18.4-18.4v-73.7c0-10.1,8.3-18.4,18.4-18.4h18.4
		c10.1,0,18.4,8.3,18.4,18.4v73.7C343.1,218,334.8,226.3,324.7,226.3z"/>
</g>
</svg>
