<?xml version="1.0" encoding="utf-8"?>
<!-- Generator: Adobe Illustrator 24.1.0, SVG Export Plug-In . SVG Version: 6.00 Build 0)  -->
<svg version="1.1" id="Layer_1" xmlns="http://www.w3.org/2000/svg" xmlns:xlink="http://www.w3.org/1999/xlink" x="0px" y="0px"
	 viewBox="0 0 512 512" style="enable-background:new 0 0 512 512;" xml:space="preserve">
<style type="text/css">
	
		.st0{fill-rule:evenodd;clip-rule:evenodd;fill:none;stroke:#8FA1CC;stroke-width:8.8028;stroke-linecap:round;stroke-linejoin:round;stroke-miterlimit:10;}
</style>
<path class="st0" d="M256,11.8c-138.3,0-250.4,112-250.4,250.4c0,110.8,71.7,204.4,171.2,237.6c12.5,2.2,17.2-5.3,17.2-11.9
	c0-5.9-0.3-25.7-0.3-46.6c-62.9,11.6-79.2-15.3-84.2-29.4c-2.8-7.2-15-29.4-25.7-35.4c-8.8-4.7-21.3-16.3-0.3-16.6
	c19.7-0.3,33.8,18.2,38.5,25.7c22.5,37.9,58.5,27.2,72.9,20.7c2.2-16.3,8.8-27.2,16-33.5C155.2,366.4,97,344.8,97,249
	c0-27.2,9.7-49.8,25.7-67.3c-2.5-6.3-11.3-31.9,2.5-66.4c0,0,21-6.6,68.9,25.7c20-5.6,41.3-8.5,62.6-8.5s42.6,2.8,62.6,8.5
	c47.9-32.6,68.9-25.7,68.9-25.7c13.8,34.4,5,60.1,2.5,66.4c16,17.5,25.7,39.7,25.7,67.3c0,96.1-58.5,117.4-114.2,123.6
	c9.1,7.8,16.9,22.8,16.9,46.3c0,33.5-0.3,60.4-0.3,68.9c0,6.6,4.7,14.4,17.2,11.9c98.9-33.2,170.6-127.1,170.6-237.6
	C506.4,123.8,394.3,11.8,256,11.8z"/>
</svg>
