<?xml version="1.0" encoding="utf-8"?>
<!-- Generator: Adobe Illustrator 24.1.0, SVG Export Plug-In . SVG Version: 6.00 Build 0)  -->
<svg version="1.1" id="Layer_1" xmlns="http://www.w3.org/2000/svg" xmlns:xlink="http://www.w3.org/1999/xlink" x="0px" y="0px"
	 viewBox="0 0 512 512" style="enable-background:new 0 0 512 512;" xml:space="preserve">
<style type="text/css">
	.st0{fill:none;stroke:#0B4E9C;stroke-width:8.7965;stroke-linecap:round;stroke-linejoin:round;stroke-miterlimit:10;}
	.st1{fill:#0B4E9C;}
</style>
<g>
	<g>
		<path class="st0" d="M373.8,481.2H150.8c-11.5,0-20.9-9.4-20.9-20.9V288.6c0-11.5,9.4-20.9,20.9-20.9h222.9
			c11.5,0,20.9,9.4,20.9,20.9v171.6C394.7,471.8,385.3,481.2,373.8,481.2z"/>
		<path class="st0" d="M460.5,340.3h-9.1c0-105.3,0-227.4,0-232c-0.3-14.7-25.4-35-48.9-58.8C381.3,28,361.3,5.6,350.7,6
			C344,6,95.2,6,95.2,6c-12.1,0-22,9.9-22,22v124.1H50.7v102.3h22.5v230.1c0,12.1,9.9,22,22,22h334.2c12.1,0,22-9.9,22-22
			c0,0,0-31.3,0-75.9h9.1V340.3z"/>
		<rect x="94.8" y="26.8" class="st0" width="37.3" height="64.2"/>
		<rect x="150.1" y="26.8" class="st0" width="37.3" height="64.2"/>
		<rect x="205.4" y="26.8" class="st0" width="37.3" height="64.2"/>
		<rect x="260.7" y="26.8" class="st0" width="37.3" height="64.2"/>
		<rect x="316" y="26.8" class="st0" width="37.3" height="64.2"/>
		<g>
			<g>
				<polyline class="st0" points="244.1,324.4 262,366.7 296.1,366.5 				"/>
				<path class="st0" d="M208.2,396.3c-4.7-8.7-7.4-18.7-7.4-29.3c0-34,27.5-61.5,61.5-61.5s61.5,27.5,61.5,61.5
					c0,12.1-3.5,23.3-9.5,32.8"/>
			</g>
			<g>
				<path class="st1" d="M221.1,405.3c0.6,0.6,0.9,1.4,0.9,2.4v31.8c0,1-0.3,1.8-1,2.4c-0.7,0.6-1.6,1-2.6,1c-1,0-1.9-0.3-2.5-1
					c-0.7-0.6-1-1.4-1-2.4v-26.1l-3.4,2.1c-0.6,0.3-1.1,0.5-1.8,0.5c-0.9,0-1.7-0.3-2.3-1c-0.6-0.7-1-1.5-1-2.3
					c0-0.6,0.2-1.1,0.5-1.7c0.3-0.5,0.7-0.9,1.2-1.2l8.3-5c0.6-0.3,1.4-0.5,2.4-0.5C219.7,404.3,220.5,404.6,221.1,405.3z"/>
				<path class="st1" d="M253.2,437.7c0.6,0.6,0.9,1.3,0.9,2.2c0,0.8-0.3,1.6-0.9,2.1c-0.6,0.6-1.3,0.9-2.2,0.9h-18.7
					c-1,0-1.7-0.3-2.3-0.9c-0.6-0.6-0.8-1.3-0.8-2.3c0-0.9,0.3-1.7,1-2.4l12-12.8c1.4-1.5,2.4-2.9,3.2-4.4c0.8-1.5,1.2-2.9,1.2-4.1
					c0-1.7-0.6-3.1-1.8-4.3c-1.2-1.2-2.5-1.8-4.1-1.8c-1.1,0-2.1,0.4-3.2,1.1c-1.1,0.7-2.1,1.7-2.9,2.8c-0.7,0.9-2.5,1.3-2.5,1.3
					s-1.6-0.3-2.2-0.9c-0.7-0.6-1-1.3-1-2.1c0-0.6,0.2-1.1,0.6-1.7c0.4-0.6,0.9-1.2,1.7-2c1.4-1.4,3-2.5,4.8-3.4
					c1.8-0.8,3.6-1.3,5.3-1.3c2.4,0,4.5,0.5,6.4,1.5c1.8,1,3.2,2.4,4.2,4.2c1,1.8,1.5,3.8,1.5,6.1c0,2.2-0.6,4.5-1.8,6.9
					c-1.2,2.4-2.8,4.6-4.8,6.8l-7,7.4h11.3C251.8,436.8,252.6,437.1,253.2,437.7z"/>
				<path class="st1" d="M264.6,440.9c-2.2-1.7-3.9-4-5-7c-1.1-3-1.7-6.4-1.7-10.4c0-3.9,0.6-7.4,1.7-10.4c1.1-3,2.8-5.3,5-7
					c2.2-1.7,4.9-2.5,8-2.5c3.1,0,5.7,0.8,8,2.5c2.2,1.7,3.9,4,5,7c1.1,3,1.7,6.4,1.7,10.4c0,3.9-0.6,7.4-1.7,10.4
					c-1.1,3-2.8,5.3-5,7c-2.2,1.7-4.9,2.5-8,2.5C269.5,443.4,266.8,442.6,264.6,440.9z M278.1,433.4c1.3-2.2,2-5.5,2-9.9
					c0-4.3-0.7-7.6-2-9.9c-1.3-2.2-3.2-3.4-5.5-3.4c-2.3,0-4.2,1.1-5.5,3.4c-1.3,2.2-2,5.5-2,9.9c0,4.3,0.7,7.6,2,9.9
					c1.3,2.2,3.2,3.4,5.5,3.4C274.9,436.8,276.8,435.7,278.1,433.4z"/>
				<path class="st1" d="M316.1,416.2c1.4,2.2,2.1,5.3,2.1,9.2v14.1c0,1-0.3,1.8-0.9,2.4c-0.6,0.6-1.4,1-2.4,1c-1,0-1.7-0.3-2.4-1
					c-0.6-0.6-0.9-1.4-0.9-2.4v-14.1c0-2-0.4-3.6-1.2-4.8c-0.8-1.2-2.2-1.7-4.2-1.7c-2.1,0-3.7,0.6-4.8,1.8
					c-1.2,1.2-1.7,2.8-1.7,4.7v14.1c0,1-0.3,1.8-0.9,2.4c-0.6,0.6-1.4,1-2.4,1c-1,0-1.7-0.3-2.4-1c-0.6-0.6-0.9-1.4-0.9-2.4v-34
					c0-1,0.3-1.8,0.9-2.4c0.6-0.6,1.4-1,2.4-1c1,0,1.7,0.3,2.4,1c0.6,0.6,0.9,1.4,0.9,2.4v12.2c1-1.3,2.2-2.4,3.8-3.4
					c1.5-0.9,3.2-1.4,5.1-1.4C312.2,412.8,314.7,413.9,316.1,416.2z"/>
			</g>
		</g>
	</g>
</g>
</svg>
