<?xml version="1.0" encoding="utf-8"?>
<!-- Generator: Adobe Illustrator 25.0.1, SVG Export Plug-In . SVG Version: 6.00 Build 0)  -->
<svg version="1.1" id="Capa_1" xmlns="http://www.w3.org/2000/svg" xmlns:xlink="http://www.w3.org/1999/xlink" x="0px" y="0px"
	 viewBox="0 0 512 488.2" style="enable-background:new 0 0 512 488.2;" xml:space="preserve">
<style type="text/css">
	.st0{fill:#FCD485;}
	.st1{fill:#E3BF78;}
</style>
<g>
	<path class="st0" d="M499.9,176.4L334.1,161L268.2,8c-4.6-10.7-19.8-10.7-24.4,0l-65.9,153L12.1,176.4
		c-11.6,1.1-16.3,15.5-7.5,23.2l125.1,109.9L93,472c-2.6,11.4,9.7,20.3,19.7,14.3l143.2-85l143.2,85c10,6,22.3-3,19.7-14.3
		l-36.6-162.5l125.1-109.9C516.2,191.9,511.5,177.5,499.9,176.4z"/>
	<path class="st1" d="M292.2,63.7L268.2,8c-4.6-10.7-19.8-10.7-24.4,0l-65.9,153L12.1,176.4c-11.6,1.1-16.3,15.5-7.5,23.2
		l125.1,109.9L93,472c-2.6,11.4,9.7,20.3,19.7,14.3l19.1-11.3C163.1,272.8,250.9,124.3,292.2,63.7z"/>
</g>
</svg>
