<?xml version="1.0" encoding="utf-8"?>
<!-- Generator: Adobe Illustrator 24.1.0, SVG Export Plug-In . SVG Version: 6.00 Build 0)  -->
<svg version="1.1" id="Layer_1" xmlns="http://www.w3.org/2000/svg" xmlns:xlink="http://www.w3.org/1999/xlink" x="0px" y="0px"
	 viewBox="0 0 512 512" style="enable-background:new 0 0 512 512;" xml:space="preserve">
<style type="text/css">
	.st0{fill:#FFFFFF;}
</style>
<g>
	<path class="st0" d="M484.6,203.7c0.3-0.7,0.6-1.3,0.7-2c5.5-23.8-5.7-39.8-15.4-47.3c-2.2-17.8-19-29.3-32.8-34.8
		c-1.4-16.8-7.8-30.5-19-40.7C399.7,62.2,373.4,60,360.5,60c-0.1,0-0.3,0-0.4,0c-12.6-21.5-41.3-22.5-58.1-19.4
		c-9.8-3.4-19.7-6-29.5-8c-5.4-1.1-10.7,2.5-11.8,7.9c-1.1,5.4,2.5,10.7,7.9,11.8c9.7,1.9,19.6,4.6,29.4,8.1
		c1.8,0.6,3.8,0.8,5.7,0.3c0.3-0.1,33.5-7.6,40.7,12.8c1.5,4.3,5.8,7.1,10.4,6.6c0.3,0,31.9-2.8,49.9,13.6
		c6.3,5.8,10.2,13.2,11.8,22.6c-13.5,0.6-34.7,5.4-45.7,27.2c-2.5,4.9-0.5,11,4.4,13.5c1.5,0.7,3,1.1,4.5,1.1c3.7,0,7.2-2,9-5.5
		c9.3-18.3,32.3-16.5,36.4-16c3.7,1.2,25.7,9.1,24.8,22.5c-0.3,4,1.9,7.7,5.4,9.6c0,0,3.6,2,6.7,6.2c4.1,5.5,5.4,12.3,4,20.2
		l-0.7,0.9c-15.6,1.7-39,11.5-42.2,40.5c-0.6,5.5,3.4,10.5,8.9,11.1c0.4,0,0.7,0.1,1.1,0.1c5.1,0,9.4-3.8,10-8.9
		c2-18.4,17.8-22,24.6-22.7c44,32.3,12.9,107.5,10.9,112.3c-10.9,20.8-24.6,31.5-41.7,32.4c-7.3-6.1-26.6-19.8-60.2-27.8
		c-5.4-1.3-10.8,2-12.1,7.4c-1.3,5.4,2,10.8,7.4,12.1c28.7,6.9,45.1,18.2,51.1,23c-0.1,2.8-0.4,5.5-1.1,8.1
		c-7.1,28.4-45.5,43.2-85.6,33.2c-6.6-1.7-13.1-4-19.1-6.8c-3-1.4-6.4-1.3-9.3,0.4c-2.9,1.6-4.7,4.6-5,7.8
		c-1.1,13-0.6,25.5,1.7,37.4l-26.4,4.4c-1.1-4-2.3-8.7-3.5-13.7c-5.9-24.4-14.4-59.6-39.4-88.5c20.8-5.1,40.9-8.4,59.7-10
		c5.5-0.5,9.6-5.3,9.2-10.8c-0.5-5.5-5.3-9.6-10.8-9.2c-25,2-51.7,7-79.5,14.8c-25.5,3.5-43.4,2.1-45.4,1.9
		c-43.5-6.5-55.7-32.8-52.8-53.4c0.5-3.3-0.8-6.6-3.2-8.8c-2.5-2.2-5.9-3.1-9.1-2.3l-7.3,1.8c-12.7-0.6-44.4-5.5-58.7-22.2
		c-6.2-7.2-8.6-16-7.3-26.7c0.5-4.1-1.6-8.2-5.3-10.1c0,0-4.3-2.6-5.4-7.1c-1.2-5.4,2.4-11.9,5.6-16.3c2-2.7,2.5-6.2,1.3-9.4
		c-0.1-0.2-7.5-21.6,1-39.3c4.7-9.9,13.7-17.1,26.8-21.6c3.8-1.3,6.4-4.7,6.7-8.6c0-0.1,1.3-12.9,10.6-19.8c6.4-4.8,15.6-6,27.5-3.6
		c2.7,0.5,5.5,0,7.7-1.6c2.2-1.6,3.8-4,4.2-6.7c0-0.2,4.5-21.1,43.7-21.9c5.9,8.1,19.1,29.4,9.3,48.5c-2.5,4.9-0.5,11,4.4,13.5
		c1.5,0.7,3,1.1,4.5,1.1c3.7,0,7.2-2,9-5.5c3.6-7.1,5.3-14.2,5.6-21.1c5.4-2.3,13.9-4.8,20.6-2.8c4.4,1.3,7.7,4.5,10.3,9.7
		c1.7,3.6,5.3,5.6,9,5.6c1.5,0,3-0.3,4.4-1c5-2.4,7.1-8.4,4.6-13.4c-5-10.3-12.8-17.3-22.6-20.2c-10.4-3.1-21.1-1.1-28.9,1.5
		c-2.6-9-6.7-16.7-10.4-22.5c4.7-2.1,11.1-4.5,19-6.5c5.4-1.4,8.6-6.9,7.2-12.3c-1.4-5.4-6.9-8.6-12.3-7.2
		c-15.9,4.2-26.7,9.6-31.6,12.3c-40.7,0-56.4,17.8-62.3,29.3c-14-1.3-25.8,1.6-35.2,8.7c-10.9,8.3-15.4,20.1-17.2,27.5
		C27,118.6,16,128.6,9.6,142c-9.2,19.4-5.7,40.3-3.2,49.7c-6.1,9.9-8.2,19.5-6.1,28.5c1.8,7.6,6.1,12.9,9.8,16.2
		c-0.5,13.9,3.7,26.1,12.4,36.2c21.6,25.2,64.7,28.7,73.2,29.1c2.2,28,23.5,55.6,70.5,62.6c0.1,0,0.3,0,0.5,0.1
		c0.4,0,5.6,0.6,14.4,0.6c8,0,18.9-0.4,31.9-2c27.7,26.2,36.3,61.7,42.6,87.9c2.3,9.5,4.3,17.8,6.9,24.1c1.6,3.8,5.3,6.2,9.3,6.2
		c0.5,0,1.1,0,1.7-0.1l45.4-7.6c2.8-0.5,5.3-2.1,6.8-4.6c1.5-2.4,1.9-5.4,1.1-8.1c-2.5-8.5-3.8-17.6-4-27.2c2.9,1,5.9,1.9,9,2.6
		c24.1,6.1,48.6,4.7,69-3.7c21.5-8.9,36-24.5,40.9-44c0.7-2.7,1.1-5.4,1.4-8.2c17.1-2.4,37.8-12.6,53.6-43c0.1-0.2,0.2-0.4,0.3-0.5
		c0.4-1,10.7-24.2,13.7-52.5C514.3,249.2,505.4,221.6,484.6,203.7z"/>
	<path class="st0" d="M233,174.2c0.1,0.6,2.7,14.4,12.3,28c2.3,3.2,5.1,6.6,8.5,9.9c-1.8,10.3-17.6,16-17.9,16.1
		c-5.2,1.8-8,7.5-6.3,12.7c1.4,4.2,5.3,6.8,9.5,6.8c1.1,0,2.1-0.2,3.2-0.5c9.3-3.1,22.8-10.9,28.7-23.4c7.8,3.5,17.2,5.8,28.5,5.8
		c0.7,0,1.4,0,2.2,0c5.5-0.1,9.9-4.7,9.8-10.3c-0.1-5.5-4.6-9.8-10-9.8c-0.1,0-0.2,0-0.3,0c-40.3,1-48.1-37.1-48.5-38.9
		c-1-5.4-6.2-9-11.7-8C235.6,163.5,232,168.8,233,174.2z"/>
	<path class="st0" d="M355.3,262.4c17.4-30.5,10.5-54,1.7-68.4c-9.3-15.2-22.8-23.2-23.4-23.5c-4.8-2.8-10.9-1.2-13.7,3.5
		c-2.8,4.8-1.2,10.9,3.5,13.7c0.1,0.1,10.2,6.2,16.8,17.3c8.4,14.1,7.6,30-2.4,47.4c-2.8,4.8-1.1,10.9,3.7,13.7
		c1.6,0.9,3.3,1.3,5,1.3C350.1,267.4,353.5,265.6,355.3,262.4z"/>
	<path class="st0" d="M461.7,285.8c4.5-3.2,5.6-9.5,2.3-14c-3.2-4.5-9.5-5.6-14-2.3c-9.8,7-18.7,9.6-26.5,7.8
		c-11.7-2.7-18.4-14.8-18.5-15c-2.6-4.9-8.6-6.8-13.5-4.2c-4.9,2.6-6.8,8.6-4.3,13.5c0.4,0.8,9.1,17.1,26.5,23.6
		c-3.1,12.3-5.1,34,13.1,49.1c1.9,1.6,4.2,2.3,6.4,2.3c2.9,0,5.7-1.2,7.7-3.6c3.6-4.3,3-10.6-1.3-14.1c-11.1-9.3-8-24.5-5.8-31.4
		C443,296.5,452.3,292.6,461.7,285.8z"/>
	<path class="st0" d="M166.2,221.4c-0.7-5.5-5.7-9.4-11.2-8.7c-5.5,0.7-9.4,5.7-8.7,11.2c1.7,13.7-9,23.7-15.4,28.4
		c-16.1-8-34.1-4.9-35-4.8c-5.4,1-9.1,6.1-8.1,11.6c0.9,5.4,6.1,9.1,11.6,8.2c0.2,0,17.1-2.7,27.3,6c5.8,5,8.6,13.4,8.3,24.9
		c-0.1,5.5,4.3,10.1,9.8,10.3c0.1,0,0.2,0,0.2,0c5.4,0,9.9-4.3,10-9.8c0.3-13.5-2.6-24.6-8.6-33.2
		C156.3,257.4,168.9,242.6,166.2,221.4z"/>
	<path class="st0" d="M71.8,168.7c-1.1,2.6-2.7,4.9-4.8,7.1c-5.4,5.6-12.3,7.6-12.5,7.7c-5.3,1.5-8.4,7-7,12.3
		c1.2,4.5,5.3,7.4,9.7,7.4c0.9,0,1.7-0.1,2.6-0.4c0.6-0.2,13.2-3.7,23-14.5c6.7,5,14.6,7.6,23.2,7.6c2.4,0,4.9-0.2,7.4-0.6
		c11.4-1.8,19.9-7.2,20.8-7.8c4.7-3,6-9.2,3-13.9c-3-4.7-9.2-6-13.9-3c-0.1,0-5.9,3.7-13.1,4.8c-7.2,1.2-12.9-0.5-17.7-5.2
		c2.3-8.7,2-18.3-0.9-28.8c-1.4-5.4-7-8.5-12.3-7.1c-5.4,1.5-8.5,7-7.1,12.3c2.3,8.5,2.2,15.6-0.2,21.5
		C71.9,168.4,71.9,168.6,71.8,168.7z"/>
	<path class="st0" d="M306.7,83.3c-17-10.1-36.4-4.9-37.3-4.6c-5.3,1.5-8.5,7-7,12.3c1.5,5.3,7,8.5,12.3,7c0.1,0,12.1-3.1,21.7,2.5
		c5.7,3.4,9.6,9.5,11.7,18.3c1.1,4.6,5.2,7.7,9.8,7.7c0.8,0,1.5-0.1,2.3-0.3c5.4-1.3,8.7-6.7,7.5-12.1
		C324.3,100,317.3,89.6,306.7,83.3z"/>
	<path class="st0" d="M270.4,272.6c-7.2,12.3-17.5,18.9-30.7,19.6c-10.6,0.6-19.4-2.9-19.6-3c-5.1-2.1-11,0.3-13.1,5.5
		c-2.1,5.1,0.3,11,5.4,13.1c1.2,0.5,11.4,4.5,24.9,4.5c0.8,0,1.7,0,2.5-0.1c14.3-0.5,34.3-6.1,47.9-29.6c2.8-4.8,1.2-10.9-3.6-13.7
		C279.3,266.2,273.1,267.8,270.4,272.6z"/>
	<path class="st0" d="M343.1,331.5c-2.4-3.5-6.8-5.2-10.9-4.1c-4,1.1-7,4.6-7.4,8.7c-0.4,4.2,1.9,8.3,5.7,10.1
		c3.7,1.7,8.2,1.1,11.1-1.7C345.1,341.1,345.8,335.5,343.1,331.5z"/>
	<path class="st0" d="M221.6,42.7c1.6,3.9,5.6,6.4,9.7,6.2c4.1-0.2,7.7-2.9,9-6.8c1.3-3.9,0.1-8.4-3.1-11c-3.4-2.8-8.3-3-11.9-0.6
		C221.4,33.1,219.8,38.3,221.6,42.7z"/>
</g>
</svg>
