<?xml version="1.0" encoding="utf-8"?>
<!-- Generator: Adobe Illustrator 24.1.0, SVG Export Plug-In . SVG Version: 6.00 Build 0)  -->
<svg version="1.1" id="Layer_1" xmlns="http://www.w3.org/2000/svg" xmlns:xlink="http://www.w3.org/1999/xlink" x="0px" y="0px"
	 viewBox="0 0 512 512" style="enable-background:new 0 0 512 512;" xml:space="preserve">
<style type="text/css">
	.st0{fill:none;stroke:#0B4E9C;stroke-width:8.7413;stroke-linecap:round;stroke-linejoin:round;stroke-miterlimit:10;}
</style>
<g>
	<g>
		<path class="st0" d="M325.3,407.4H181.8c-8.2,0-14.8-6.6-14.8-14.8V107.8c0-8.2,6.6-14.8,14.8-14.8h143.5
			c8.2,0,14.8,6.6,14.8,14.8v284.8C340.1,400.8,333.5,407.4,325.3,407.4z"/>
		<path class="st0" d="M283.5,93h-59.8V75.6c0-2.7,2.2-4.9,4.9-4.9h49.9c2.7,0,4.9,2.2,4.9,4.9V93z"/>
		<polygon class="st0" points="249.6,177.5 290.2,177.5 258.9,226.9 293.6,226.9 213.5,323.6 241.9,253.5 213.5,252.8 		"/>
	</g>
	<path class="st0" d="M44.6,387.6c-23.6-38-37.2-82.9-37.2-131C7.4,119.3,118.7,8,256,8s248.6,111.3,248.6,248.6
		c0,128.7-97.8,234.6-223.2,247.4c-16.7,0-25.4-11.3-25.4-23.9c0-12.6,0-69.7,0-69.7"/>
	<g>
		<path class="st0" d="M40.7,392.2L49,384c1-1,2.6-1,3.5,0l6.2,6.2c1,1,1,2.6,0,3.5l-8.2,8.2c-1,1-2.6,1-3.5,0l-6.2-6.2
			C39.8,394.7,39.8,393.2,40.7,392.2z"/>
		<path class="st0" d="M69.4,456.7l-15.2-15.2c-12-12-12-31.6,0-43.6l0,0c12-12,31.6-12,43.6,0l15.2,15.2"/>
		<path class="st0" d="M71.7,453l38.1-38.1c4-4,10.6-4,14.6,0h0c4,4,4,10.6,0,14.6l-38.1,38.1c-4,4-10.6,4-14.6,0l0,0
			C67.7,463.6,67.7,457,71.7,453z"/>
		<path class="st0" d="M124.4,429.8l17,17c2.8,2.8,2.8,7.4,0,10.2h0c-2.8,2.8-7.4,2.8-10.2,0L114,439.9"/>
		<path class="st0" d="M96.3,457.4l17.2,17.2c2.8,2.8,2.8,7.4,0,10.2h0c-2.8,2.8-7.4,2.8-10.2,0l-17.2-17.2"/>
	</g>
</g>
</svg>
