<?xml version="1.0" encoding="utf-8"?>
<!-- Generator: Adobe Illustrator 24.1.0, SVG Export Plug-In . SVG Version: 6.00 Build 0)  -->
<svg version="1.1" id="Layer_1" xmlns="http://www.w3.org/2000/svg" xmlns:xlink="http://www.w3.org/1999/xlink" x="0px" y="0px"
	 viewBox="0 0 512 512" style="enable-background:new 0 0 512 512;" xml:space="preserve">
<style type="text/css">
	.st0{fill:none;stroke:#0B4E9C;stroke-width:8.7327;stroke-miterlimit:10;}
	.st1{fill:#0B4E9C;}
</style>
<circle class="st0" cx="255.6" cy="256.2" r="248.4"/>
<path class="st1" d="M453,185c-29.2,0-40,40.1-51.4,82.6c-6.1,22.5-17.4,64.4-27.8,64.4s-21.7-41.9-27.8-64.4
	c-11.4-42.5-22.2-82.6-51.4-82.6c-29.2,0-40,40.1-51.4,82.6c-6.1,22.5-17.4,64.4-27.8,64.4c-10.4,0-21.7-41.9-27.8-64.4
	c-11.4-42.5-22.2-82.6-51.4-82.6c-29.2,0-40,40.1-51.4,82.6C78.6,290.1,67.3,332,56.9,332c-6.8,0-12.2,5.5-12.2,12.2
	c0,6.8,5.5,12.2,12.2,12.2c29.2,0,40-40.1,51.4-82.6c6.1-22.5,17.4-64.4,27.8-64.4c10.4,0,21.7,41.9,27.8,64.4
	c11.4,42.5,22.2,82.6,51.4,82.6c29.2,0,40-40.1,51.4-82.6c6.1-22.5,17.4-64.4,27.8-64.4c10.4,0,21.7,41.9,27.8,64.4
	c11.4,42.5,22.2,82.6,51.4,82.6c29.2,0,40-40.1,51.4-82.6c6.1-22.5,17.4-64.4,27.8-64.4c6.8,0,12.2-5.5,12.2-12.2S459.7,185,453,185
	z"/>
<line class="st0" x1="80" y1="80.6" x2="431.2" y2="431.9"/>
</svg>
