<?xml version="1.0" encoding="utf-8"?>
<!-- Generator: Adobe Illustrator 24.1.0, SVG Export Plug-In . SVG Version: 6.00 Build 0)  -->
<svg version="1.1" id="Layer_1" xmlns="http://www.w3.org/2000/svg" xmlns:xlink="http://www.w3.org/1999/xlink" x="0px" y="0px"
	 viewBox="0 0 125 125" style="enable-background:new 0 0 125 125;" xml:space="preserve">
<style type="text/css">
	.st0{fill:none;stroke:#102443;stroke-width:2.9748;stroke-linecap:round;stroke-linejoin:round;stroke-miterlimit:10;}
</style>
<g>
	<path class="st0" d="M19.2,42.7c-3.9-1.6-6.7-5.5-6.7-10c0-6,4.8-10.9,10.9-10.9c1,0,2,0.1,2.9,0.4"/>
	<path class="st0" d="M40.5,37.9c-6-0.9-11.3-5.3-12.9-11.6c-2.1-8.3,2.9-16.8,11.3-19c2.8-0.7,5.6-0.7,8.2,0.1"/>
	<path class="st0" d="M47.2,6.8C49.9,4,53.7,2.3,58,2.2c8.4,0,15.2,6.7,15.2,15.1"/>
	<path class="st0" d="M70.6,8.2c2.6-1.9,5.8-3.1,9.3-3.1c6.2,0,11.6,3.6,14.1,8.8"/>
	<path class="st0" d="M47.3,24.1c8.5,0,15.5,6.9,15.5,15.4c0,4.3-1.7,8.1-4.5,10.9"/>
	<path class="st0" d="M36.8,57.9c-2.5-1.8-4.2-4.5-4.7-7.6"/>
	<path class="st0" d="M73.9,28.2c-0.4,5.9-5.1,10.7-11.1,11"/>
	<path class="st0" d="M78.2,44.5c0-0.3,0-0.6,0-0.9c0-8.3,6.7-15,15-15.1c0.9,0,1.8,0.1,2.7,0.2"/>
	<path class="st0" d="M110.1,38.9c-8.3,0-15.1-6.7-15.1-15"/>
	<line class="st0" x1="103" y1="57.8" x2="10.6" y2="58.1"/>
	<path class="st0" d="M10.6,58.1c-1.7-0.3-3.3-0.8-4.6-1.9c-5.2-4.6-7.4-20.7,6.1-23.6"/>
	<path class="st0" d="M94.7,13.8c1.1-0.2,2.2-0.4,3.4-0.4c7.4,0,13.7,5,15.5,11.9"/>
	<path class="st0" d="M113.4,25.3c5.7,2.8,9.6,8.7,9.7,15.4c0,9.5-7.7,17.3-17.2,17.3c-7.7,0-14.3-5.1-16.5-12.1"/>
	<path class="st0" d="M62.7,122.8l-26.8-20.7H19.8C10,102.1,2,94.1,2,84.3l0,0c0-9.8,8-17.8,17.8-17.8h25.5c9.8,0,17.8,8,17.8,17.8
		l0,0C63,94.1,62.7,122.8,62.7,122.8z"/>
</g>
</svg>
