<?xml version="1.0" encoding="utf-8"?>
<!-- Generator: Adobe Illustrator 24.1.0, SVG Export Plug-In . SVG Version: 6.00 Build 0)  -->
<svg version="1.1" id="Layer_1" xmlns="http://www.w3.org/2000/svg" xmlns:xlink="http://www.w3.org/1999/xlink" x="0px" y="0px"
	 viewBox="0 0 512 512" style="enable-background:new 0 0 512 512;" xml:space="preserve">
<style type="text/css">
	.st0{fill:none;stroke:#8FA1CC;stroke-width:8.7965;stroke-linecap:round;stroke-linejoin:round;stroke-miterlimit:10;}
</style>
<g>
	<path class="st0" d="M179.1,465.2h269.4c1,0,2,0,3-0.1c-19.9-3.8-35.1-21.4-35.1-42.5l0,0c0-22.8,17.8-41.5,40.2-43.1
		c-2.6-0.5-5.3-0.8-8.1-0.8H98.7c-23.8,0-43.2,19.5-43.2,43.2l0,0c0,23.8,19.5,43.2,43.2,43.2h19.5"/>
	<path class="st0" d="M456.3,378.2V12.5c0-3.6-3-6.5-6.6-6.5H93.5c-20.9,0-38,17-38,37.9v384"/>
	<line class="st0" x1="86.2" y1="421.3" x2="386.2" y2="421.3"/>
	<polygon class="st0" points="177.9,506.4 149.5,481.5 122.3,506.4 122.3,421.3 177.9,421.3 	"/>
	<path class="st0" d="M339.4,128.7h-18.6c-6.6,0-8.3-6-4.4-10.2c0,0,0,0,0,0l12.4-12.4c4.7-4.7,4.7-12.2,0-16.9l-12.7-12.7
		c-4.7-4.7-12.2-4.7-16.9,0L287,89c0,0,0,0,0,0c-4.7,5-10.2,0.9-10.2-4.4c0,0,0,0,0,0V66.1c0-6.6-5.3-11.9-11.9-11.9h-17.9
		c-6.6,0-11.9,5.3-11.9,11.9v17.6c0,5.7-6,9.2-11.2,4.3c0,0,0,0,0,0l-11.4-11.4c-4.7-4.7-12.2-4.7-16.9,0l-12.7,12.7
		c-4.7,4.7-4.7,12.2,0,16.9l10.5,10.5c2.9,3.2,2.9,12.1-5.4,12.1h-15.6c-6.6,0-11.9,5.3-11.9,11.9v17.9c0,6.6,5.3,11.9,11.9,11.9
		H187c0,0,0,0,0,0.1c6.2-0.1,9.2,8.9,5.3,13.1l0,0l-9.5,9.5c-4.7,4.7-4.7,12.2,0,16.9l12.7,12.7c4.7,4.7,12.2,4.7,16.9,0l9.5-9.5
		c4.7-5,13.2-0.9,13.2,5.3v14.7c0,6.6,5.3,11.9,11.9,11.9h17.9c6.6,0,11.9-5.3,11.9-11.9v-15.6c0-5.3,6-8.3,12.1-5.4l10.5,10.5
		c4.7,4.7,12.2,4.7,16.9,0l12.7-12.7c4.7-4.7,4.7-12.2,0-16.9l-11.4-11.4c0,0,0,0,0,0c-4-3.7-1.9-11.2,4.3-11.2c0,0,0,0,0,0h17.6
		c6.6,0,11.9-5.3,11.9-11.9v-17.9C351.4,134.1,346,128.7,339.4,128.7z M282.7,149.6c0,14.8-12,26.9-26.9,26.9s-26.9-12-26.9-26.9
		c0-14.8,12-26.9,26.9-26.9S282.7,134.8,282.7,149.6z"/>
	<g>
		<line class="st0" x1="271.9" y1="290.9" x2="249.6" y2="352.5"/>
		<polyline class="st0" points="224,350.1 196.7,322.8 224,295.5 		"/>
		<polyline class="st0" points="287.8,295.5 315.1,322.8 287.8,350.1 		"/>
	</g>
</g>
</svg>
