<?xml version="1.0" encoding="utf-8"?>
<!-- Generator: Adobe Illustrator 24.1.0, SVG Export Plug-In . SVG Version: 6.00 Build 0)  -->
<svg version="1.1" id="Layer_1" xmlns="http://www.w3.org/2000/svg" xmlns:xlink="http://www.w3.org/1999/xlink" x="0px" y="0px"
	 viewBox="0 0 512 512" style="enable-background:new 0 0 512 512;" xml:space="preserve">
<style type="text/css">
	.st0{fill:none;stroke:#8FA1CC;stroke-width:8.7965;stroke-linecap:round;stroke-linejoin:round;stroke-miterlimit:10;}
	.st1{fill:#8FA1CC;}
</style>
<g>
	<g>
		<path class="st0" d="M111.7,213.9V25.5c0-10.7,8.7-19.5,19.5-19.5h214L449,109.8v324.3c0,10.7-8.7,19.5-19.5,19.5H256.6"/>
		<path class="st0" d="M449,109.8h-84.3c-10.7,0-19.5-8.7-19.5-19.5V6L449,109.8z"/>
	</g>
	<line class="st0" x1="373.1" y1="152.9" x2="410" y2="152.9"/>
	<line class="st0" x1="150.6" y1="152.9" x2="340.7" y2="152.9"/>
	<line class="st0" x1="373.1" y1="195.1" x2="410" y2="195.1"/>
	<line class="st0" x1="150.6" y1="195.1" x2="340.7" y2="195.1"/>
	<line class="st0" x1="373.1" y1="237.3" x2="410" y2="237.3"/>
	<line class="st0" x1="255.1" y1="237.3" x2="340.7" y2="237.3"/>
	<line class="st0" x1="373.1" y1="279.4" x2="410" y2="279.4"/>
	<line class="st0" x1="255.1" y1="279.4" x2="340.7" y2="279.4"/>
	<line class="st0" x1="373.1" y1="321.6" x2="410" y2="321.6"/>
	<line class="st0" x1="254.4" y1="321.6" x2="340.7" y2="321.6"/>
	<line class="st0" x1="373.1" y1="363.7" x2="410" y2="363.7"/>
	<line class="st0" x1="255.1" y1="363.7" x2="340.7" y2="363.7"/>
	<line class="st0" x1="345.2" y1="405.9" x2="410" y2="405.9"/>
	<path class="st0" d="M241.7,506.4H75.8c-7,0-12.7-5.7-12.7-12.7V227.3c0-7,5.7-12.7,12.7-12.7h165.9c7,0,12.7,5.7,12.7,12.7v266.4
		C254.4,500.7,248.7,506.4,241.7,506.4z"/>
	<path class="st0" d="M223.1,279.4H94.4c-2.1,0-3.8-1.7-3.8-3.8v-28.2c0-2.1,1.7-3.8,3.8-3.8h128.7c2.1,0,3.8,1.7,3.8,3.8v28.2
		C226.8,277.7,225.1,279.4,223.1,279.4z"/>
	<g>
		<circle class="st0" cx="103.6" cy="337.8" r="16.2"/>
		<circle class="st0" cx="158.7" cy="337.8" r="16.2"/>
		<circle class="st0" cx="213.8" cy="337.8" r="16.2"/>
	</g>
	<g>
		<circle class="st0" cx="105.2" cy="399.4" r="16.2"/>
		<circle class="st0" cx="160.3" cy="399.4" r="16.2"/>
		<circle class="st0" cx="215.5" cy="399.4" r="16.2"/>
	</g>
	<g>
		<circle class="st0" cx="105.2" cy="457.8" r="16.2"/>
		<circle class="st0" cx="160.3" cy="457.8" r="16.2"/>
		<circle class="st0" cx="215.5" cy="457.8" r="16.2"/>
	</g>
	<g>
		<path class="st1" d="M308.4,99.4c0,1-0.2,1.9-0.7,2.7c-0.5,0.8-1.2,1.4-2.1,1.9c-4.3,2.4-8.8,3.6-13.6,3.6c-6.9,0-13-1.8-18.4-5.3
			c-5.4-3.6-9.1-8.7-11.3-15.4h-4.4c-1.6,0-3-0.5-4-1.5c-1.1-1-1.6-2.3-1.6-3.9c0-1.5,0.5-2.8,1.6-3.8c1.1-1,2.4-1.5,4-1.5h2.4v-2
			v-1.4h-2.4c-1.6,0-3-0.5-4-1.5c-1.1-1-1.6-2.3-1.6-3.9c0-1.5,0.5-2.8,1.6-3.8c1.1-1,2.4-1.5,4-1.5h4.4c2.2-6.4,5.9-11.5,11.2-15.2
			c5.3-3.8,11.4-5.7,18.4-5.7c4.8,0,9.3,1.2,13.5,3.6c1.9,1,2.9,2.6,2.9,4.7c0,1.3-0.5,2.6-1.4,3.8c-1,1.3-2.3,2-3.8,2
			c-1.1,0-2.1-0.3-3.2-0.8c-2.5-1.4-5.1-2.1-8-2.1c-3.8,0-7.3,0.9-10.3,2.6c-3,1.7-5.4,4.1-7.2,7.2h11.7c1.6,0,3,0.5,4,1.5
			c1.1,1,1.6,2.3,1.6,3.8c0,1.5-0.5,2.8-1.6,3.9c-1.1,1-2.4,1.5-4,1.5h-14.7v1.4c0,0.9,0,1.6,0.1,2h14.6c1.6,0,3,0.5,4,1.5
			c1.1,1,1.6,2.3,1.6,3.8c0,1.5-0.5,2.8-1.6,3.9c-1.1,1-2.4,1.5-4,1.5h-11.8c1.8,3.2,4.2,5.5,7.2,7.2c3,1.6,6.5,2.4,10.3,2.4
			c3,0,5.7-0.7,8-2.1c1.1-0.5,2.1-0.7,3-0.7c1.6,0,3,0.7,4.1,2C307.9,96.7,308.4,98,308.4,99.4z"/>
	</g>
</g>
</svg>
