<?xml version="1.0" encoding="utf-8"?>
<!-- Generator: Adobe Illustrator 24.1.0, SVG Export Plug-In . SVG Version: 6.00 Build 0)  -->
<svg version="1.1" id="Layer_1" xmlns="http://www.w3.org/2000/svg" xmlns:xlink="http://www.w3.org/1999/xlink" x="0px" y="0px"
	 viewBox="0 0 512 512" style="enable-background:new 0 0 512 512;" xml:space="preserve">
<style type="text/css">
	.st0{fill:none;stroke:#0B4E9C;stroke-width:8.7931;stroke-linecap:round;stroke-linejoin:round;stroke-miterlimit:10;}
</style>
<g>
	<g>
		<line class="st0" x1="429.2" y1="233.9" x2="429.2" y2="349.5"/>
		<line class="st0" x1="273.4" y1="287.6" x2="409.3" y2="223.5"/>
		<line class="st0" x1="255.5" y1="432.7" x2="255.5" y2="314.3"/>
		<line class="st0" x1="412.5" y1="379.3" x2="273.6" y2="444.8"/>
		<line class="st0" x1="81.9" y1="233.1" x2="81.9" y2="351.9"/>
		<polyline class="st0" points="239,288.2 103.9,224.5 102.6,223.9 		"/>
		<line class="st0" x1="255.5" y1="432.5" x2="255.5" y2="314.3"/>
		<line class="st0" x1="99.3" y1="379.6" x2="237.9" y2="445"/>
		<line class="st0" x1="101.6" y1="203.9" x2="237.2" y2="136"/>
		<line class="st0" x1="238.4" y1="287.1" x2="102.5" y2="223.4"/>
		<line class="st0" x1="410.3" y1="222.5" x2="273.4" y2="287"/>
		<line class="st0" x1="272.1" y1="135.9" x2="410.5" y2="204.7"/>
	</g>
	<line class="st0" x1="254.9" y1="108" x2="254.9" y2="46.6"/>
	<polyline class="st0" points="223.5,72.4 254.9,41 286.3,72.4 	"/>
	<line class="st0" x1="64.6" y1="378.9" x2="10.5" y2="405.9"/>
	<polyline class="st0" points="47.6,422.4 5.5,408.4 19.6,366.3 	"/>
	<polyline class="st0" points="463.6,422.4 505.7,408.4 491.6,366.3 	"/>
	<line class="st0" x1="446.5" y1="378.8" x2="500.7" y2="405.9"/>
	<circle class="st0" cx="84.1" cy="214.2" r="18.6"/>
	<circle class="st0" cx="256.2" cy="295.7" r="18.6"/>
	<circle class="st0" cx="82.3" cy="370.9" r="18.6"/>
	<circle class="st0" cx="255.3" cy="127.2" r="18.6"/>
	<circle class="st0" cx="256.2" cy="452.4" r="18.6"/>
	<circle class="st0" cx="427.4" cy="215.1" r="18.6"/>
	<circle class="st0" cx="429.2" cy="370" r="18.6"/>
</g>
</svg>
