<?xml version="1.0" encoding="utf-8"?>
<!-- Generator: Adobe Illustrator 24.1.0, SVG Export Plug-In . SVG Version: 6.00 Build 0)  -->
<svg version="1.1" id="Layer_1" xmlns="http://www.w3.org/2000/svg" xmlns:xlink="http://www.w3.org/1999/xlink" x="0px" y="0px"
	 viewBox="0 0 512 512" style="enable-background:new 0 0 512 512;" xml:space="preserve">
<style type="text/css">
	.st0{fill:#8FA1CC;}
</style>
<g>
	<g>
		<g>
			<path class="st0" d="M189.5,220.7c-4.4-6.1-11.7-8.9-18.3-8.9c-9.4,0-18.1,4.8-21.9,15.1c-4.4-10.3-10.6-15.1-20.6-15.1
				c-9.8,0-17,4.8-20.9,15.1h-0.3v-10.6c-0.1-1.5-1.3-2.7-2.9-2.7H89.9c-1.7,0-3.1,1.3-3.1,2.9v81.3c0.1,1.5,1.3,2.6,2.8,2.7h15.9
				c1.7,0,3-1.3,3-2.9v-43.1c0-9.4-0.5-22.4,10.9-22.4c11.3,0,9.8,13.3,9.8,22.4v43.1c0,1.6,1.3,2.8,2.9,2.9H148
				c1.7,0,3.1-1.3,3.1-2.9v-43.1c0-4.6-0.1-11.5,1.5-15.6c1.6-4.1,5.6-6.7,9.5-6.7c4.6,0,8.1,1.5,9.3,7c0.8,3.3,0.4,11.8,0.4,15.2
				v43.1c0,1.6,1.3,2.8,2.9,2.9h15.8c1.7,0,3-1.3,3-2.9l0-51.3C193.5,237.5,194.5,227.6,189.5,220.7z"/>
		</g>
	</g>
	<g>
		<g>
			<path class="st0" d="M398.4,211.8c-22.9,0-35.6,19.7-35.6,45c0,25.2,12.6,45.3,35.6,45.3c22.2,0,36.2-19.7,36.2-44.5
				C434.7,232,421.9,211.8,398.4,211.8z M398.4,285.4c-12.4,0-12.3-21.2-12.3-31.1c0-9.9,0.8-25.8,12.4-25.8c5,0,8.6,2.2,10.4,7.9
				c2.1,6.5,2.4,14.7,2.4,21.6C411.3,268.3,410.7,285.4,398.4,285.4z"/>
		</g>
	</g>
	<g>
		<g>
			<path class="st0" d="M282.2,285.6c-2.9-4-5.9-7.3-5.9-14.7v-24.7c0-10.4,0.7-20.1-7-27.3c-6.1-5.8-16.2-7.9-23.9-7.9
				c-15.1,0-31.9,5.6-35.4,24.2c-0.4,2,1.1,3,2.4,3.3l15.4,1.6c1.4-0.1,2.5-1.5,2.8-2.9c1.3-6.4,6.7-9.5,12.7-9.5
				c3.3,0,7,1.2,8.9,4.1c2.2,3.3,1.9,7.7,1.9,11.5l0,2c-9.2,1.1-21.2,1.7-29.8,5.5c-9.9,4.3-16.9,13-16.9,25.9
				c0,16.5,10.4,24.7,23.7,24.7c11.3,0,17.4-2.7,26.1-11.5c2.9,4.2,3.8,6.2,9.1,10.6c1.2,0.6,2.7,0.6,3.8-0.4l0,0
				c3.2-2.8,8.9-7.8,12.1-10.5C283.4,288.8,283.2,287,282.2,285.6z M254,261.7c0,6.2,0.2,11.3-3,16.8c-2.5,4.5-6.5,7.2-10.9,7.2
				c-6.1,0-9.7-4.6-9.7-11.5c0-13.5,12.1-16,23.6-16C254,258.2,254,261.7,254,261.7z"/>
		</g>
	</g>
	<g>
		<g>
			<path class="st0" d="M507.5,221.4c-4.5-7-11.4-9.6-18.5-9.6c-10.9,0-17.2,5.3-21.6,16.4h-0.3v-12.4c-0.3-1.3-1.5-2.2-2.8-2.3
				h-14.7c-1.6,0-2.9,1.2-3.1,2.7l0,81.3c0,1.6,1.2,2.8,2.9,3h15.8c1.7,0,3.1-1.3,3.1-3v-43.8c0-5.5,0.3-10.4,2.5-15.4
				c1.8-3.9,5.3-6.5,9.2-6.5c10.9,0,9.9,13,9.9,21.9v44.2c0.1,1.4,1.4,2.4,2.8,2.6h15.9c1.6,0,2.9-1.2,3.1-2.6v-51.2
				C511.6,238.9,511.6,227.9,507.5,221.4z"/>
		</g>
	</g>
	<g>
		<g>
			<path class="st0" d="M352.4,278.5c-9.1-5.1-19.7-6.6-29.7-6.4l27-38.5c2.5-3.5,3.9-5.6,3.9-7.3v-10c0-1.7-1.3-2.9-3-2.9h-52.1
				c-1.6,0-2.9,1.2-2.9,2.9v11.6c0,1.7,1.3,2.9,3,2.9h27.2l-31.3,44.8c-1.9,2.9-1.9,6.1-1.9,8v11.8c0,1.7,1.9,3.7,3.7,2.7
				c17.7-9.4,39-8.5,55-0.1c2,1,3.8-1,3.8-2.7V283C355,281.3,354.4,279.6,352.4,278.5z"/>
		</g>
	</g>
	<g>
		<g>
			<path class="st0" d="M342.3,307.9c-3.2-4-31.1-7.5-48.2,4.5c-2.6,1.8-2.2,4.4,0.8,4c9.6-1.1,30.9-3.7,34.7,1.2
				c3.8,4.9-4.2,25-7.8,33.9c-1.1,2.7,1.2,3.8,3.7,1.8C341.4,339.9,345.5,312,342.3,307.9z"/>
		</g>
	</g>
	<g>
		<g>
			<path class="st0" d="M312.9,324.7c-33.3,14.2-69.6,21-102.6,21c-48.8,0-96.2-13.4-134.4-35.6c-3.3-2-5.8,1.5-3,4
				c35.5,32,82.3,51.3,134.4,51.3c37.1,0,80.2-11.7,110-33.6C322.1,328.1,318,322.6,312.9,324.7z"/>
		</g>
	</g>
	<g>
		<g>
			<path class="st0" d="M74.5,285.6c-2.9-4-6-7.3-6-14.7v-24.7c0-10.4,0.7-20.1-7-27.3c-6.1-5.8-16.2-7.9-23.9-7.9
				c-15.1,0-31.9,5.6-35.4,24.2c-0.4,2,1.1,3,2.4,3.3l15.4,1.6c1.4-0.1,2.5-1.5,2.7-2.9c1.3-6.4,6.7-9.5,12.7-9.5
				c3.3,0,6.9,1.2,8.9,4.1c2.2,3.3,1.9,7.7,1.9,11.5v2c-9.2,1.1-21.2,1.7-29.8,5.5c-9.9,4.3-16.9,13-16.9,25.9
				c0,16.5,10.4,24.7,23.7,24.7c11.3,0,17.4-2.7,26.1-11.5c2.9,4.2,3.8,6.2,9.1,10.6c1.2,0.6,2.7,0.6,3.7-0.4l0,0
				c3.2-2.8,8.9-7.8,12.1-10.5C75.8,288.7,75.5,287,74.5,285.6z M46.3,261.7c0,6.2,0.2,11.3-3,16.8c-2.5,4.5-6.5,7.2-11,7.2
				c-6.1,0-9.6-4.6-9.6-11.5c0-13.5,12.1-16,23.5-16V261.7z"/>
		</g>
	</g>
</g>
</svg>
