<?xml version="1.0" encoding="utf-8"?>
<!-- Generator: Adobe Illustrator 24.1.0, SVG Export Plug-In . SVG Version: 6.00 Build 0)  -->
<svg version="1.1" id="Layer_1" xmlns="http://www.w3.org/2000/svg" xmlns:xlink="http://www.w3.org/1999/xlink" x="0px" y="0px"
	 viewBox="0 0 512 512" style="enable-background:new 0 0 512 512;" xml:space="preserve">
<style type="text/css">
	.st0{fill:#8FA1CC;}
</style>
<g>
	<polygon class="st0" points="1.6,108.8 1.6,3.4 14.8,3.4 14.8,97.1 51.2,97.1 51.2,108.8 	"/>
	<polygon class="st0" points="74.1,108.8 74.1,3.4 133.7,3.4 133.7,14.8 87.5,14.8 87.5,45.1 133.7,45.1 133.7,56.7 87.5,56.7 
		87.5,97.1 133.7,97.1 133.7,108.8 	"/>
	<path class="st0" d="M237.1,28.4c-4.8-5.5-10-9.5-15.4-12.1c-5.5-2.6-11.5-3.9-18.1-3.9c-5.3,0-10.5,1.1-15.6,3.4
		c-5.1,2.3-9.5,5.4-13.2,9.4c-3.9,4.2-6.8,8.8-8.7,14c-1.9,5.2-2.9,10.9-2.9,17.1c0,4.9,0.6,9.4,1.7,13.5c1.1,4.1,2.9,7.9,5.2,11.4
		c4,6,9,10.6,14.9,13.9c5.9,3.2,12.3,4.9,19.1,4.9c6.4,0,12.4-1.4,17.9-4.2c5.5-2.8,10.6-6.9,15.1-12.4v16.6
		c-5,3.8-10.4,6.7-16.2,8.6c-5.8,1.9-11.7,2.9-17.9,2.9c-5.3,0-10.5-0.8-15.6-2.5c-5.1-1.7-9.8-4.1-14.2-7.2
		c-7.4-5.3-13-11.9-16.9-19.7c-3.9-7.8-5.8-16.3-5.8-25.6c0-8.1,1.3-15.5,3.9-22.1c2.6-6.7,6.6-12.7,11.9-18.1
		c5.1-5.2,10.9-9.1,17.1-11.6c6.3-2.6,13.1-3.9,20.5-3.9c5.8,0,11.5,0.9,17,2.8c5.5,1.8,10.9,4.7,16.2,8.6V28.4z"/>
	<path class="st0" d="M362.3,56.1c0,7.5-1.4,14.6-4.3,21.3c-2.8,6.7-7,12.6-12.4,17.8c-5.4,5.2-11.7,9.2-18.7,12
		c-7.1,2.8-14.4,4.2-22,4.2c-7.6,0-14.9-1.4-21.9-4.2c-7-2.8-13.2-6.8-18.7-12C259,89.9,254.8,84,252,77.3
		c-2.9-6.7-4.3-13.7-4.3-21.2c0-7.5,1.4-14.7,4.3-21.3c2.9-6.7,7-12.7,12.5-17.9c5.4-5.1,11.6-9.1,18.6-11.9
		c7-2.8,14.3-4.2,21.9-4.2c7.6,0,15,1.4,22,4.2c7.1,2.8,13.3,6.7,18.7,11.9c5.4,5.2,9.5,11.1,12.4,17.8
		C360.9,41.4,362.3,48.5,362.3,56.1 M305,99.6c5.9,0,11.5-1.1,16.8-3.3c5.3-2.2,10.1-5.4,14.3-9.5c4.2-4.1,7.4-8.8,9.6-14
		c2.2-5.2,3.3-10.8,3.3-16.6c0-5.9-1.1-11.5-3.3-16.8c-2.2-5.3-5.4-10-9.6-14.1c-4.2-4.1-8.9-7.3-14.3-9.4
		c-5.3-2.2-10.9-3.2-16.8-3.2c-6,0-11.6,1.1-16.9,3.2s-10,5.3-14.1,9.4c-4.2,4.2-7.4,8.9-9.6,14.2c-2.2,5.3-3.3,10.9-3.3,16.8
		c0,5.9,1.1,11.4,3.2,16.6c2.2,5.2,5.4,9.9,9.7,14.1c4.3,4.2,9.1,7.4,14.3,9.6C293.5,98.5,299.1,99.6,305,99.6"/>
	<polygon class="st0" points="48.1,26.3 48.1,0.8 61.5,0.8 	"/>
	<polygon class="st0" points="380.9,108.8 380.9,3.4 394.2,3.4 394.2,97.1 430.6,97.1 430.6,108.8 	"/>
	<polygon class="st0" points="450.5,108.8 450.5,3.4 510.2,3.4 510.2,14.8 464,14.8 464,45.1 510.2,45.1 510.2,56.7 464,56.7 
		464,97.1 510.2,97.1 510.2,108.8 	"/>
	<polygon class="st0" points="133.7,243.9 133.7,135.1 152,135.1 152,175.4 172.6,175.4 172.6,135.1 191,135.1 191,243.9 
		172.6,243.9 172.6,198.1 152,198.1 152,243.9 	"/>
	<path class="st0" d="M202.6,243.9l23.2-109.4h20.8l22.1,109.4h-19.8l-3.3-19.2h-20l-3.1,19.2H202.6z M229.8,202.5h11.6l-2.8-18.8
		c-1.1-8.4-2-17.2-2.9-26.5c-1,8.2-2.1,16.5-3.2,24.9L229.8,202.5z"/>
	<path class="st0" d="M333,134.5v67.9c0,8.3-0.2,14.2-0.6,17.7c-0.4,3.5-1.1,6.4-2,8.6c-2.1,5.2-5.2,9-9.3,11.5
		c-4.1,2.5-9.3,3.7-15.7,3.7s-11.6-1.2-15.8-3.7c-4.1-2.5-7.2-6.3-9.3-11.5c-1-2.3-1.7-5.2-2.1-8.7c-0.4-3.5-0.6-9.4-0.6-17.5v-3.2
		v-64.7h17.7v69.6c0,8.8,0.7,11.6,2.2,14.2c1.5,2.5,4.1,3.8,7.9,3.8c3.8,0,6.5-1.3,7.9-3.9c1.4-2.6,2.2-5.4,2.2-14.1v-69.6
		L333,134.5L333,134.5z"/>
	<polygon class="st0" points="363.6,243.9 363.6,157.6 350.7,157.6 350.7,134.5 393.5,134.5 393.5,157.6 380.6,157.6 380.6,243.9 	
		"/>
	<polygon class="st0" points="409.6,243.9 409.6,134.5 448.1,134.5 448.1,157.6 427.3,157.6 427.3,176.9 446.2,176.9 446.2,201.3 
		427.3,201.3 427.3,219.7 448.1,219.7 448.1,243.9 	"/>
	<polygon class="st0" points="1.6,374.2 1.6,266.3 47.8,266.3 47.8,285.8 18.4,285.8 18.4,307.9 47.8,307.9 47.8,327.5 18.4,327.5 
		18.4,354.6 47.8,354.6 47.8,374.2 	"/>
	<polygon class="st0" points="94.9,285.9 94.9,374.2 78.2,374.2 78.2,285.9 59.2,285.9 59.2,266.3 113.9,266.3 113.9,285.9 	"/>
	<path class="st0" d="M181.4,266.3v67.1c0,14.6-2.3,25.6-6.8,32.8c-4.5,7.2-11.4,10.8-20.5,10.8c-9.3,0-16.2-3.6-20.7-10.8
		c-4.5-7.2-6.8-18.2-6.8-32.8v-67.1H140v63.5c0,8.9,1.2,18.5,3.5,23c2.3,4.5,5.8,6.7,10.4,6.7c4.6,0,8.1-2.3,10.5-6.8
		c2.4-4.5,3.6-14.1,3.6-22.9v-63.5L181.4,266.3L181.4,266.3z"/>
	<path class="st0" d="M199.5,374.2V266.3h19.6c7.7,0,13.8,0.8,18.3,2.4c4.5,1.6,8.4,4.3,11.8,8.1c4.4,4.9,7.7,11,9.9,18.4
		c2.2,7.4,3.4,15.8,3.4,25.2c0,9.6-1.2,18.1-3.4,25.5c-2.3,7.4-5.7,13.5-10.1,18.3c-3.3,3.5-6.9,6.1-11,7.6c-4,1.5-9.9,2.3-17.6,2.3
		h-5.5L199.5,374.2L199.5,374.2z M214.9,354.7h8.6c8.1,0,14-2.8,17.6-8.2c3.7-5.5,5.5-14.2,5.5-26.2c0-11.9-1.8-20.6-5.5-26.1
		c-3.7-5.5-9.6-8.3-17.6-8.3h-8.6V354.7z"/>
	<polygon class="st0" points="268.6,374.2 268.6,266.3 315.7,266.3 315.7,285.8 285.7,285.8 285.7,307.9 315.7,307.9 315.7,327.5 
		285.7,327.5 285.7,354.6 315.7,354.6 315.7,374.2 	"/>
	<path class="st0" d="M327.1,360.3l9.3-14.5c1.2,4,3.1,7.1,5.7,9.4c2.6,2.3,5.5,3.4,8.8,3.4c3.9,0,7-1.3,9.3-3.8
		c2.3-2.5,3.4-6,3.4-10.3c0-5.1-3.8-10.2-11.4-15.3c-2.5-1.6-4.4-3-5.8-4c-6.9-4.9-11.6-9.7-14.2-14.4c-2.6-4.7-4-10.3-4-16.8
		c0-8.9,2.6-16.2,7.7-21.9c5.1-5.7,11.8-8.6,19.9-8.6c4.7,0,8.8,1.1,12.3,3.4c3.4,2.3,6.5,5.9,9.1,10.7l-9.9,13
		c-1.2-3.1-2.7-5.5-4.7-7c-1.9-1.5-4.3-2.3-7-2.3c-3.3,0-6,1.1-8,3.4c-2,2.3-3,5.2-3,8.9c0,5.7,4,10.9,12.1,15.6
		c1.6,0.9,2.8,1.7,3.7,2.2c6.6,4.2,11.5,8.9,14.7,14.1c3.2,5.3,4.8,11.3,4.8,18c0,10.1-2.5,18.2-7.5,24.2c-5,6-11.7,9-20.2,9
		c-6,0-11.1-1.4-15.4-4.3C332.4,369.8,329.2,365.7,327.1,360.3"/>
	<path class="st0" d="M501.9,163.1c-1.5-1.9-3-3.4-4.4-4.5c-1.4-1.2-2.8-2-4.2-2.4c-0.5-0.2-0.9-0.4-1.4-0.4
		c-0.4-0.1-0.9-0.1-1.4-0.1c-2.4,0-4.3,0.9-5.8,2.7c-1.4,1.8-2.1,4.1-2.1,7c0,2.6,0.8,4.7,2.3,6.2c1.6,1.5,3.5,2.8,5.8,4
		c1,0.6,1.9,1.1,3,1.6c1.1,0.5,2.2,1.1,3.3,1.7c3.6,2.1,6.9,5.2,9.9,9.3c3,4.1,4.5,10.6,4.5,19.5c0,1.2,0,2.5-0.1,3.9
		c-0.1,1.4-0.2,2.8-0.3,4.2c-0.2,2.3-0.5,4.6-0.9,6.8c-0.4,2.2-0.7,4-1.1,5.4c-1.8,5.7-4.9,10.3-9.2,13.8c-4.3,3.5-8.9,5.3-14,5.3
		c-4.4,0-8.7-1-12.8-3c-4.2-2-8-5.1-11.7-9.3l7.6-22.9c2,2.9,4,5.2,6,6.9c2,1.8,3.9,3,5.8,3.6c0.6,0.2,1.3,0.4,1.9,0.5
		c0.6,0.1,1.3,0.2,1.9,0.2c2.6,0,4.6-1,6.2-3c1.6-2,2.3-4.6,2.3-7.9c0-3.2-0.9-5.6-2.7-7.2c-1.8-1.6-3.9-3.1-6.4-4.4
		c-0.9-0.4-1.8-0.9-2.7-1.3c-0.9-0.4-1.8-0.9-2.7-1.5c-3.7-2-7-5-10-9c-3-4-4.5-10.6-4.5-19.9c0-11.1,2.1-20.1,6.4-26.9
		c4.2-6.8,9.9-10.2,16.8-10.2c1.4,0,2.9,0.1,4.3,0.4c1.4,0.3,2.9,0.6,4.3,1.1c2.1,0.8,4.3,1.8,6.5,3c2.2,1.2,4.3,2.7,6.4,4.5
		L501.9,163.1z"/>
	<path class="st0" d="M108.3,245H2.1v-9.2c0-6.8,0.8-11.6,2.3-14.3c1.5-2.8,4.1-5.2,7.6-7.3c4.7-2.7,10.7-4.8,18-6.2
		c7.3-1.4,15.7-2.1,25.2-2.1c9.5,0,17.8,0.7,25.1,2.1c7.3,1.4,13.3,3.5,17.9,6.2c3.6,2.1,6.1,4.5,7.6,7.1c1.5,2.7,2.3,6.8,2.3,12.4
		v2.1L108.3,245L108.3,245z M96.4,239.3v-3.6c0-5.9-0.6-9.9-1.7-12.2c-1.1-2.3-3.1-4.1-5.8-5.6c-3.6-2-8.3-3.4-14-4.5
		c-5.7-1-12.3-1.5-19.7-1.5c-7.4,0-14,0.5-19.6,1.5c-5.6,1-10.3,2.5-14,4.5c-2.8,1.5-4.8,3.4-6,5.7c-1.2,2.3-1.8,6.4-1.8,12.1v3.6
		L96.4,239.3L96.4,239.3z"/>
	<polygon class="st0" points="108.3,197 2.1,197 2.1,171.8 13.7,171.8 13.7,191.3 44.1,191.3 44.1,171.8 55.9,171.8 55.9,191.3 
		96.5,191.3 96.5,171.8 108.3,171.8 	"/>
	<path class="st0" d="M49.3,145.2c2.9-3.1,6.9-5.5,11.7-7c4.9-1.6,10.7-2.4,17.3-2.4c9.8,0,17.6,1.4,23.6,4.2c6,2.8,9,6.5,9,11.1
		c0,3.8-2.1,6.9-6.4,9.4c-4.3,2.5-10.4,4.3-18.2,5.2l-5.6-5.2c6.4-0.7,11.3-1.8,14.6-3.4c3.3-1.6,5-3.6,5-6c0-2.9-1.8-5.2-5.5-6.9
		c-3.6-1.8-8.4-2.6-14.2-2.6c-4.7,0-8.9,0.6-12.4,1.8c-3.5,1.2-6.5,3.1-8.9,5.6l-5.5,5.8c-2.9,3.2-6.7,5.5-11.4,7.1
		c-4.7,1.6-10.2,2.3-16.7,2.3c-7.5,0-13.8-1.3-18.7-3.8c-4.9-2.5-7.4-5.7-7.4-9.7c0-2.9,1.4-5.4,4.1-7.4c2.7-2.1,6.7-3.7,12-4.9
		l6.7,4.7c-4.1,1.1-7.2,2.3-9.2,3.6c-2,1.3-3,2.8-3,4.5c0,2.1,1.5,3.9,4.3,5.2c2.9,1.4,6.6,2,11.1,2c3.8,0,7-0.5,9.8-1.6
		c2.8-1,5.2-2.7,7.3-4.9L49.3,145.2z"/>
	<polygon class="st0" points="510.2,375.4 397.5,375.4 397.5,338.3 417.8,338.3 417.8,361.9 441,361.9 441,338.3 461.4,338.3 
		461.4,361.9 489.7,361.9 489.7,338.3 510.2,338.3 	"/>
	<path class="st0" d="M510.2,320.2H397.5v-12.7l65.6-25.3c1.9-0.7,4.5-1.5,7.8-2.4c3.4-0.9,7.3-1.8,11.9-2.7
		c-3.3,0.3-6.6,0.5-9.9,0.6c-3.3,0.1-7.4,0.2-12.3,0.2h-63.1v-11.7h112.7v12l-66.8,26c-1.8,0.7-4.5,1.5-7.8,2.4
		c-3.4,0.8-7.4,1.8-12.1,2.7c3.2-0.3,6.5-0.5,9.8-0.6c3.3-0.1,7.5-0.2,12.5-0.2h64.4L510.2,320.2L510.2,320.2z"/>
	<path class="st0" d="M36.6,401.1l-5.3,3c-1.2-1.6-2.2-2.7-3.1-3.4c-1.9-1.5-4.3-2.2-7.2-2.2c-3.1,0-5.5,0.9-7.4,2.6
		c-1.7,1.6-2.6,3.4-2.6,5.4c0,2.3,1.2,4.1,3.7,5.6c1.1,0.6,2.1,1.1,3,1.5c0.9,0.4,3.4,1.3,7.5,2.9c4.9,1.9,8.3,3.9,10.3,6
		c2.2,2.3,3.3,5.1,3.3,8.4c0,4.8-2.1,8.8-6.3,12c-3.6,2.7-7.8,4-12.8,4c-4.8,0-8.7-1.2-12-3.5c-3.2-2.3-5.4-5.6-6.5-9.9l6.5-1.6
		c0.6,2.3,1.4,4.1,2.4,5.4c2.4,2.8,5.6,4.2,9.9,4.2c3.5,0,6.4-1.1,8.7-3.2c2.2-2,3.3-4.3,3.3-7.1c0-3.1-1.7-5.6-5-7.4
		c-1.5-0.8-5.1-2.3-10.7-4.5c-4.4-1.8-7.5-3.6-9.3-5.6c-1.9-2.1-2.8-4.5-2.8-7.3c0-4.4,2-7.8,6-10.4c3.2-2,6.8-3,10.8-3
		C27.8,393,33,395.7,36.6,401.1"/>
	<path class="st0" d="M96.5,398.2v7.2c-2.6-2.1-4.9-3.6-7.1-4.6c-3.6-1.6-7.3-2.3-11.1-2.3c-4.3,0-8.3,1-12.1,3
		c-4.1,2.1-7.2,5-9.4,8.8c-1.8,3.1-2.7,6.4-2.7,9.9c0,6.5,2.8,11.7,8.3,15.8c4.8,3.6,10.1,5.4,16,5.4c3.3,0,6.5-0.6,9.4-1.7
		c2.9-1.1,5.8-2.8,8.7-5.2v7.2c-5.7,3.4-11.7,5.1-18.1,5.1c-5.1,0-9.8-1-14.4-3.1c-5.8-2.6-10.2-6.4-13.2-11.3
		c-2.4-3.9-3.5-8-3.5-12.3c0-4.4,1.2-8.7,3.7-12.7c2.8-4.6,6.9-8.2,12-10.7c4.8-2.4,10.1-3.6,15.7-3.6c3.3,0,6.3,0.4,9.1,1.2
		C90.6,395,93.5,396.3,96.5,398.2"/>
	<rect x="108.3" y="393.9" class="st0" width="6.7" height="52"/>
	<polygon class="st0" points="161.2,399.3 136.8,399.3 136.8,414.7 160.6,414.7 160.6,420.2 136.8,420.2 136.8,440.5 161.2,440.5 
		161.2,445.9 130.1,445.9 130.1,393.9 161.2,393.9 	"/>
	<polygon class="st0" points="173,445.9 173,391.7 219.8,434.2 219.8,393.9 226.6,393.9 226.6,448.3 179.7,405.8 179.7,445.9 	"/>
	<path class="st0" d="M286.1,398.2v7.2c-2.5-2.1-4.9-3.6-7.1-4.6c-3.6-1.6-7.3-2.3-11.1-2.3c-4.3,0-8.3,1-12.1,3
		c-4.1,2.1-7.2,5-9.4,8.8c-1.8,3.1-2.7,6.4-2.7,9.9c0,6.5,2.8,11.7,8.3,15.8c4.8,3.6,10.2,5.4,16,5.4c3.3,0,6.5-0.6,9.4-1.7
		c2.9-1.1,5.8-2.8,8.7-5.2v7.2c-5.7,3.4-11.7,5.1-18.1,5.1c-5,0-9.9-1-14.4-3.1c-5.8-2.6-10.2-6.4-13.2-11.3
		c-2.4-3.9-3.5-8-3.5-12.3c0-4.4,1.2-8.7,3.7-12.7c2.8-4.6,6.8-8.2,12-10.7c4.8-2.4,10.1-3.6,15.7-3.6c3.3,0,6.3,0.4,9.1,1.2
		C280.2,395,283.1,396.3,286.1,398.2"/>
	<polygon class="st0" points="327.6,399.3 303.2,399.3 303.2,414.7 326.9,414.7 326.9,420.2 303.2,420.2 303.2,440.5 327.6,440.5 
		327.6,445.9 296.4,445.9 296.4,393.9 327.6,393.9 	"/>
	<path class="st0" d="M374.3,401.1l-5.3,3c-1.2-1.6-2.2-2.7-3.1-3.4c-1.9-1.5-4.3-2.2-7.2-2.2c-3.1,0-5.5,0.9-7.4,2.6
		c-1.7,1.6-2.6,3.4-2.6,5.4c0,2.3,1.3,4.1,3.7,5.6c1.1,0.6,2.1,1.1,3,1.5c0.9,0.4,3.4,1.3,7.5,2.9c4.9,1.9,8.3,3.9,10.3,6
		c2.2,2.3,3.3,5.1,3.3,8.4c0,4.8-2.1,8.8-6.3,12c-3.6,2.7-7.8,4-12.8,4c-4.8,0-8.7-1.2-12-3.5c-3.2-2.3-5.4-5.6-6.6-9.9l6.5-1.6
		c0.6,2.3,1.4,4.1,2.4,5.4c2.3,2.8,5.6,4.2,9.9,4.2c3.5,0,6.4-1.1,8.7-3.2c2.2-2,3.3-4.3,3.3-7.1c0-3.1-1.6-5.6-5-7.4
		c-1.5-0.8-5.1-2.3-10.7-4.5c-4.4-1.8-7.5-3.6-9.3-5.6c-1.9-2.1-2.8-4.5-2.8-7.3c0-4.4,2-7.8,6-10.4c3.2-2,6.8-3,10.8-3
		C365.6,393,370.8,395.7,374.3,401.1"/>
	<path class="st0" d="M36.5,468.7l-5.1,2.8c-1.1-1.5-2.2-2.6-3-3.2c-1.8-1.4-4.2-2.1-7-2.1c-3,0-5.4,0.8-7.2,2.4
		c-1.6,1.5-2.5,3.2-2.5,5.1c0,2.1,1.2,3.9,3.6,5.3c1.1,0.6,2,1.1,2.9,1.4c0.8,0.4,3.3,1.3,7.2,2.7c4.8,1.8,8.1,3.6,10,5.6
		c2.1,2.2,3.2,4.8,3.2,7.9c0,4.5-2,8.3-6.1,11.3c-3.4,2.5-7.6,3.8-12.4,3.8c-4.6,0-8.5-1.1-11.6-3.3c-3.1-2.2-5.2-5.3-6.4-9.3
		l6.3-1.5c0.6,2.2,1.3,3.9,2.3,5.1c2.3,2.6,5.5,3.9,9.6,3.9c3.4,0,6.2-1,8.5-3c2.2-1.9,3.2-4.1,3.2-6.7c0-2.9-1.6-5.3-4.8-7
		c-1.5-0.8-4.9-2.2-10.3-4.2c-4.3-1.6-7.3-3.4-9.1-5.2c-1.8-1.9-2.7-4.2-2.7-6.8c0-4.1,1.9-7.4,5.8-9.8c3.1-1.9,6.6-2.8,10.5-2.8
		C28.1,461,33.1,463.6,36.5,468.7"/>
	<path class="st0" d="M77,461c5.6,0,10.7,1.1,15.4,3.4c4.9,2.3,8.8,5.4,11.6,9.3c2.8,3.9,4.2,8.1,4.2,12.7c0,4.5-1.4,8.7-4.3,12.7
		c-2.7,3.8-6.4,6.8-11.1,9c-5,2.4-10.4,3.6-16.2,3.6c-5.3,0-10.4-1.1-15.3-3.4c-5.2-2.4-9.1-5.7-11.9-9.7c-2.6-3.7-3.8-7.9-3.8-12.5
		c0-6.9,3.3-13,9.9-18C61.4,463.5,68.6,461.2,77,461 M77,466.2c-7.5,0-13.6,2.3-18.6,7c-4,3.8-6,8.1-6,12.9c0,6,2.6,11,7.7,14.9
		c2.6,2,5.7,3.5,9,4.5c2.6,0.7,5.1,1.1,7.6,1.1c4.6,0,8.8-1,12.7-2.9c3.9-1.9,6.9-4.3,8.9-7.5c2-3,3-6.3,3-9.8
		c0-5.7-2.5-10.6-7.5-14.6C89.4,468.1,83.7,466.3,77,466.2"/>
	<path class="st0" d="M169.3,465.9v6.8c-2.6-2-5-3.4-7.2-4.3c-3.7-1.5-7.4-2.2-11.2-2.2c-4.4,0-8.4,0.9-12.3,2.8
		c-4.2,2-7.4,4.7-9.6,8.2c-1.9,2.9-2.8,6-2.8,9.3c0,6.1,2.8,11,8.4,14.9c4.9,3.4,10.3,5.1,16.3,5.1c3.4,0,6.6-0.5,9.5-1.6
		c3-1,5.9-2.7,8.9-4.9v6.8c-5.8,3.2-11.9,4.8-18.4,4.8c-5.1,0-10-1-14.6-2.9c-5.9-2.5-10.3-6-13.4-10.7c-2.4-3.6-3.6-7.5-3.6-11.6
		c0-4.2,1.3-8.2,3.8-11.9c2.9-4.3,7-7.7,12.2-10.1c4.9-2.3,10.2-3.4,16-3.4c3.4,0,6.4,0.4,9.2,1.1
		C163.3,462.9,166.2,464.2,169.3,465.9"/>
	<rect x="179.6" y="461.9" class="st0" width="7" height="48.9"/>
	<path class="st0" d="M236.5,497h-26.6l-7.5,13.8h-7.6l28.7-51.3l28,51.3h-7.6L236.5,497z M233.8,491.9l-10.4-19.6l-10.6,19.6H233.8
		z"/>
	<polygon class="st0" points="265.1,461.9 265.1,505.7 282.2,505.7 282.2,510.8 258.1,510.8 258.1,461.9 	"/>
	<polygon class="st0" points="327.8,467 303.5,467 303.5,481.5 327.1,481.5 327.1,486.6 303.5,486.6 303.5,505.7 327.8,505.7 
		327.8,510.8 296.8,510.8 296.8,461.9 327.8,461.9 	"/>
	<path class="st0" d="M377.4,468.7l-5.5,2.8c-1.2-1.5-2.3-2.6-3.2-3.2c-2-1.4-4.5-2.1-7.5-2.1c-3.2,0-5.8,0.8-7.7,2.4
		c-1.8,1.5-2.6,3.2-2.6,5.1c0,2.1,1.3,3.9,3.9,5.3c1.2,0.6,2.2,1.1,3.1,1.4c0.9,0.4,3.5,1.3,7.7,2.7c5.1,1.8,8.6,3.6,10.7,5.6
		c2.3,2.2,3.4,4.8,3.4,7.9c0,4.5-2.2,8.3-6.5,11.3c-3.7,2.5-8.1,3.8-13.3,3.8c-4.9,0-9.1-1.1-12.4-3.3c-3.3-2.2-5.6-5.3-6.8-9.3
		l6.7-1.5c0.6,2.2,1.4,3.9,2.5,5.1c2.4,2.6,5.8,3.9,10.2,3.9c3.6,0,6.6-1,9-3c2.3-1.9,3.5-4.1,3.5-6.7c0-2.9-1.7-5.3-5.2-7
		c-1.6-0.8-5.3-2.2-11-4.2c-4.6-1.6-7.8-3.4-9.7-5.2c-1.9-1.9-2.9-4.2-2.9-6.8c0-4.1,2.1-7.4,6.2-9.8c3.3-1.9,7-2.8,11.2-2.8
		C368.4,461,373.7,463.6,377.4,468.7"/>
	<rect x="397.5" y="397.5" class="st0" width="112.7" height="113.3"/>
	<rect x="1.2" y="450.9" class="st0" width="375.4" height="3.9"/>
</g>
</svg>
