<?xml version="1.0" encoding="utf-8"?>
<!-- Generator: Adobe Illustrator 24.1.0, SVG Export Plug-In . SVG Version: 6.00 Build 0)  -->
<svg version="1.1" id="Layer_1" xmlns="http://www.w3.org/2000/svg" xmlns:xlink="http://www.w3.org/1999/xlink" x="0px" y="0px"
	 viewBox="0 0 512 512" style="enable-background:new 0 0 512 512;" xml:space="preserve">
<style type="text/css">
	.st0{fill:none;stroke:#2086AB;stroke-width:9;stroke-linecap:round;stroke-linejoin:round;stroke-miterlimit:10;}
	.st1{fill:#2086AB;}
	.st2{fill:none;stroke:#2086AB;stroke-width:4.5;stroke-linecap:round;stroke-linejoin:round;stroke-miterlimit:10;}
</style>
<path class="st0" d="M492.3,412.7H19.7c-6.7,0-12.1-5.4-12.1-12.1V111.4c0-6.7,5.4-12.1,12.1-12.1h472.6c6.7,0,12.1,5.4,12.1,12.1
	v289.2C504.4,407.3,499,412.7,492.3,412.7z"/>
<g>
	<circle class="st1" cx="37.4" cy="125" r="7.9"/>
	<circle class="st1" cx="59.3" cy="125" r="7.9"/>
	<circle class="st1" cx="81.2" cy="125" r="7.9"/>
</g>
<path class="st2" d="M361.8,134.7H120.6c-5.3,0-9.7-4.4-9.7-9.7v0c0-5.3,4.4-9.7,9.7-9.7h241.1c5.3,0,9.7,4.4,9.7,9.7v0
	C371.5,130.3,367.1,134.7,361.8,134.7z"/>
<g>
	<g>
		<line class="st0" x1="56.1" y1="217.7" x2="222" y2="217.7"/>
		<line class="st0" x1="56.1" y1="242.9" x2="222" y2="242.9"/>
		<line class="st0" x1="56.1" y1="268.1" x2="222" y2="268.1"/>
		<line class="st0" x1="56.1" y1="293.4" x2="222" y2="293.4"/>
		<line class="st0" x1="56.1" y1="318.6" x2="222" y2="318.6"/>
		<line class="st0" x1="56.1" y1="343.8" x2="222" y2="343.8"/>
		<line class="st0" x1="56.1" y1="369" x2="133.4" y2="369"/>
		<line class="st0" x1="57.1" y1="192.4" x2="223" y2="192.4"/>
	</g>
	<g>
		<line class="st0" x1="290" y1="217.7" x2="455.9" y2="217.7"/>
		<line class="st0" x1="290" y1="242.9" x2="455.9" y2="242.9"/>
		<line class="st0" x1="290" y1="268.1" x2="353" y2="268.1"/>
		<line class="st0" x1="290" y1="318.6" x2="455.9" y2="318.6"/>
		<line class="st0" x1="290" y1="343.8" x2="455.9" y2="343.8"/>
		<line class="st0" x1="290" y1="369" x2="403.5" y2="369"/>
		<line class="st0" x1="290.4" y1="192.4" x2="456.4" y2="192.4"/>
	</g>
</g>
<path class="st0" d="M504.4,150.7H7.6v-39.3c0-6.7,5.4-12.1,12.1-12.1h472.6c6.7,0,12.1,5.4,12.1,12.1V150.7z"/>
</svg>
