<?xml version="1.0" encoding="utf-8"?>
<!-- Generator: Adobe Illustrator 24.1.0, SVG Export Plug-In . SVG Version: 6.00 Build 0)  -->
<svg version="1.1" id="Layer_1" xmlns="http://www.w3.org/2000/svg" xmlns:xlink="http://www.w3.org/1999/xlink" x="0px" y="0px"
	 viewBox="0 0 512 512" style="enable-background:new 0 0 512 512;" xml:space="preserve">
<style type="text/css">
	.st0{fill:none;stroke:#8FA1CC;stroke-width:9;stroke-linecap:round;stroke-linejoin:round;stroke-miterlimit:10;}
</style>
<polyline class="st0" points="253.2,196.2 85.8,230.7 241.7,307.5 438.8,267.4 297.8,195.3 "/>
<polygon class="st0" points="483.5,367.7 286.9,407.8 242.2,308.1 438.8,267.9 "/>
<polygon class="st0" points="26.2,323 182.6,399.8 242.2,308.1 85.8,231.3 "/>
<polyline class="st0" points="438.3,266.8 485.8,322.4 458.4,310.6 "/>
<polygon class="st0" points="182.6,399.8 85.8,352.2 85.8,428.4 242.2,505.2 242.2,308.1 "/>
<polygon class="st0" points="286.9,407.8 242.2,308.1 242.2,505.2 438.8,465.1 438.8,376.8 "/>
<g>
	<line class="st0" x1="198.8" y1="9.4" x2="196.2" y2="6.8"/>
	<line class="st0" x1="207.1" y1="17.7" x2="204.5" y2="15"/>
	<line class="st0" x1="198.8" y1="15" x2="196.2" y2="17.7"/>
	<line class="st0" x1="207.1" y1="6.8" x2="204.5" y2="9.4"/>
</g>
<g>
	<line class="st0" x1="444.4" y1="201.1" x2="438.6" y2="195.3"/>
	<line class="st0" x1="465.4" y1="222.1" x2="459.6" y2="216.3"/>
	<line class="st0" x1="444.4" y1="216.3" x2="438.6" y2="222.1"/>
	<line class="st0" x1="465.4" y1="195.3" x2="459.6" y2="201.1"/>
</g>
<polygon class="st0" points="321.4,146 283.8,148.3 266.2,35.4 208.2,187.9 254.6,184.3 259.9,270.6 "/>
<g>
	<line class="st0" x1="377.9" y1="57.2" x2="374.4" y2="55.1"/>
	<line class="st0" x1="398.8" y1="69.5" x2="395.3" y2="67.4"/>
	<line class="st0" x1="381.5" y1="71" x2="379.4" y2="74.5"/>
	<line class="st0" x1="393.8" y1="50.1" x2="391.7" y2="53.6"/>
</g>
<g>
	<line class="st0" x1="115.2" y1="138.6" x2="107.9" y2="128.4"/>
	<line class="st0" x1="138.4" y1="171" x2="131.1" y2="160.8"/>
	<line class="st0" x1="112.1" y1="157.6" x2="101.8" y2="164.9"/>
	<line class="st0" x1="144.5" y1="134.5" x2="134.2" y2="141.8"/>
</g>
<g>
	<line class="st0" x1="380.4" y1="146.5" x2="379" y2="143.1"/>
	<line class="st0" x1="384.9" y1="157.3" x2="383.4" y2="153.9"/>
	<line class="st0" x1="378.2" y1="151.8" x2="374.8" y2="153.2"/>
	<line class="st0" x1="389" y1="147.3" x2="385.6" y2="148.7"/>
</g>
</svg>
