<?xml version="1.0" encoding="utf-8"?>
<!-- Generator: Adobe Illustrator 24.1.0, SVG Export Plug-In . SVG Version: 6.00 Build 0)  -->
<svg version="1.1" id="Layer_1" xmlns="http://www.w3.org/2000/svg" xmlns:xlink="http://www.w3.org/1999/xlink" x="0px" y="0px"
	 viewBox="0 0 512 512" style="enable-background:new 0 0 512 512;" xml:space="preserve">
<style type="text/css">
	.st0{fill:none;stroke:#2086AB;stroke-width:8.7536;stroke-linecap:round;stroke-linejoin:round;stroke-miterlimit:10;}
</style>
<g>
	<path class="st0" d="M488.1,314.8h-3.8c-0.1-8-0.3-25.5-0.3-33c0-22.3-8.7-43.5-24.4-59.5c-15.8-16.1-36.8-25-59-25
		s-43.2,8.9-59,25c-15.7,16-24.4,37.2-24.4,59.5c0,7.5,0.2,25,0.3,33H313c-9.1,0-16.5,7.4-16.5,16.5v136c0,9.1,7.4,16.5,16.5,16.5
		h175.1c9.1,0,16.5-7.4,16.5-16.5v-136C504.6,322.2,497.2,314.8,488.1,314.8z M350,279.4c0.2-14.1,5.7-27,15.6-36.3
		c9.4-8.9,21.9-13.9,35-14.2c12.6-0.3,25.4,5.1,35.1,14.6c10.1,9.9,15.6,22.8,15.6,36.3v35h-101C350.3,306.3,350,286.8,350,279.4z
		 M412.2,392.8c-0.7,3.4-2.5,6.4-5.3,8.5v15.5c0,4.6-3.7,8.2-8.2,8.2s-8.2-3.7-8.2-8.2v-15.5c-1.2-0.9-2.3-2-3.2-3.3
		c-2.1-3.1-2.8-6.7-2.1-10.3c0.7-3.6,2.8-6.8,5.8-8.8c3.1-2.1,6.7-2.8,10.3-2.1c3.6,0.7,6.8,2.8,8.8,5.8
		C412.2,385.5,412.9,389.2,412.2,392.8z"/>
	<path class="st0" d="M276.4,467.2v-44.6c-23.8,5.3-53.5,8.5-85.8,8.5c-78.3,0-141.9-18.7-141.9-41.8c0-4.9,2.9-9.5,8.1-13.9
		c40.6,18.6,96.8,21,133.8,21c23.7,0,55.4-1.5,85.8-7.6v-57.6c0-2.3,0.2-4.5,0.6-6.7c-5.5,1.3-11.4,2.4-17.5,3.4
		c-0.1,0-0.3,0-0.4,0.1c-1.5,0.2-3,0.5-4.5,0.7c-0.5,0.1-0.9,0.1-1.4,0.2c-1.3,0.2-2.7,0.4-4.1,0.6c-0.7,0.1-1.3,0.2-2,0.3
		c-1.3,0.2-2.6,0.3-3.9,0.5c-0.8,0.1-1.6,0.2-2.4,0.3c-1.2,0.1-2.4,0.3-3.7,0.4c-0.9,0.1-1.8,0.2-2.7,0.3c-1.2,0.1-2.4,0.2-3.5,0.3
		c-1,0.1-2,0.2-3,0.3c-1.1,0.1-2.3,0.2-3.4,0.3c-1.1,0.1-2.2,0.2-3.3,0.2c-1.1,0.1-2.2,0.1-3.3,0.2c-1.2,0.1-2.4,0.1-3.5,0.2
		c-1,0.1-2.1,0.1-3.1,0.2c-1.3,0.1-2.6,0.1-3.9,0.1c-1,0-1.9,0.1-2.9,0.1c-1.5,0-3,0.1-4.6,0.1c-0.8,0-1.6,0-2.4,0
		c-2.3,0-4.7,0.1-7,0.1c-2.4,0-4.8,0-7.1-0.1c-0.8,0-1.6,0-2.4-0.1c-1.5,0-3.1-0.1-4.6-0.1c-1,0-2-0.1-3-0.1c-1.3,0-2.6-0.1-3.9-0.1
		c-1.1,0-2.2-0.1-3.3-0.2c-1.2-0.1-2.3-0.1-3.5-0.2c-1.2-0.1-2.4-0.2-3.5-0.2c-1-0.1-2.1-0.1-3.1-0.2c-1.2-0.1-2.5-0.2-3.7-0.3
		c-1-0.1-1.9-0.2-2.8-0.2c-1.3-0.1-2.5-0.2-3.8-0.4c-0.9-0.1-1.7-0.2-2.6-0.3c-1.3-0.1-2.6-0.3-3.9-0.4c-0.8-0.1-1.5-0.2-2.3-0.3
		c-1.3-0.2-2.7-0.3-4-0.5c-0.7-0.1-1.4-0.2-2-0.3c-1.4-0.2-2.7-0.4-4.1-0.6c-0.6-0.1-1.2-0.2-1.8-0.3c-1.4-0.2-2.8-0.4-4.2-0.7
		c-0.5-0.1-1-0.2-1.5-0.3c-1.4-0.2-2.8-0.5-4.2-0.8c-0.4-0.1-0.8-0.2-1.3-0.2c-1.5-0.3-2.9-0.6-4.3-0.8c-0.3-0.1-0.7-0.1-1-0.2
		c-1.5-0.3-2.9-0.6-4.4-1c-0.2-0.1-0.5-0.1-0.7-0.2c-1.5-0.3-3-0.7-4.5-1.1c-0.1,0-0.3-0.1-0.4-0.1c-1.5-0.4-3.1-0.8-4.6-1.2
		c-27.9-7.6-45.3-18.5-45.3-30.6c0-4.9,2.9-9.5,8.1-13.9c40.6,18.6,96.8,21,133.8,21c29.2,0,70.4-2.3,106.4-12.6c0-1.6,0-3,0-4.2
		c0-27.6,10.7-53.8,30.2-73.6c12.1-12.3,26.6-21.2,42.4-26.2c-3.7-8.6-9.4-16.2-16.5-22.8c13.3-12.6,21.5-28.9,21.5-49.9
		c0-80.6-135.2-91.3-184-91.3s-184,7.2-184,91.3c0,21.1,7.6,37.4,20,50c-12.3,12.2-20,27.9-20,47.9c0,21.1,7.6,37.4,20,50
		c-12.3,12.2-20,27.9-20,47.9c0,21.1,7.6,37.4,20,50c-12.3,12.2-20,27.9-20,47.9c0,84.2,120.4,91.3,184,91.3c25.1,0,59-1.7,90.9-8.7
		C278.3,480.3,276.4,474,276.4,467.2z M190.6,53.8c78.3,0,141.9,18.7,141.9,41.8c0,12.4-18.4,23.6-47.6,31.2
		c-7.7,2-16.2,3.8-25.3,5.3c-0.1,0-0.3,0-0.4,0.1c-1.5,0.2-2.9,0.5-4.4,0.7c-0.5,0.1-1,0.1-1.5,0.2c-1.3,0.2-2.7,0.4-4,0.6
		c-0.7,0.1-1.3,0.2-2,0.3c-1.3,0.2-2.5,0.3-3.8,0.5c-0.8,0.1-1.6,0.2-2.4,0.3c-1.2,0.1-2.4,0.3-3.7,0.4c-0.9,0.1-1.8,0.2-2.7,0.3
		c-1.2,0.1-2.4,0.2-3.5,0.3c-1,0.1-2,0.2-3,0.3c-1.1,0.1-2.3,0.2-3.4,0.3c-1.1,0.1-2.2,0.2-3.3,0.2c-1.1,0.1-2.2,0.1-3.3,0.2
		c-1.2,0.1-2.4,0.1-3.5,0.2c-1,0.1-2.1,0.1-3.1,0.2c-1.3,0.1-2.6,0.1-3.9,0.1c-1,0-1.9,0.1-2.9,0.1c-1.5,0-3,0.1-4.6,0.1
		c-0.8,0-1.6,0-2.4,0c-2.3,0-4.7,0.1-7,0.1c-2.4,0-4.8,0-7.1-0.1c-0.8,0-1.6,0-2.4-0.1c-1.5,0-3.1-0.1-4.6-0.1c-1,0-2-0.1-3-0.1
		c-1.3,0-2.6-0.1-3.9-0.1c-1.1,0-2.2-0.1-3.3-0.2c-1.2-0.1-2.3-0.1-3.5-0.2c-1.2-0.1-2.4-0.2-3.5-0.2c-1-0.1-2.1-0.1-3.1-0.2
		c-1.2-0.1-2.5-0.2-3.7-0.3c-1-0.1-1.9-0.2-2.8-0.2c-1.3-0.1-2.5-0.2-3.8-0.4c-0.9-0.1-1.7-0.2-2.6-0.3c-1.3-0.1-2.6-0.3-3.9-0.4
		c-0.8-0.1-1.6-0.2-2.3-0.3c-1.3-0.2-2.7-0.3-4-0.5c-0.7-0.1-1.4-0.2-2.1-0.3c-1.4-0.2-2.7-0.4-4.1-0.6c-0.6-0.1-1.2-0.2-1.8-0.3
		c-1.4-0.2-2.8-0.4-4.2-0.7c-0.5-0.1-1-0.2-1.5-0.3c-1.4-0.2-2.9-0.5-4.3-0.8c-0.4-0.1-0.8-0.2-1.3-0.2c-1.5-0.3-2.9-0.6-4.3-0.9
		c-0.3-0.1-0.6-0.1-1-0.2c-1.5-0.3-3-0.6-4.4-1c-0.2-0.1-0.5-0.1-0.7-0.2c-1.5-0.3-3-0.7-4.5-1.1c-0.1,0-0.3-0.1-0.4-0.1
		c-1.6-0.4-3.1-0.8-4.6-1.2c-27.9-7.6-45.3-18.5-45.3-30.6C48.8,72.5,112.3,53.8,190.6,53.8z M56.8,179.6
		c40.6,18.6,96.8,21,133.8,21c36.6,0,92.1-3.6,132.6-22c6,4.6,9.2,9.6,9.2,14.8c0,12.4-18.4,23.6-47.6,31.2c0,0,0,0,0,0
		c-7.7,2-16.2,3.8-25.3,5.3c-0.1,0-0.3,0-0.4,0.1c-1.5,0.2-3,0.5-4.5,0.7c-0.5,0.1-0.9,0.1-1.4,0.2c-1.3,0.2-2.7,0.4-4.1,0.6
		c-0.7,0.1-1.3,0.2-2,0.3c-1.3,0.2-2.5,0.3-3.8,0.5c-0.8,0.1-1.6,0.2-2.4,0.3c-1.2,0.1-2.4,0.3-3.7,0.4c-0.9,0.1-1.8,0.2-2.7,0.3
		c-1.2,0.1-2.4,0.2-3.5,0.3c-1,0.1-2,0.2-3,0.3c-1.1,0.1-2.3,0.2-3.4,0.3c-1.1,0.1-2.2,0.2-3.3,0.2c-1.1,0.1-2.2,0.1-3.3,0.2
		c-1.2,0.1-2.4,0.1-3.5,0.2c-1,0.1-2.1,0.1-3.1,0.2c-1.3,0.1-2.6,0.1-3.9,0.1c-1,0-1.9,0.1-2.9,0.1c-1.5,0-3,0.1-4.6,0.1
		c-0.8,0-1.6,0-2.4,0c-2.3,0-4.7,0.1-7,0.1c-2.4,0-4.8,0-7.1-0.1c-0.8,0-1.6,0-2.4-0.1c-1.5,0-3.1-0.1-4.6-0.1c-1,0-2-0.1-3-0.1
		c-1.3,0-2.6-0.1-3.9-0.1c-1.1,0-2.2-0.1-3.3-0.2c-1.2-0.1-2.3-0.1-3.5-0.2c-1.2-0.1-2.4-0.2-3.5-0.2c-1-0.1-2.1-0.1-3.1-0.2
		c-1.2-0.1-2.5-0.2-3.7-0.3c-1-0.1-1.9-0.2-2.8-0.2c-1.3-0.1-2.5-0.2-3.8-0.4c-0.9-0.1-1.7-0.2-2.6-0.3c-1.3-0.1-2.6-0.3-3.9-0.4
		c-0.8-0.1-1.6-0.2-2.3-0.3c-1.3-0.2-2.7-0.3-4-0.5c-0.7-0.1-1.4-0.2-2.1-0.3c-1.4-0.2-2.7-0.4-4.1-0.6c-0.6-0.1-1.2-0.2-1.8-0.3
		c-1.4-0.2-2.8-0.4-4.2-0.7c-0.5-0.1-1-0.2-1.5-0.3c-1.4-0.2-2.9-0.5-4.3-0.8c-0.4-0.1-0.8-0.2-1.3-0.2c-1.5-0.3-2.9-0.6-4.3-0.9
		c-0.3-0.1-0.6-0.1-1-0.2c-1.5-0.3-3-0.6-4.4-1c-0.2-0.1-0.5-0.1-0.7-0.2c-1.5-0.3-3-0.7-4.5-1.1c-0.1,0-0.3-0.1-0.4-0.1
		c-1.6-0.4-3.1-0.8-4.6-1.2c-27.9-7.6-45.3-18.5-45.3-30.6C48.8,188.7,51.6,184,56.8,179.6z"/>
</g>
</svg>
