<?xml version="1.0" encoding="utf-8"?>
<!-- Generator: Adobe Illustrator 24.1.0, SVG Export Plug-In . SVG Version: 6.00 Build 0)  -->
<svg version="1.1" id="Layer_1" xmlns="http://www.w3.org/2000/svg" xmlns:xlink="http://www.w3.org/1999/xlink" x="0px" y="0px"
	 viewBox="0 0 512 512" style="enable-background:new 0 0 512 512;" xml:space="preserve">
<g>
	<g>
		<path d="M422.2,430.2c16.6-26.9,25.8-57.1,25.8-88.9c0-74-46.7-138.1-116.4-161.5c-9.4-15.2-24.8-26.1-42.9-29.4l10-20
			c2.6-5.3,0.5-11.7-4.8-14.3l9.5-19.1c5.3,2.6,11.7,0.5,14.3-4.8l22.5-44.9c2.6-5.3,0.5-11.7-4.8-14.3l-64-32
			c-5.3-2.6-11.7-0.5-14.3,4.8l-22.5,44.9c-2.6,5.3-0.5,11.7,4.8,14.3l-9.5,19.1c-5.3-2.6-11.7-0.5-14.3,4.8l-86.5,172.9
			c-2.6,5.3-0.5,11.7,4.8,14.3l64,32c1.5,0.8,3.2,1.1,4.8,1.1c3.9,0,7.7-2.2,9.6-5.9l21.7-43.4c11.4,10.6,26.6,17.3,43.4,17.3
			c14,0,26.9-4.6,37.4-12.3c29.2,14.3,47.9,43.5,47.9,76.3c0,47.1-38.3,85.3-85.3,85.3H192v-21.3h32c5.9,0,10.7-4.8,10.7-10.7
			S229.9,384,224,384h-42.7h-64H74.7c-5.9,0-10.7,4.8-10.7,10.7s4.8,10.7,10.7,10.7h32v21.3c-23.5,0-42.7,19.1-42.7,42.7v32
			c0,5.9,4.8,10.7,10.7,10.7h362.7c5.9,0,10.7-4.8,10.7-10.7v-32C448,451.8,437.4,436.8,422.2,430.2z M213.3,213.3
			c0,9.8,2.4,19,6.4,27.4l-21.8,43.7L153,261.9l76.9-153.8c5.3,2.6,11.7,0.5,14.3-4.8l19.1-38.2c2.6-5.3,0.5-11.7-4.8-14.3L271.4,25
			l44.9,22.5l-12.9,25.8c-5.3-2.6-11.7-0.5-14.3,4.8L270,116.2c-2.6,5.3-0.5,11.7,4.8,14.3l-10,20.1
			C235.5,156.5,213.3,182.3,213.3,213.3z M277.3,256c-23.5,0-42.7-19.1-42.7-42.7s19.1-42.7,42.7-42.7s42.7,19.1,42.7,42.7
			S300.9,256,277.3,256z M384,341.3c0-38.7-20.7-73.5-53.6-92.3c6.9-10.2,10.9-22.5,10.9-35.7c0-2.4-0.5-4.7-0.7-7.1
			c52.1,24.3,86,76.1,86,135.1c0,30.8-9.6,60.1-27.4,85.3h-58.6C366.8,407.2,384,376.3,384,341.3z M128,405.3h42.7v21.3H128V405.3z
			 M426.7,490.7H85.3v-21.3c0-11.8,9.6-21.3,21.3-21.3h10.7h64h224c11.8,0,21.3,9.6,21.3,21.3V490.7z"/>
	</g>
</g>
</svg>
