<?xml version="1.0" encoding="utf-8"?>
<!-- Generator: Adobe Illustrator 24.1.0, SVG Export Plug-In . SVG Version: 6.00 Build 0)  -->
<svg version="1.1" id="Layer_1" xmlns="http://www.w3.org/2000/svg" xmlns:xlink="http://www.w3.org/1999/xlink" x="0px" y="0px"
	 viewBox="0 0 512 512" style="enable-background:new 0 0 512 512;" xml:space="preserve">
<style type="text/css">
	.st0{fill:#8FA1CC;}
</style>
<g>
	<path class="st0" d="M140.4,231.2c-22.8,0-41.3,18.5-41.3,41.3c0,13,6.2,25.3,16.5,33v49.6h49.5v-49.6c10.3-7.7,16.5-20,16.5-33
		C181.7,249.7,163.2,231.2,140.4,231.2z M152.8,293.9l-4.1,2.4v42.3h-16.5v-42.3l-4.1-2.4c-7.6-4.4-12.4-12.6-12.4-21.4
		c0-13.7,11.1-24.8,24.8-24.8s24.8,11.1,24.8,24.8C165.2,281.3,160.4,289.5,152.8,293.9z"/>
	<path class="st0" d="M216.7,336.6c9.5-19.1,14.6-40.4,14.6-61.7v-59l-15.7-2.6c-25.3-4.2-49.6-14.6-70.2-30l-5-3.7l-5,3.7
		c-20.6,15.4-44.8,25.8-70.2,30L49.5,216v59c0,21.3,5,42.6,14.6,61.7c13.3,26.5,35.2,48.4,61.7,61.7l14.6,7.3l14.6-7.3
		C181.5,385.1,203.4,363.2,216.7,336.6z M140.4,387.2l-7.2-3.6c-23.4-11.7-42.6-31-54.3-54.3c-8.4-16.8-12.8-35.6-12.8-54.3v-45
		l1.9-0.3c25.9-4.3,50.8-14.5,72.4-29.5c21.6,15,46.5,25.2,72.4,29.5l1.9,0.3v45c0,18.8-4.4,37.5-12.8,54.3
		c-11.7,23.3-31,42.6-54.3,54.3L140.4,387.2z"/>
	<path class="st0" d="M512,0H198.2v49.5h-49.5v95l-8.3-6.2l-24.8,18.6c-16.4,12.3-35.6,20.5-55.8,23.9L16.5,188v86.9
		c0,24.3,5.8,46.7,18.7,72.6c16.4,32.9,43.6,60,76.5,76.5l10.9,5.4H41.3C18.5,429.4,0,447.9,0,470.7S18.5,512,41.3,512h167.1
		l33-16.5h221v-49.5H512V0z M214.7,16.5h280.8v231.2c0-21.5-13.8-39.8-33-46.7V49.5H214.7V16.5z M445.9,330.3h-33
		c-18.2,0-33-14.8-33-33h18c3.4,9.6,12.5,16.5,23.3,16.5h16.5c10.8,0,19.8-6.9,23.3-16.5h18C479,315.5,464.2,330.3,445.9,330.3z
		 M479,247.7h-18c-3.4-9.6-12.5-16.5-23.3-16.5h-16.5c-10.8,0-19.8,6.9-23.3,16.5h-18c0-18.2,14.8-33,33-33h33
		C464.2,214.7,479,229.5,479,247.7z M443.6,294.8c-1.5,1.5-3.6,2.5-5.9,2.5h-16.5c-2.3,0-4.4-1-5.9-2.5c8.3-4,14.1-12.4,14.1-22.3
		s-5.8-18.3-14.1-22.3c1.5-1.5,3.6-2.5,5.9-2.5h16.5c2.3,0,4.4,1,5.9,2.5c-8.3,4-14.1,12.4-14.1,22.3S435.2,290.8,443.6,294.8z
		 M338.6,280.8c-4.6,0-8.3-3.7-8.3-8.3s3.7-8.3,8.3-8.3h66.1c4.6,0,8.3,3.7,8.3,8.3s-3.7,8.3-8.3,8.3H338.6z M264.3,274.9v-10.7H289
		c4.6,0,8.3,3.7,8.3,8.3s-3.7,8.3-8.3,8.3h-24.8V274.9z M299.7,250.2c1.5-1.5,3.6-2.5,5.9-2.5h16.5c2.3,0,4.4,1,5.9,2.5
		c-8.3,4-14.1,12.4-14.1,22.3s5.8,18.3,14.1,22.3c-1.5,1.5-3.6,2.5-5.9,2.5h-16.5c-2.3,0-4.4-1-5.9-2.5c8.3-4,14.1-12.4,14.1-22.3
		S308,254.2,299.7,250.2z M345.3,247.7c-3.4-9.6-12.5-16.5-23.3-16.5h-16.5c-10.8,0-19.8,6.9-23.3,16.5h-18c0-18.2,14.8-33,33-33h33
		c18.2,0,33,14.8,33,33H345.3z M282.3,297.3c3.4,9.6,12.5,16.5,23.3,16.5h16.5c10.8,0,19.8-6.9,23.3-16.5h18c0,18.2-14.8,33-33,33
		h-33c-18.2,0-33-14.8-33-33H282.3z M454.2,280.8c-4.6,0-8.3-3.7-8.3-8.3s3.7-8.3,8.3-8.3h41.3v16.5H454.2z M165.2,66.1h280.8v132.1
		h-33c-17.2,0-32.4,8.8-41.3,22.2c-8.9-13.4-24.1-22.2-41.3-22.2h-33c-12.7,0-24.3,4.8-33,12.7V188l-43.3-7.2
		c-20.1-3.4-39.4-11.6-55.8-23.9V66.1z M50,340.1c-11.9-23.8-17-43.3-17-65.2v-73l29.5-4.9c22.7-3.8,44.5-13.1,63-27l14.9-11.1
		l14.9,11.1c18.5,13.8,40.2,23.2,63,27l29.5,4.9v45.8v27.2c0,23.5-4.8,43.6-15.6,65.2c-14.8,29.7-39.4,54.2-69.1,69.1l-22,11
		l-21.9-11C89.4,394.4,64.9,369.8,50,340.1L50,340.1z M82.6,495.5H66.1v-49.5h16.5V495.5z M99.1,479h90.8v16.5H99.1V479z
		 M189.9,462.5H99.1v-16.5h90.8V462.5z M16.5,470.7c0-13.7,11.1-24.8,24.8-24.8h8.3v49.5h-8.3C27.6,495.5,16.5,484.4,16.5,470.7z
		 M206.5,494.5v-47.6l38.5,19.2c1.7,0.9,2.8,2.6,2.8,4.6s-1.1,3.7-2.8,4.6L206.5,494.5z M445.9,479H262.4c1.1-2.6,1.8-5.3,1.8-8.3
		c0-8.2-4.6-15.6-11.9-19.3l-43.9-21.9h-48.9l10.9-5.4c32.9-16.5,60-43.6,76.5-76.5c3.8-7.6,6.9-15,9.4-22.5
		c8.9,13.2,24,21.8,41,21.8h33c17.2,0,32.4-8.8,41.3-22.2c8.9,13.4,24.1,22.2,41.3,22.2h33V479z M495.5,429.4h-33v-85.5
		c19.2-6.8,33-25.1,33-46.7V429.4z"/>
	<path class="st0" d="M280.8,462.5h148.6v-99.1H280.8V462.5z M412.9,442.5l-62.6-62.6h17.9l44.7,44.7L412.9,442.5z M393,445.9H375
		L309,379.9h17.9L393,445.9z M351.7,445.9h-17.9l-36.5-36.5v-17.9L351.7,445.9z M297.3,432.8l13.1,13.1h-13.1V432.8z M412.9,401.2
		l-21.4-21.4h21.4V401.2z"/>
	<path class="st0" d="M181.7,99.1h115.6v16.5H181.7V99.1z"/>
	<path class="st0" d="M313.8,99.1h115.6v16.5H313.8V99.1z"/>
	<path class="st0" d="M181.7,132.1h115.6v16.5H181.7V132.1z"/>
	<path class="st0" d="M313.8,132.1h115.6v16.5H313.8V132.1z"/>
	<path class="st0" d="M313.8,165.2h16.5v16.5h-16.5V165.2z"/>
	<path class="st0" d="M346.8,165.2h16.5v16.5h-16.5V165.2z"/>
	<path class="st0" d="M379.9,165.2h16.5v16.5h-16.5V165.2z"/>
	<path class="st0" d="M412.9,165.2h16.5v16.5h-16.5V165.2z"/>
</g>
</svg>
