<?xml version="1.0" encoding="utf-8"?>
<!-- Generator: Adobe Illustrator 24.1.0, SVG Export Plug-In . SVG Version: 6.00 Build 0)  -->
<svg version="1.1" id="Layer_1" xmlns="http://www.w3.org/2000/svg" xmlns:xlink="http://www.w3.org/1999/xlink" x="0px" y="0px"
	 viewBox="0 0 512 512" style="enable-background:new 0 0 512 512;" xml:space="preserve">
<style type="text/css">
	.st0{fill:#8FA1CC;}
</style>
<g>
	<g>
		<g>
			<path class="st0" d="M412.9,363.4c-1.4,0-2.7,0.2-4.1,0.4l-18.7-33.7c3.8-4.4,6.3-10,6.3-16.3c0-13.7-11.1-24.8-24.8-24.8
				c-13.7,0-24.8,11.1-24.8,24.8c0,6.3,2.4,11.9,6.3,16.3l-18.7,33.7c-1.3-0.2-2.7-0.4-4.1-0.4c-13.7,0-24.8,11.1-24.8,24.8
				s11.1,24.8,24.8,24.8c10.8,0,19.8-6.9,23.3-16.5h36.1c3.4,9.6,12.5,16.5,23.3,16.5c13.7,0,24.8-11.1,24.8-24.8
				S426.6,363.4,412.9,363.4z M330.3,396.4c-4.6,0-8.3-3.7-8.3-8.3s3.7-8.3,8.3-8.3s8.3,3.7,8.3,8.3S334.9,396.4,330.3,396.4z
				 M371.6,305.5c4.6,0,8.3,3.7,8.3,8.3s-3.7,8.3-8.3,8.3c-4.6,0-8.3-3.7-8.3-8.3S367.1,305.5,371.6,305.5z M389.6,379.9h-36.1
				c-1.1-3-2.7-5.7-4.7-8.1l18.7-33.7c1.3,0.2,2.7,0.4,4.1,0.4c1.4,0,2.7-0.2,4.1-0.4l18.7,33.7
				C392.3,374.2,390.7,376.9,389.6,379.9z M412.9,396.4c-4.6,0-8.3-3.7-8.3-8.3s3.7-8.3,8.3-8.3s8.3,3.7,8.3,8.3
				S417.5,396.4,412.9,396.4z"/>
		</g>
	</g>
	<g>
		<g>
			<rect x="305.5" y="231.2" class="st0" width="107.4" height="16.5"/>
		</g>
	</g>
	<g>
		<g>
			<rect x="429.4" y="231.2" class="st0" width="16.5" height="16.5"/>
		</g>
	</g>
	<g>
		<g>
			<rect x="305.5" y="165.2" class="st0" width="107.4" height="16.5"/>
		</g>
	</g>
	<g>
		<g>
			<rect x="429.4" y="165.2" class="st0" width="16.5" height="16.5"/>
		</g>
	</g>
	<g>
		<g>
			<rect x="305.5" y="198.2" class="st0" width="140.4" height="16.5"/>
		</g>
	</g>
	<g>
		<g>
			<rect x="338.6" y="132.1" class="st0" width="107.4" height="16.5"/>
		</g>
	</g>
	<g>
		<g>
			<rect x="305.5" y="132.1" class="st0" width="16.5" height="16.5"/>
		</g>
	</g>
	<g>
		<g>
			<rect x="305.5" y="99.1" class="st0" width="140.4" height="16.5"/>
		</g>
	</g>
	<g>
		<g>
			<rect x="239.5" y="396.4" class="st0" width="16.5" height="16.5"/>
		</g>
	</g>
	<g>
		<g>
			<rect x="115.6" y="396.4" class="st0" width="107.4" height="16.5"/>
		</g>
	</g>
	<g>
		<g>
			<rect x="115.6" y="363.4" class="st0" width="140.4" height="16.5"/>
		</g>
	</g>
	<g>
		<g>
			<path class="st0" d="M479,82.6V66.1H165.2V49.5h8.3c13.7,0,24.8-11.1,24.8-24.8S187.1,0,173.4,0H74.3C60.7,0,49.5,11.1,49.5,24.8
				s11.1,24.8,24.8,24.8h8.3v33h-33v49.7C19.2,155.3,0,191.8,0,231.2c0,40.4,19.5,76.2,49.5,98.9V479h190.8
				c3.8,18.8,20.5,33,40.5,33s36.6-14.2,40.5-33H512V82.6H479z M289,82.6h173.4v346.8H289V82.6z M272.5,82.6v346.8H99.1v-76.8
				c8,1.6,16.3,2.5,24.8,2.5c68.3,0,123.9-55.6,123.9-123.9c0-52.3-33.7-99.4-82.6-116.8V82.6H272.5z M74.3,33
				c-4.6,0-8.3-3.7-8.3-8.3s3.7-8.3,8.3-8.3h99.1c4.6,0,8.3,3.7,8.3,8.3S178,33,173.4,33H74.3z M148.6,49.5v49.5H99.1V49.5H148.6z
				 M66.1,99.1h16.5v15.4c-5.7,2-11.2,4.5-16.5,7.3V99.1z M16.5,231.2c0-47.1,31.5-89.4,76.7-102.8l5.9-1.8v-11h49.5v11l5.9,1.8
				c45.1,13.5,76.7,55.7,76.7,102.8c0,59.2-48.2,107.4-107.4,107.4S16.5,290.4,16.5,231.2z M495.5,462.5H305.5v8.3
				c0,13.7-11.1,24.8-24.8,24.8c-13.7,0-24.8-11.1-24.8-24.8v-8.3H66.1V340.7c5.3,2.8,10.8,5.1,16.5,7.2v98.1H479V99.1h16.5V462.5z"
				/>
		</g>
	</g>
	<g>
		<g>
			<rect x="165.2" y="189.9" class="st0" width="16.5" height="16.5"/>
		</g>
	</g>
	<g>
		<g>
			<rect x="165.2" y="239.5" class="st0" width="16.5" height="16.5"/>
		</g>
	</g>
	<g>
		<g>
			<rect x="189.9" y="214.7" class="st0" width="16.5" height="16.5"/>
		</g>
	</g>
	<g>
		<g>
			<rect x="140.4" y="214.7" class="st0" width="16.5" height="16.5"/>
		</g>
	</g>
	<g>
		<g>
			<path class="st0" d="M105.7,142.2l3.3,16.2c4.9-1,9.9-1.5,14.9-1.5v-16.5C117.8,140.4,111.7,141,105.7,142.2z"/>
		</g>
	</g>
	<g>
		<g>
			<path class="st0" d="M87.5,148C54.4,162.4,33,195.1,33,231.2h16.5c0-29.6,17.5-56.3,44.6-68.1L87.5,148z"/>
		</g>
	</g>
</g>
</svg>
