<?xml version="1.0" encoding="utf-8"?>
<!-- Generator: Adobe Illustrator 24.1.2, SVG Export Plug-In . SVG Version: 6.00 Build 0)  -->
<svg version="1.1" id="Capa_1" xmlns="http://www.w3.org/2000/svg" xmlns:xlink="http://www.w3.org/1999/xlink" x="0px" y="0px"
	 viewBox="0 0 511 263" style="enable-background:new 0 0 511 263;" xml:space="preserve">
<style type="text/css">
	.st0{fill:#8FA1CC;}
</style>
<g>
	<path class="st0" d="M471.5,231c2,0,3.9-0.8,5.3-2.2c1.4-1.4,2.2-3.3,2.2-5.3s-0.8-3.9-2.2-5.3c-1.4-1.4-3.3-2.2-5.3-2.2
		c-2,0-3.9,0.8-5.3,2.2c-1.4,1.4-2.2,3.3-2.2,5.3s0.8,3.9,2.2,5.3C467.6,230.2,469.5,231,471.5,231z"/>
	<path class="st0" d="M407.5,144c-2,0-3.9,0.8-5.3,2.2c-1.4,1.4-2.2,3.3-2.2,5.3s0.8,3.9,2.2,5.3c1.4,1.4,3.3,2.2,5.3,2.2
		s3.9-0.8,5.3-2.2c1.4-1.4,2.2-3.3,2.2-5.3s-0.8-3.9-2.2-5.3C411.4,144.8,409.5,144,407.5,144z"/>
	<path class="st0" d="M210.2,218.2c-1.4,1.4-2.2,3.3-2.2,5.3s0.8,3.9,2.2,5.3c1.4,1.4,3.3,2.2,5.3,2.2s3.9-0.8,5.3-2.2
		c1.4-1.4,2.2-3.3,2.2-5.3s-0.8-3.9-2.2-5.3c-1.4-1.4-3.3-2.2-5.3-2.2S211.6,216.8,210.2,218.2z"/>
	<path class="st0" d="M415,223.5c0-4.1-3.4-7.5-7.5-7.5h-128c-4.1,0-7.5,3.4-7.5,7.5s3.4,7.5,7.5,7.5h128
		C411.6,231,415,227.6,415,223.5z"/>
	<path class="st0" d="M0,247.5c0,4.1,3.4,7.5,7.5,7.5h15.9c0,0,0.1,0,0.1,0s0.1,0,0.1,0h127.9c0,0,0,0,0,0c0.2,0,0.3,0,0.5,0
		c0.2,0,0.3,0,0.5,0c0.1,0,0.2,0,0.3-0.1c0.2,0,0.4-0.1,0.7-0.1c0.1,0,0.2-0.1,0.3-0.1c0.2-0.1,0.4-0.1,0.6-0.2
		c0.1-0.1,0.3-0.1,0.4-0.2c0.2-0.1,0.3-0.2,0.5-0.2c0.1-0.1,0.3-0.2,0.4-0.3c0.1-0.1,0.3-0.2,0.4-0.3c0.1-0.1,0.3-0.2,0.4-0.3
		c0.1-0.1,0.2-0.2,0.4-0.3c0.1-0.1,0.2-0.2,0.3-0.4c0.1-0.1,0.2-0.3,0.3-0.4c0.1-0.1,0.2-0.3,0.3-0.4c0.1-0.1,0.1-0.2,0.2-0.3
		c0-0.1,0.1-0.1,0.1-0.2c0-0.1,0.1-0.1,0.1-0.2l18.4-33.9c-0.3,2.1-0.5,4.2-0.5,6.3c0,21.8,17.7,39.5,39.5,39.5h256
		c21.8,0,39.5-17.7,39.5-39.5c0-12.2-5.6-23.2-14.4-30.4L452.6,143h14.6c5.3,0,10.1-2.6,13-7.1s3.3-9.9,1.2-14.7L457,66.4
		c-3-6.6-10.3-10.4-17.4-8.9L423,61V31.5C423,14.1,408.9,0,391.5,0L271.7,0c0,0,0,0,0,0l-16.1,0c-4.1,0-7.5,3.4-7.5,7.5
		s3.4,7.5,7.5,7.5h5.6l-4.8,14.3c0,0,0,0,0,0l-24,71.9c0,0.1-0.1,0.2-0.1,0.4l-50.3,10.7c-0.9,0.2-1.8,0.6-2.5,1
		c-9.2,2.8-16.3,10.4-18.6,19.8l-21.1,74.2l-5.4-10.8c-3-6-8.5-10.5-15-12.2c-6.5-1.7-13.5-0.6-19.1,3.2l-79,52.7H7.5
		C3.4,240,0,243.4,0,247.5z M149.6,227l19.2-67.4c4.7,4.4,11,7.1,17.9,7.3l-34.9,64.3L149.6,227z M175.6,135.7
		c1.6-5.1,6.3-8.7,11.9-8.7c6.9,0,12.5,5.6,12.5,12.5c0,1.8-0.4,3.5-1,5c0,0,0,0.1,0,0.1l-1,1.9c-2.2,3.3-6.1,5.6-10.4,5.6
		c-6.9,0-12.5-5.6-12.5-12.5c0-1,0.1-2,0.4-2.9l0.1-0.5C175.5,136,175.6,135.8,175.6,135.7z M268.9,39h98.6c0.3,0,0.5,0.2,0.5,0.5
		v32c0,0.4,0,0.8,0.1,1.2L249.3,97.9L268.9,39z M408,64.2l-25,5.3v-30c0-8.5-7-15.5-15.5-15.5h-93.6l3-9h114.6
		c9.1,0,16.5,7.4,16.5,16.5v32C408,63.7,408,64,408,64.2z M439.4,128l-1.2-1.4c0,0,0,0,0,0c-7.2-8.9-18.3-14.6-30.6-14.6
		c-6.1,0-12,1.4-17.1,3.9l-13.6,5.1l-163.1,27.2c0.9-2.7,1.4-5.7,1.4-8.7c0-6.7-2.4-12.9-6.4-17.7l234.1-49.7c0.2,0,0.5,0.1,0.6,0.3
		l24.4,54.8c0,0.1,0.1,0.2,0,0.5c-0.1,0.2-0.3,0.2-0.4,0.2h-27.7C439.5,128,439.4,128,439.4,128z M432,223.5
		c0,9.2,3.2,17.8,8.6,24.5H246.5c5.3-6.7,8.6-15.2,8.6-24.5s-3.2-17.8-8.6-24.5h103.1c8.4,0,16.3-3.3,22.3-9.2l9.1-9.1
		c7,6.4,16.4,10.3,26.6,10.3c19.3,0,35.5-14,38.8-32.4l22.4,25.5C448.3,185.5,432,202.6,432,223.5z M407.5,127
		c13.5,0,24.5,11,24.5,24.5S421,176,407.5,176S383,165,383,151.5c0-9.5,5.4-17.8,13.4-21.8l5.3-2C403.5,127.3,405.5,127,407.5,127z
		 M251.3,184l118.5-44.4c-1.2,3.8-1.8,7.7-1.8,11.9c0,6.1,1.4,11.9,3.9,17l-10.6,10.6c-3.1,3.1-7.3,4.8-11.7,4.8H251.3z M471.5,248
		c-13.5,0-24.5-11-24.5-24.5s11-24.5,24.5-24.5c5.5,0,10.6,1.8,14.7,4.9l1.6,1.8c0.6,0.7,1.3,1.3,2.1,1.7c3.7,4.3,6,9.9,6,16.1
		C496,237,485,248,471.5,248z M191,223.5c0-9.9,5.9-18.4,14.3-22.3l3.3-1.3c2.2-0.6,4.5-1,6.9-1c13.5,0,24.5,11,24.5,24.5
		S229,248,215.5,248S191,237,191,223.5z M189,194.3l16-29.4l98.6-16.4l-99.6,37.3c-1.6,0.5-3.2,1.1-4.7,1.8c0,0-0.1,0-0.1,0.1
		C195.4,189.3,192,191.6,189,194.3z M48.3,240l60.3-40.2c2.1-1.4,4.5-1.8,6.9-1.1c2.4,0.6,4.3,2.2,5.4,4.4l18.5,36.9H48.3z"/>
</g>
</svg>
