<?xml version="1.0" encoding="utf-8"?>
<!-- Generator: Adobe Illustrator 24.1.0, SVG Export Plug-In . SVG Version: 6.00 Build 0)  -->
<svg version="1.1" id="Layer_1" xmlns="http://www.w3.org/2000/svg" xmlns:xlink="http://www.w3.org/1999/xlink" x="0px" y="0px"
	 viewBox="0 0 125 119.6" style="enable-background:new 0 0 125 119.6;" xml:space="preserve">
<style type="text/css">
	.st0{display:none;}
	.st1{display:inline;}
</style>
<g>
	<g>
		<g class="st0">
			<path class="st1" d="M70.6,4.6c2.6-1.9,5.8-3.1,9.4-3.1c6.3,0,11.7,3.6,14.2,8.9l0.7-0.2c1.1-0.2,2.3-0.4,3.5-0.4
				c7.4,0,13.6,4.9,15.6,11.7c0,0,0.1,0.4,0.2,0.5c5.6,2.9,9.4,8.7,9.4,15.4c0,9.6-7.7,17.4-17.3,17.4l-4.8,0.1l-90.4,0.3l-0.9-0.1
				c-1.8-0.3-3.3-1-4.6-2.1C0.3,48.4,1,34.1,7.7,26.5c0,0,2.9-2.2,4.4-3.3l1-0.5c1.2-4.7,4.9-4.4,10-4.4c2,0,3.9,0.5,5.5,1.5
				l1.2,0.3c0.4-6.7,5-12.6,11.8-14.4c2.8-0.7,5.6-0.7,8.2,0.1l0.1,0.4c2.8-2.8,6.6-4.6,10.9-4.6c3.6,0,6.9,1.2,9.5,3.3L70.6,4.6z"
				/>
		</g>
		<g>
			<path d="M18.9,40.9c-0.2,0-0.4,0-0.6-0.1c-4.6-1.9-7.6-6.4-7.7-11.5c0-3.3,1.3-6.5,3.6-8.8c2.4-2.4,5.5-3.7,8.8-3.7
				c2.2,0,4.4,0.6,6.3,1.7c0.7,0.4,1,1.3,0.5,2c-0.4,0.7-1.3,1-2,0.5c-1.4-0.8-3.1-1.2-4.8-1.3c-2.5,0-4.9,1-6.7,2.8
				c-1.8,1.8-2.8,4.2-2.8,6.7c0,3.8,2.3,7.2,5.8,8.7c0.8,0.3,1.1,1.2,0.8,2C20,40.5,19.4,40.9,18.9,40.9z"/>
			<path d="M43.3,38.1c-0.1,0-0.1,0-0.2,0c-6.9-1-12.5-6-14.2-12.8c-1.2-4.5-0.5-9.1,1.8-13.1c2.3-4,6.1-6.8,10.6-8
				c3-0.8,6.1-0.7,9,0.1c0.8,0.2,1.3,1.1,1,1.8c-0.2,0.8-1.1,1.3-1.8,1c-2.4-0.7-5-0.7-7.4-0.1c-3.7,1-6.8,3.3-8.7,6.6
				c-1.9,3.3-2.5,7.1-1.5,10.8c1.4,5.6,6.1,9.7,11.8,10.5c0.8,0.1,1.4,0.9,1.3,1.7C44.6,37.5,44,38.1,43.3,38.1z"/>
			<path d="M76.2,18.3c-0.8,0-1.5-0.7-1.5-1.5c0-3.7-1.5-7.1-4.1-9.7c-2.6-2.6-6.1-4-9.8-4c-3.7,0-7.2,1.5-9.8,4.2
				c-0.6,0.6-1.5,0.6-2.1,0c-0.6-0.6-0.6-1.5,0-2.1c3.2-3.2,7.4-5,12-5.1c0,0,0,0,0.1,0c9.2,0,16.8,7.5,16.8,16.7
				C77.7,17.6,77,18.3,76.2,18.3C76.2,18.3,76.2,18.3,76.2,18.3z"/>
			<path d="M94.2,11.9c-0.6,0-1.1-0.3-1.4-0.8C90.5,6.1,85.5,3,80,3c-3.1,0-6,1-8.5,2.8c-0.7,0.5-1.6,0.4-2.1-0.3
				c-0.5-0.7-0.4-1.6,0.3-2.1C72.7,1.2,76.3,0,80,0c0,0,0,0,0.1,0c6.6,0,12.7,3.8,15.5,9.8c0.4,0.7,0,1.6-0.7,2
				C94.7,11.9,94.4,11.9,94.2,11.9z"/>
			<path d="M54.3,48.6c-0.4,0-0.8-0.1-1.1-0.4c-0.6-0.6-0.6-1.5,0-2.1c2.6-2.7,4.1-6.2,4.1-10s-1.5-7.3-4.1-9.9
				c-2.7-2.6-6.2-4.1-9.9-4.1c0,0,0,0-0.1,0c-0.8,0-1.5-0.7-1.5-1.5c0-0.8,0.7-1.5,1.5-1.5c0,0,0,0,0.1,0c4.5,0,8.8,1.8,12,5
				c3.2,3.2,5,7.5,5,12c0,4.6-1.7,8.8-5,12.1C55.1,48.5,54.7,48.6,54.3,48.6z"/>
			<path d="M42.4,56.2c-0.3,0-0.6-0.1-0.9-0.3c-2.9-2-4.8-5.2-5.4-8.6c-0.1-0.8,0.4-1.6,1.2-1.7c0.8-0.1,1.6,0.4,1.7,1.2
				c0.4,2.7,2,5.1,4.2,6.7c0.7,0.5,0.8,1.4,0.3,2.1C43.3,56,42.9,56.2,42.4,56.2z"/>
			<path d="M58.9,37.4c-0.8,0-1.5-0.6-1.5-1.4c0-0.8,0.6-1.5,1.4-1.6c5.2-0.3,9.4-4.4,9.7-9.6c0.1-0.8,0.8-1.5,1.6-1.4
				c0.8,0,1.5,0.8,1.4,1.6C71.1,31.7,65.7,37,58.9,37.4C58.9,37.4,58.9,37.4,58.9,37.4z"/>
			<path d="M78.3,42.7c-0.8,0-1.4-0.6-1.5-1.4c0-0.3,0-0.7,0-1c0-9.2,7.4-16.6,16.6-16.7c1,0,2,0.1,3,0.3c0.8,0.1,1.4,0.9,1.2,1.7
				c-0.1,0.8-0.9,1.4-1.7,1.2c-0.8-0.1-1.6-0.2-2.4-0.2c-3.6,0-7.1,1.4-9.6,4c-2.6,2.6-4,6-4,9.6c0,0.3,0,0.6,0,0.9
				C79.8,41.9,79.2,42.6,78.3,42.7C78.3,42.7,78.3,42.7,78.3,42.7z"/>
			<path d="M110.4,37.1c-4.4,0-8.6-1.7-11.7-4.8c-3.2-3.1-4.9-7.3-4.9-11.8c0-0.8,0.7-1.5,1.5-1.5c0,0,0,0,0,0
				c0.8,0,1.5,0.7,1.5,1.5c0,3.6,1.4,7.1,4,9.6c2.6,2.6,6,4,9.6,4c0,0,0,0,0.1,0c0.8,0,1.5,0.7,1.5,1.5
				C111.9,36.4,111.3,37.1,110.4,37.1C110.4,37.1,110.4,37.1,110.4,37.1z"/>
			<path d="M10.2,56.4c-0.8,0-1.5-0.7-1.5-1.5c0-0.8,0.7-1.5,1.5-1.5l93.1-0.3c0,0,0,0,0,0c0.8,0,1.5,0.7,1.5,1.5
				c0,0.8-0.7,1.5-1.5,1.5L10.2,56.4C10.2,56.4,10.2,56.4,10.2,56.4z"/>
			<path d="M10.2,56.4c-0.1,0-0.2,0-0.2,0c-1.7-0.3-3.7-0.8-5.4-2.3c-2.6-2.3-4-7-3.9-12.7C0.9,33.3,4.3,26,9.7,21.8
				c10.7-8.2,17.6-4.6,17.9-4.4c0.7,0.4,1,1.3,0.6,2c-0.4,0.7-1.3,1-2,0.6c-0.2-0.1-5.6-2.7-14.6,4.2C6,28.4,3.9,35.9,3.7,41.5
				c-0.2,4.6,1,8.7,2.8,10.4c0.9,0.8,2,1.2,3.9,1.6c0.8,0.1,1.4,0.9,1.2,1.7C11.5,55.8,10.9,56.4,10.2,56.4z"/>
			<path d="M114,23.3c-0.7,0-1.3-0.4-1.4-1.1c-1.7-6.4-7.5-10.8-14.1-10.8c0,0,0,0,0,0c-1.1,0-2.1,0.1-3.1,0.3
				c-0.8,0.2-1.6-0.3-1.8-1.1c-0.2-0.8,0.3-1.6,1.1-1.8c1.2-0.3,2.5-0.4,3.8-0.4c0,0,0,0,0.1,0c8,0,15,5.4,17,13.1
				c0.2,0.8-0.3,1.6-1.1,1.8C114.2,23.3,114.1,23.3,114,23.3z"/>
			<path d="M106.1,56.3c-8.3,0-15.5-5.3-18-13.2c-0.2-0.8,0.2-1.6,1-1.9c0.8-0.2,1.6,0.2,1.9,1c2.1,6.7,8.2,11.1,15.2,11.1
				c0,0,0,0,0.1,0c4.2,0,8.2-1.7,11.2-4.7c3-3,4.6-7,4.6-11.2c0-6.1-3.4-11.5-8.9-14.2c-0.7-0.4-1.1-1.3-0.7-2
				c0.4-0.7,1.3-1.1,2-0.7c6.5,3.2,10.6,9.7,10.6,16.9C125,47.8,116.6,56.3,106.1,56.3C106.2,56.3,106.1,56.3,106.1,56.3z"/>
		</g>
	</g>
	<g>
		<path d="M62.7,119.6c-0.3,0-0.6-0.1-0.9-0.3L35.2,98.8H19.4C8.7,98.8,0,90.1,0,79.4S8.7,60,19.4,60h25.7
			c10.7,0,19.4,8.7,19.4,19.4c0,9.7-0.3,38.5-0.3,38.8c0,0.6-0.3,1.1-0.8,1.3C63.1,119.6,62.9,119.6,62.7,119.6z M19.4,63
			C10.4,63,3,70.3,3,79.4s7.4,16.4,16.4,16.4h16.3c0.3,0,0.7,0.1,0.9,0.3l24.6,19c0.1-7.7,0.3-27.9,0.3-35.7c0-9-7.4-16.4-16.4-16.4
			H19.4z"/>
	</g>
</g>
</svg>
